
      <svg xmlns="http://www.w3.org/2000/svg" version="1.1" width="2000" height="1080" style="display: block;"><polygon stroke-linejoin="round" stroke-miterlimit="1" stroke-width="1" points="2060.7872314453125,1076.7609252929688 1919.3489379882812,1153.6638793945312 2060.7872314453125,1240.5977783203125" style="fill:#382b34;stroke:#382b34;"></polygon><polygon stroke-linejoin="round" stroke-miterlimit="1" stroke-width="1" points="1919.3489379882812,1048.208740234375 1919.3489379882812,1153.6638793945312 2060.7872314453125,1076.7609252929688" style="fill:#2d1c22;stroke:#2d1c22;"></polygon><polygon stroke-linejoin="round" stroke-miterlimit="1" stroke-width="1" points="2060.7872314453125,959.5239868164062 1919.3489379882812,1048.208740234375 2060.7872314453125,1076.7609252929688" style="fill:#35272f;stroke:#35272f;"></polygon><polygon stroke-linejoin="round" stroke-miterlimit="1" stroke-width="1" points="1919.3489379882812,875.9165954589844 1919.3489379882812,1048.208740234375 2060.7872314453125,959.5239868164062" style="fill:#2d1c22;stroke:#2d1c22;"></polygon><polygon stroke-linejoin="round" stroke-miterlimit="1" stroke-width="1" points="2060.7872314453125,818.7813415527344 1919.3489379882812,875.9165954589844 2060.7872314453125,959.5239868164062" style="fill:#2c1c22;stroke:#2c1c22;"></polygon><polygon stroke-linejoin="round" stroke-miterlimit="1" stroke-width="1" points="1919.3489379882812,763.1293029785156 1919.3489379882812,875.9165954589844 2060.7872314453125,818.7813415527344" style="fill:#362830;stroke:#362830;"></polygon><polygon stroke-linejoin="round" stroke-miterlimit="1" stroke-width="1" points="2060.7872314453125,716.9976959228516 1919.3489379882812,763.1293029785156 2060.7872314453125,818.7813415527344" style="fill:#35272f;stroke:#35272f;"></polygon><polygon stroke-linejoin="round" stroke-miterlimit="1" stroke-width="1" points="1919.3489379882812,642.3540496826172 1919.3489379882812,763.1293029785156 2060.7872314453125,716.9976959228516" style="fill:#2f2026;stroke:#2f2026;"></polygon><polygon stroke-linejoin="round" stroke-miterlimit="1" stroke-width="1" points="2060.7872314453125,567.9000720977783 1919.3489379882812,642.3540496826172 2060.7872314453125,716.9976959228516" style="fill:#2d1d23;stroke:#2d1d23;"></polygon><polygon stroke-linejoin="round" stroke-miterlimit="1" stroke-width="1" points="1919.3489379882812,491.9747009277344 1919.3489379882812,642.3540496826172 2060.7872314453125,567.9000720977783" style="fill:#33242c;stroke:#33242c;"></polygon><polygon stroke-linejoin="round" stroke-miterlimit="1" stroke-width="1" points="2060.7872314453125,380.494140625 1919.3489379882812,491.9747009277344 2060.7872314453125,567.9000720977783" style="fill:#2f1f25;stroke:#2f1f25;"></polygon><polygon stroke-linejoin="round" stroke-miterlimit="1" stroke-width="1" points="1919.3489379882812,409.2519989013672 1919.3489379882812,491.9747009277344 2060.7872314453125,380.494140625" style="fill:#413642;stroke:#413642;"></polygon><polygon stroke-linejoin="round" stroke-miterlimit="1" stroke-width="1" points="2060.7872314453125,229.68820190429688 1919.3489379882812,409.2519989013672 2060.7872314453125,380.494140625" style="fill:#392c35;stroke:#392c35;"></polygon><polygon stroke-linejoin="round" stroke-miterlimit="1" stroke-width="1" points="1919.3489379882812,227.9351806640625 1919.3489379882812,409.2519989013672 2060.7872314453125,229.68820190429688" style="fill:#453b48;stroke:#453b48;"></polygon><polygon stroke-linejoin="round" stroke-miterlimit="1" stroke-width="1" points="2060.7872314453125,119.02554321289062 1919.3489379882812,227.9351806640625 2060.7872314453125,229.68820190429688" style="fill:#443a46;stroke:#443a46;"></polygon><polygon stroke-linejoin="round" stroke-miterlimit="1" stroke-width="1" points="1919.3489379882812,102.71572875976562 1919.3489379882812,227.9351806640625 2060.7872314453125,119.02554321289062" style="fill:#483e4c;stroke:#483e4c;"></polygon><polygon stroke-linejoin="round" stroke-miterlimit="1" stroke-width="1" points="2060.7872314453125,57.594512939453125 1919.3489379882812,102.71572875976562 2060.7872314453125,119.02554321289062" style="fill:#392c35;stroke:#392c35;"></polygon><polygon stroke-linejoin="round" stroke-miterlimit="1" stroke-width="1" points="1919.3489379882812,29.784637451171875 1919.3489379882812,102.71572875976562 2060.7872314453125,57.594512939453125" style="fill:#3b2e38;stroke:#3b2e38;"></polygon><polygon stroke-linejoin="round" stroke-miterlimit="1" stroke-width="1" points="2060.7872314453125,-160.8416748046875 1919.3489379882812,29.784637451171875 2060.7872314453125,57.594512939453125" style="fill:#3a2d36;stroke:#3a2d36;"></polygon><polygon stroke-linejoin="round" stroke-miterlimit="1" stroke-width="1" points="1919.3489379882812,-111.04052734375 1919.3489379882812,29.784637451171875 2060.7872314453125,-160.8416748046875" style="fill:#2e1e24;stroke:#2e1e24;"></polygon><polygon stroke-linejoin="round" stroke-miterlimit="1" stroke-width="1" points="1919.3489379882812,1048.208740234375 1777.91064453125,1135.1539306640625 1919.3489379882812,1153.6638793945312" style="fill:#2a1a1f;stroke:#2a1a1f;"></polygon><polygon stroke-linejoin="round" stroke-miterlimit="1" stroke-width="1" points="1777.91064453125,1107.7439575195312 1777.91064453125,1135.1539306640625 1919.3489379882812,1048.208740234375" style="fill:#271519;stroke:#271519;"></polygon><polygon stroke-linejoin="round" stroke-miterlimit="1" stroke-width="1" points="1919.3489379882812,875.9165954589844 1777.91064453125,1107.7439575195312 1919.3489379882812,1048.208740234375" style="fill:#34262e;stroke:#34262e;"></polygon><polygon stroke-linejoin="round" stroke-miterlimit="1" stroke-width="1" points="1777.91064453125,877.88232421875 1777.91064453125,1107.7439575195312 1919.3489379882812,875.9165954589844" style="fill:#35272f;stroke:#35272f;"></polygon><polygon stroke-linejoin="round" stroke-miterlimit="1" stroke-width="1" points="1919.3489379882812,763.1293029785156 1777.91064453125,877.88232421875 1919.3489379882812,875.9165954589844" style="fill:#3e323d;stroke:#3e323d;"></polygon><polygon stroke-linejoin="round" stroke-miterlimit="1" stroke-width="1" points="1777.91064453125,836.0853576660156 1777.91064453125,877.88232421875 1919.3489379882812,763.1293029785156" style="fill:#2d1d23;stroke:#2d1d23;"></polygon><polygon stroke-linejoin="round" stroke-miterlimit="1" stroke-width="1" points="1919.3489379882812,642.3540496826172 1777.91064453125,836.0853576660156 1919.3489379882812,763.1293029785156" style="fill:#271519;stroke:#271519;"></polygon><polygon stroke-linejoin="round" stroke-miterlimit="1" stroke-width="1" points="1777.91064453125,697.2313537597656 1777.91064453125,836.0853576660156 1919.3489379882812,642.3540496826172" style="fill:#514a5b;stroke:#514a5b;"></polygon><polygon stroke-linejoin="round" stroke-miterlimit="1" stroke-width="1" points="1919.3489379882812,491.9747009277344 1777.91064453125,697.2313537597656 1919.3489379882812,642.3540496826172" style="fill:#473d4b;stroke:#473d4b;"></polygon><polygon stroke-linejoin="round" stroke-miterlimit="1" stroke-width="1" points="1777.91064453125,489.91369247436523 1777.91064453125,697.2313537597656 1919.3489379882812,491.9747009277344" style="fill:#382a33;stroke:#382a33;"></polygon><polygon stroke-linejoin="round" stroke-miterlimit="1" stroke-width="1" points="1919.3489379882812,409.2519989013672 1777.91064453125,489.91369247436523 1919.3489379882812,491.9747009277344" style="fill:#3a2d37;stroke:#3a2d37;"></polygon><polygon stroke-linejoin="round" stroke-miterlimit="1" stroke-width="1" points="1777.91064453125,362.73963928222656 1777.91064453125,489.91369247436523 1919.3489379882812,409.2519989013672" style="fill:#302027;stroke:#302027;"></polygon><polygon stroke-linejoin="round" stroke-miterlimit="1" stroke-width="1" points="1919.3489379882812,227.9351806640625 1777.91064453125,362.73963928222656 1919.3489379882812,409.2519989013672" style="fill:#33252c;stroke:#33252c;"></polygon><polygon stroke-linejoin="round" stroke-miterlimit="1" stroke-width="1" points="1777.91064453125,333.5198059082031 1777.91064453125,362.73963928222656 1919.3489379882812,227.9351806640625" style="fill:#271519;stroke:#271519;"></polygon><polygon stroke-linejoin="round" stroke-miterlimit="1" stroke-width="1" points="1919.3489379882812,102.71572875976562 1777.91064453125,333.5198059082031 1919.3489379882812,227.9351806640625" style="fill:#28171b;stroke:#28171b;"></polygon><polygon stroke-linejoin="round" stroke-miterlimit="1" stroke-width="1" points="1777.91064453125,159.9449462890625 1777.91064453125,333.5198059082031 1919.3489379882812,102.71572875976562" style="fill:#27161a;stroke:#27161a;"></polygon><polygon stroke-linejoin="round" stroke-miterlimit="1" stroke-width="1" points="1919.3489379882812,29.784637451171875 1777.91064453125,159.9449462890625 1919.3489379882812,102.71572875976562" style="fill:#27151a;stroke:#27151a;"></polygon><polygon stroke-linejoin="round" stroke-miterlimit="1" stroke-width="1" points="1777.91064453125,-2.7198486328125 1777.91064453125,159.9449462890625 1919.3489379882812,29.784637451171875" style="fill:#2e1e24;stroke:#2e1e24;"></polygon><polygon stroke-linejoin="round" stroke-miterlimit="1" stroke-width="1" points="1919.3489379882812,-111.04052734375 1777.91064453125,-2.7198486328125 1919.3489379882812,29.784637451171875" style="fill:#3f343f;stroke:#3f343f;"></polygon><polygon stroke-linejoin="round" stroke-miterlimit="1" stroke-width="1" points="1777.91064453125,-79.7420654296875 1777.91064453125,-2.7198486328125 1919.3489379882812,-111.04052734375" style="fill:#443946;stroke:#443946;"></polygon><polygon stroke-linejoin="round" stroke-miterlimit="1" stroke-width="1" points="1777.91064453125,1107.7439575195312 1636.4723510742188,1149.0912475585938 1777.91064453125,1135.1539306640625" style="fill:#271519;stroke:#271519;"></polygon><polygon stroke-linejoin="round" stroke-miterlimit="1" stroke-width="1" points="1636.4723510742188,1031.4452819824219 1636.4723510742188,1149.0912475585938 1777.91064453125,1107.7439575195312" style="fill:#443946;stroke:#443946;"></polygon><polygon stroke-linejoin="round" stroke-miterlimit="1" stroke-width="1" points="1777.91064453125,877.88232421875 1636.4723510742188,1031.4452819824219 1777.91064453125,1107.7439575195312" style="fill:#453b48;stroke:#453b48;"></polygon><polygon stroke-linejoin="round" stroke-miterlimit="1" stroke-width="1" points="1636.4723510742188,980.2855224609375 1636.4723510742188,1031.4452819824219 1777.91064453125,877.88232421875" style="fill:#2b1a1f;stroke:#2b1a1f;"></polygon><polygon stroke-linejoin="round" stroke-miterlimit="1" stroke-width="1" points="1777.91064453125,836.0853576660156 1636.4723510742188,980.2855224609375 1777.91064453125,877.88232421875" style="fill:#443a46;stroke:#443a46;"></polygon><polygon stroke-linejoin="round" stroke-miterlimit="1" stroke-width="1" points="1636.4723510742188,763.7732238769531 1636.4723510742188,980.2855224609375 1777.91064453125,836.0853576660156" style="fill:#403540;stroke:#403540;"></polygon><polygon stroke-linejoin="round" stroke-miterlimit="1" stroke-width="1" points="1777.91064453125,697.2313537597656 1636.4723510742188,763.7732238769531 1777.91064453125,836.0853576660156" style="fill:#413642;stroke:#413642;"></polygon><polygon stroke-linejoin="round" stroke-miterlimit="1" stroke-width="1" points="1636.4723510742188,658.0115509033203 1636.4723510742188,763.7732238769531 1777.91064453125,697.2313537597656" style="fill:#2c1c22;stroke:#2c1c22;"></polygon><polygon stroke-linejoin="round" stroke-miterlimit="1" stroke-width="1" points="1777.91064453125,489.91369247436523 1636.4723510742188,658.0115509033203 1777.91064453125,697.2313537597656" style="fill:#2c1c22;stroke:#2c1c22;"></polygon><polygon stroke-linejoin="round" stroke-miterlimit="1" stroke-width="1" points="1636.4723510742188,507.4597396850586 1636.4723510742188,658.0115509033203 1777.91064453125,489.91369247436523" style="fill:#483e4c;stroke:#483e4c;"></polygon><polygon stroke-linejoin="round" stroke-miterlimit="1" stroke-width="1" points="1777.91064453125,362.73963928222656 1636.4723510742188,507.4597396850586 1777.91064453125,489.91369247436523" style="fill:#473e4b;stroke:#473e4b;"></polygon><polygon stroke-linejoin="round" stroke-miterlimit="1" stroke-width="1" points="1636.4723510742188,364.6819610595703 1636.4723510742188,507.4597396850586 1777.91064453125,362.73963928222656" style="fill:#362831;stroke:#362831;"></polygon><polygon stroke-linejoin="round" stroke-miterlimit="1" stroke-width="1" points="1777.91064453125,333.5198059082031 1636.4723510742188,364.6819610595703 1777.91064453125,362.73963928222656" style="fill:#362831;stroke:#362831;"></polygon><polygon stroke-linejoin="round" stroke-miterlimit="1" stroke-width="1" points="1636.4723510742188,321.48497009277344 1636.4723510742188,364.6819610595703 1777.91064453125,333.5198059082031" style="fill:#403440;stroke:#403440;"></polygon><polygon stroke-linejoin="round" stroke-miterlimit="1" stroke-width="1" points="1777.91064453125,159.9449462890625 1636.4723510742188,321.48497009277344 1777.91064453125,333.5198059082031" style="fill:#3d313c;stroke:#3d313c;"></polygon><polygon stroke-linejoin="round" stroke-miterlimit="1" stroke-width="1" points="1636.4723510742188,101.38619995117188 1636.4723510742188,321.48497009277344 1777.91064453125,159.9449462890625" style="fill:#3e323d;stroke:#3e323d;"></polygon><polygon stroke-linejoin="round" stroke-miterlimit="1" stroke-width="1" points="1777.91064453125,-2.7198486328125 1636.4723510742188,101.38619995117188 1777.91064453125,159.9449462890625" style="fill:#32232a;stroke:#32232a;"></polygon><polygon stroke-linejoin="round" stroke-miterlimit="1" stroke-width="1" points="1636.4723510742188,2.31182861328125 1636.4723510742188,101.38619995117188 1777.91064453125,-2.7198486328125" style="fill:#2f1f25;stroke:#2f1f25;"></polygon><polygon stroke-linejoin="round" stroke-miterlimit="1" stroke-width="1" points="1777.91064453125,-79.7420654296875 1636.4723510742188,2.31182861328125 1777.91064453125,-2.7198486328125" style="fill:#29181d;stroke:#29181d;"></polygon><polygon stroke-linejoin="round" stroke-miterlimit="1" stroke-width="1" points="1636.4723510742188,-83.85821533203125 1636.4723510742188,2.31182861328125 1777.91064453125,-79.7420654296875" style="fill:#28171b;stroke:#28171b;"></polygon><polygon stroke-linejoin="round" stroke-miterlimit="1" stroke-width="1" points="1636.4723510742188,1031.4452819824219 1495.0340576171875,1237.1156616210938 1636.4723510742188,1149.0912475585938" style="fill:#392b35;stroke:#392b35;"></polygon><polygon stroke-linejoin="round" stroke-miterlimit="1" stroke-width="1" points="1495.0340576171875,1005.6193237304688 1495.0340576171875,1237.1156616210938 1636.4723510742188,1031.4452819824219" style="fill:#2b1a1f;stroke:#2b1a1f;"></polygon><polygon stroke-linejoin="round" stroke-miterlimit="1" stroke-width="1" points="1636.4723510742188,980.2855224609375 1495.0340576171875,1005.6193237304688 1636.4723510742188,1031.4452819824219" style="fill:#271519;stroke:#271519;"></polygon><polygon stroke-linejoin="round" stroke-miterlimit="1" stroke-width="1" points="1495.0340576171875,879.8056945800781 1495.0340576171875,1005.6193237304688 1636.4723510742188,980.2855224609375" style="fill:#372932;stroke:#372932;"></polygon><polygon stroke-linejoin="round" stroke-miterlimit="1" stroke-width="1" points="1636.4723510742188,763.7732238769531 1495.0340576171875,879.8056945800781 1636.4723510742188,980.2855224609375" style="fill:#372932;stroke:#372932;"></polygon><polygon stroke-linejoin="round" stroke-miterlimit="1" stroke-width="1" points="1495.0340576171875,842.6352233886719 1495.0340576171875,879.8056945800781 1636.4723510742188,763.7732238769531" style="fill:#2b1b20;stroke:#2b1b20;"></polygon><polygon stroke-linejoin="round" stroke-miterlimit="1" stroke-width="1" points="1636.4723510742188,658.0115509033203 1495.0340576171875,842.6352233886719 1636.4723510742188,763.7732238769531" style="fill:#2d1d23;stroke:#2d1d23;"></polygon><polygon stroke-linejoin="round" stroke-miterlimit="1" stroke-width="1" points="1495.0340576171875,652.3018798828125 1495.0340576171875,842.6352233886719 1636.4723510742188,658.0115509033203" style="fill:#473e4c;stroke:#473e4c;"></polygon><polygon stroke-linejoin="round" stroke-miterlimit="1" stroke-width="1" points="1636.4723510742188,507.4597396850586 1495.0340576171875,652.3018798828125 1636.4723510742188,658.0115509033203" style="fill:#49404e;stroke:#49404e;"></polygon><polygon stroke-linejoin="round" stroke-miterlimit="1" stroke-width="1" points="1495.0340576171875,563.8280620574951 1495.0340576171875,652.3018798828125 1636.4723510742188,507.4597396850586" style="fill:#514a5b;stroke:#514a5b;"></polygon><polygon stroke-linejoin="round" stroke-miterlimit="1" stroke-width="1" points="1636.4723510742188,364.6819610595703 1495.0340576171875,563.8280620574951 1636.4723510742188,507.4597396850586" style="fill:#453b48;stroke:#453b48;"></polygon><polygon stroke-linejoin="round" stroke-miterlimit="1" stroke-width="1" points="1495.0340576171875,381.29742431640625 1495.0340576171875,563.8280620574951 1636.4723510742188,364.6819610595703" style="fill:#433844;stroke:#433844;"></polygon><polygon stroke-linejoin="round" stroke-miterlimit="1" stroke-width="1" points="1636.4723510742188,321.48497009277344 1495.0340576171875,381.29742431640625 1636.4723510742188,364.6819610595703" style="fill:#413641;stroke:#413641;"></polygon><polygon stroke-linejoin="round" stroke-miterlimit="1" stroke-width="1" points="1495.0340576171875,320.44873046875 1495.0340576171875,381.29742431640625 1636.4723510742188,321.48497009277344" style="fill:#4b4352;stroke:#4b4352;"></polygon><polygon stroke-linejoin="round" stroke-miterlimit="1" stroke-width="1" points="1636.4723510742188,101.38619995117188 1495.0340576171875,320.44873046875 1636.4723510742188,321.48497009277344" style="fill:#4c4453;stroke:#4c4453;"></polygon><polygon stroke-linejoin="round" stroke-miterlimit="1" stroke-width="1" points="1495.0340576171875,173.73260498046875 1495.0340576171875,320.44873046875 1636.4723510742188,101.38619995117188" style="fill:#534c5d;stroke:#534c5d;"></polygon><polygon stroke-linejoin="round" stroke-miterlimit="1" stroke-width="1" points="1636.4723510742188,2.31182861328125 1495.0340576171875,173.73260498046875 1636.4723510742188,101.38619995117188" style="fill:#4d4554;stroke:#4d4554;"></polygon><polygon stroke-linejoin="round" stroke-miterlimit="1" stroke-width="1" points="1495.0340576171875,70.87823486328125 1495.0340576171875,173.73260498046875 1636.4723510742188,2.31182861328125" style="fill:#4b4251;stroke:#4b4251;"></polygon><polygon stroke-linejoin="round" stroke-miterlimit="1" stroke-width="1" points="1636.4723510742188,-83.85821533203125 1495.0340576171875,70.87823486328125 1636.4723510742188,2.31182861328125" style="fill:#403440;stroke:#403440;"></polygon><polygon stroke-linejoin="round" stroke-miterlimit="1" stroke-width="1" points="1495.0340576171875,-135.02850341796875 1495.0340576171875,70.87823486328125 1636.4723510742188,-83.85821533203125" style="fill:#3c303a;stroke:#3c303a;"></polygon><polygon stroke-linejoin="round" stroke-miterlimit="1" stroke-width="1" points="1495.0340576171875,1005.6193237304688 1353.5957336425781,1200.1190795898438 1495.0340576171875,1237.1156616210938" style="fill:#29171c;stroke:#29171c;"></polygon><polygon stroke-linejoin="round" stroke-miterlimit="1" stroke-width="1" points="1353.5957336425781,1072.5084228515625 1353.5957336425781,1200.1190795898438 1495.0340576171875,1005.6193237304688" style="fill:#453a47;stroke:#453a47;"></polygon><polygon stroke-linejoin="round" stroke-miterlimit="1" stroke-width="1" points="1495.0340576171875,879.8056945800781 1353.5957336425781,1072.5084228515625 1495.0340576171875,1005.6193237304688" style="fill:#3f343f;stroke:#3f343f;"></polygon><polygon stroke-linejoin="round" stroke-miterlimit="1" stroke-width="1" points="1353.5957336425781,952.7283935546875 1353.5957336425781,1072.5084228515625 1495.0340576171875,879.8056945800781" style="fill:#34262d;stroke:#34262d;"></polygon><polygon stroke-linejoin="round" stroke-miterlimit="1" stroke-width="1" points="1495.0340576171875,842.6352233886719 1353.5957336425781,952.7283935546875 1495.0340576171875,879.8056945800781" style="fill:#2e1f25;stroke:#2e1f25;"></polygon><polygon stroke-linejoin="round" stroke-miterlimit="1" stroke-width="1" points="1353.5957336425781,849.4151916503906 1353.5957336425781,952.7283935546875 1495.0340576171875,842.6352233886719" style="fill:#3f343f;stroke:#3f343f;"></polygon><polygon stroke-linejoin="round" stroke-miterlimit="1" stroke-width="1" points="1495.0340576171875,652.3018798828125 1353.5957336425781,849.4151916503906 1495.0340576171875,842.6352233886719" style="fill:#443a47;stroke:#443a47;"></polygon><polygon stroke-linejoin="round" stroke-miterlimit="1" stroke-width="1" points="1353.5957336425781,662.0883712768555 1353.5957336425781,849.4151916503906 1495.0340576171875,652.3018798828125" style="fill:#4f4858;stroke:#4f4858;"></polygon><polygon stroke-linejoin="round" stroke-miterlimit="1" stroke-width="1" points="1495.0340576171875,563.8280620574951 1353.5957336425781,662.0883712768555 1495.0340576171875,652.3018798828125" style="fill:#524c5d;stroke:#524c5d;"></polygon><polygon stroke-linejoin="round" stroke-miterlimit="1" stroke-width="1" points="1353.5957336425781,488.6330108642578 1353.5957336425781,662.0883712768555 1495.0340576171875,563.8280620574951" style="fill:#443a47;stroke:#443a47;"></polygon><polygon stroke-linejoin="round" stroke-miterlimit="1" stroke-width="1" points="1495.0340576171875,381.29742431640625 1353.5957336425781,488.6330108642578 1495.0340576171875,563.8280620574951" style="fill:#443946;stroke:#443946;"></polygon><polygon stroke-linejoin="round" stroke-miterlimit="1" stroke-width="1" points="1353.5957336425781,459.61168670654297 1353.5957336425781,488.6330108642578 1495.0340576171875,381.29742431640625" style="fill:#7e83a0;stroke:#7e83a0;"></polygon><polygon stroke-linejoin="round" stroke-miterlimit="1" stroke-width="1" points="1495.0340576171875,320.44873046875 1353.5957336425781,459.61168670654297 1495.0340576171875,381.29742431640625" style="fill:#68687f;stroke:#68687f;"></polygon><polygon stroke-linejoin="round" stroke-miterlimit="1" stroke-width="1" points="1353.5957336425781,286.08424377441406 1353.5957336425781,459.61168670654297 1495.0340576171875,320.44873046875" style="fill:#585366;stroke:#585366;"></polygon><polygon stroke-linejoin="round" stroke-miterlimit="1" stroke-width="1" points="1495.0340576171875,173.73260498046875 1353.5957336425781,286.08424377441406 1495.0340576171875,320.44873046875" style="fill:#4f4757;stroke:#4f4757;"></polygon><polygon stroke-linejoin="round" stroke-miterlimit="1" stroke-width="1" points="1353.5957336425781,143.56439208984375 1353.5957336425781,286.08424377441406 1495.0340576171875,173.73260498046875" style="fill:#4f4858;stroke:#4f4858;"></polygon><polygon stroke-linejoin="round" stroke-miterlimit="1" stroke-width="1" points="1495.0340576171875,70.87823486328125 1353.5957336425781,143.56439208984375 1495.0340576171875,173.73260498046875" style="fill:#514b5b;stroke:#514b5b;"></polygon><polygon stroke-linejoin="round" stroke-miterlimit="1" stroke-width="1" points="1353.5957336425781,-16.87445068359375 1353.5957336425781,143.56439208984375 1495.0340576171875,70.87823486328125" style="fill:#524c5c;stroke:#524c5c;"></polygon><polygon stroke-linejoin="round" stroke-miterlimit="1" stroke-width="1" points="1495.0340576171875,-135.02850341796875 1353.5957336425781,-16.87445068359375 1495.0340576171875,70.87823486328125" style="fill:#32242b;stroke:#32242b;"></polygon><polygon stroke-linejoin="round" stroke-miterlimit="1" stroke-width="1" points="1353.5957336425781,-74.07080078125 1353.5957336425781,-16.87445068359375 1495.0340576171875,-135.02850341796875" style="fill:#28161a;stroke:#28161a;"></polygon><polygon stroke-linejoin="round" stroke-miterlimit="1" stroke-width="1" points="1353.5957336425781,1072.5084228515625 1212.157455444336,1185.9049682617188 1353.5957336425781,1200.1190795898438" style="fill:#493f4d;stroke:#493f4d;"></polygon><polygon stroke-linejoin="round" stroke-miterlimit="1" stroke-width="1" points="1212.157455444336,1088.3931884765625 1212.157455444336,1185.9049682617188 1353.5957336425781,1072.5084228515625" style="fill:#2a191e;stroke:#2a191e;"></polygon><polygon stroke-linejoin="round" stroke-miterlimit="1" stroke-width="1" points="1353.5957336425781,952.7283935546875 1212.157455444336,1088.3931884765625 1353.5957336425781,1072.5084228515625" style="fill:#362931;stroke:#362931;"></polygon><polygon stroke-linejoin="round" stroke-miterlimit="1" stroke-width="1" points="1212.157455444336,960.631103515625 1212.157455444336,1088.3931884765625 1353.5957336425781,952.7283935546875" style="fill:#534d5e;stroke:#534d5e;"></polygon><polygon stroke-linejoin="round" stroke-miterlimit="1" stroke-width="1" points="1353.5957336425781,849.4151916503906 1212.157455444336,960.631103515625 1353.5957336425781,952.7283935546875" style="fill:#4a414f;stroke:#4a414f;"></polygon><polygon stroke-linejoin="round" stroke-miterlimit="1" stroke-width="1" points="1212.157455444336,788.6784057617188 1212.157455444336,960.631103515625 1353.5957336425781,849.4151916503906" style="fill:#403541;stroke:#403541;"></polygon><polygon stroke-linejoin="round" stroke-miterlimit="1" stroke-width="1" points="1353.5957336425781,662.0883712768555 1212.157455444336,788.6784057617188 1353.5957336425781,849.4151916503906" style="fill:#504959;stroke:#504959;"></polygon><polygon stroke-linejoin="round" stroke-miterlimit="1" stroke-width="1" points="1212.157455444336,617.4805755615234 1212.157455444336,788.6784057617188 1353.5957336425781,662.0883712768555" style="fill:#5a5669;stroke:#5a5669;"></polygon><polygon stroke-linejoin="round" stroke-miterlimit="1" stroke-width="1" points="1353.5957336425781,488.6330108642578 1212.157455444336,617.4805755615234 1353.5957336425781,662.0883712768555" style="fill:#585366;stroke:#585366;"></polygon><polygon stroke-linejoin="round" stroke-miterlimit="1" stroke-width="1" points="1212.157455444336,533.4485383033752 1212.157455444336,617.4805755615234 1353.5957336425781,488.6330108642578" style="fill:#66657b;stroke:#66657b;"></polygon><polygon stroke-linejoin="round" stroke-miterlimit="1" stroke-width="1" points="1353.5957336425781,459.61168670654297 1212.157455444336,533.4485383033752 1353.5957336425781,488.6330108642578" style="fill:#8389a8;stroke:#8389a8;"></polygon><polygon stroke-linejoin="round" stroke-miterlimit="1" stroke-width="1" points="1212.157455444336,361.7194519042969 1212.157455444336,533.4485383033752 1353.5957336425781,459.61168670654297" style="fill:#5a5568;stroke:#5a5568;"></polygon><polygon stroke-linejoin="round" stroke-miterlimit="1" stroke-width="1" points="1353.5957336425781,286.08424377441406 1212.157455444336,361.7194519042969 1353.5957336425781,459.61168670654297" style="fill:#4b4352;stroke:#4b4352;"></polygon><polygon stroke-linejoin="round" stroke-miterlimit="1" stroke-width="1" points="1212.157455444336,331.9101867675781 1212.157455444336,361.7194519042969 1353.5957336425781,286.08424377441406" style="fill:#524b5c;stroke:#524b5c;"></polygon><polygon stroke-linejoin="round" stroke-miterlimit="1" stroke-width="1" points="1353.5957336425781,143.56439208984375 1212.157455444336,331.9101867675781 1353.5957336425781,286.08424377441406" style="fill:#49404e;stroke:#49404e;"></polygon><polygon stroke-linejoin="round" stroke-miterlimit="1" stroke-width="1" points="1212.157455444336,186.94573974609375 1212.157455444336,331.9101867675781 1353.5957336425781,143.56439208984375" style="fill:#534d5e;stroke:#534d5e;"></polygon><polygon stroke-linejoin="round" stroke-miterlimit="1" stroke-width="1" points="1353.5957336425781,-16.87445068359375 1212.157455444336,186.94573974609375 1353.5957336425781,143.56439208984375" style="fill:#554f60;stroke:#554f60;"></polygon><polygon stroke-linejoin="round" stroke-miterlimit="1" stroke-width="1" points="1212.157455444336,65.98614501953125 1212.157455444336,186.94573974609375 1353.5957336425781,-16.87445068359375" style="fill:#565062;stroke:#565062;"></polygon><polygon stroke-linejoin="round" stroke-miterlimit="1" stroke-width="1" points="1353.5957336425781,-74.07080078125 1212.157455444336,65.98614501953125 1353.5957336425781,-16.87445068359375" style="fill:#2f1f25;stroke:#2f1f25;"></polygon><polygon stroke-linejoin="round" stroke-miterlimit="1" stroke-width="1" points="1212.157455444336,-108.02984619140625 1212.157455444336,65.98614501953125 1353.5957336425781,-74.07080078125" style="fill:#3c303a;stroke:#3c303a;"></polygon><polygon stroke-linejoin="round" stroke-miterlimit="1" stroke-width="1" points="1212.157455444336,1088.3931884765625 1070.7191467285156,1230.4553833007812 1212.157455444336,1185.9049682617188" style="fill:#29171c;stroke:#29171c;"></polygon><polygon stroke-linejoin="round" stroke-miterlimit="1" stroke-width="1" points="1070.7191467285156,1109.8187255859375 1070.7191467285156,1230.4553833007812 1212.157455444336,1088.3931884765625" style="fill:#2f2026;stroke:#2f2026;"></polygon><polygon stroke-linejoin="round" stroke-miterlimit="1" stroke-width="1" points="1212.157455444336,960.631103515625 1070.7191467285156,1109.8187255859375 1212.157455444336,1088.3931884765625" style="fill:#4d4555;stroke:#4d4555;"></polygon><polygon stroke-linejoin="round" stroke-miterlimit="1" stroke-width="1" points="1070.7191467285156,981.5171203613281 1070.7191467285156,1109.8187255859375 1212.157455444336,960.631103515625" style="fill:#392c36;stroke:#392c36;"></polygon><polygon stroke-linejoin="round" stroke-miterlimit="1" stroke-width="1" points="1212.157455444336,788.6784057617188 1070.7191467285156,981.5171203613281 1212.157455444336,960.631103515625" style="fill:#362831;stroke:#362831;"></polygon><polygon stroke-linejoin="round" stroke-miterlimit="1" stroke-width="1" points="1070.7191467285156,750.06689453125 1070.7191467285156,981.5171203613281 1212.157455444336,788.6784057617188" style="fill:#453c49;stroke:#453c49;"></polygon><polygon stroke-linejoin="round" stroke-miterlimit="1" stroke-width="1" points="1212.157455444336,617.4805755615234 1070.7191467285156,750.06689453125 1212.157455444336,788.6784057617188" style="fill:#575264;stroke:#575264;"></polygon><polygon stroke-linejoin="round" stroke-miterlimit="1" stroke-width="1" points="1070.7191467285156,624.8215942382812 1070.7191467285156,750.06689453125 1212.157455444336,617.4805755615234" style="fill:#625f75;stroke:#625f75;"></polygon><polygon stroke-linejoin="round" stroke-miterlimit="1" stroke-width="1" points="1212.157455444336,533.4485383033752 1070.7191467285156,624.8215942382812 1212.157455444336,617.4805755615234" style="fill:#605d72;stroke:#605d72;"></polygon><polygon stroke-linejoin="round" stroke-miterlimit="1" stroke-width="1" points="1070.7191467285156,575.673397064209 1070.7191467285156,624.8215942382812 1212.157455444336,533.4485383033752" style="fill:#848aaa;stroke:#848aaa;"></polygon><polygon stroke-linejoin="round" stroke-miterlimit="1" stroke-width="1" points="1212.157455444336,361.7194519042969 1070.7191467285156,575.673397064209 1212.157455444336,533.4485383033752" style="fill:#72748e;stroke:#72748e;"></polygon><polygon stroke-linejoin="round" stroke-miterlimit="1" stroke-width="1" points="1070.7191467285156,363.9673614501953 1070.7191467285156,575.673397064209 1212.157455444336,361.7194519042969" style="fill:#9ba7cd;stroke:#9ba7cd;"></polygon><polygon stroke-linejoin="round" stroke-miterlimit="1" stroke-width="1" points="1212.157455444336,331.9101867675781 1070.7191467285156,363.9673614501953 1212.157455444336,361.7194519042969" style="fill:#8187a6;stroke:#8187a6;"></polygon><polygon stroke-linejoin="round" stroke-miterlimit="1" stroke-width="1" points="1070.7191467285156,246.43685913085938 1070.7191467285156,363.9673614501953 1212.157455444336,331.9101867675781" style="fill:#868dad;stroke:#868dad;"></polygon><polygon stroke-linejoin="round" stroke-miterlimit="1" stroke-width="1" points="1212.157455444336,186.94573974609375 1070.7191467285156,246.43685913085938 1212.157455444336,331.9101867675781" style="fill:#67667d;stroke:#67667d;"></polygon><polygon stroke-linejoin="round" stroke-miterlimit="1" stroke-width="1" points="1070.7191467285156,133.82794189453125 1070.7191467285156,246.43685913085938 1212.157455444336,186.94573974609375" style="fill:#68677e;stroke:#68677e;"></polygon><polygon stroke-linejoin="round" stroke-miterlimit="1" stroke-width="1" points="1212.157455444336,65.98614501953125 1070.7191467285156,133.82794189453125 1212.157455444336,186.94573974609375" style="fill:#6a6981;stroke:#6a6981;"></polygon><polygon stroke-linejoin="round" stroke-miterlimit="1" stroke-width="1" points="1070.7191467285156,-15.971435546875 1070.7191467285156,133.82794189453125 1212.157455444336,65.98614501953125" style="fill:#646278;stroke:#646278;"></polygon><polygon stroke-linejoin="round" stroke-miterlimit="1" stroke-width="1" points="1212.157455444336,-108.02984619140625 1070.7191467285156,-15.971435546875 1212.157455444336,65.98614501953125" style="fill:#3e323d;stroke:#3e323d;"></polygon><polygon stroke-linejoin="round" stroke-miterlimit="1" stroke-width="1" points="1070.7191467285156,-151.6031494140625 1070.7191467285156,-15.971435546875 1212.157455444336,-108.02984619140625" style="fill:#31222a;stroke:#31222a;"></polygon><polygon stroke-linejoin="round" stroke-miterlimit="1" stroke-width="1" points="1070.7191467285156,1109.8187255859375 929.2808532714844,1144.7064819335938 1070.7191467285156,1230.4553833007812" style="fill:#2f1f26;stroke:#2f1f26;"></polygon><polygon stroke-linejoin="round" stroke-miterlimit="1" stroke-width="1" points="929.2808532714844,1007.2655029296875 929.2808532714844,1144.7064819335938 1070.7191467285156,1109.8187255859375" style="fill:#483f4c;stroke:#483f4c;"></polygon><polygon stroke-linejoin="round" stroke-miterlimit="1" stroke-width="1" points="1070.7191467285156,981.5171203613281 929.2808532714844,1007.2655029296875 1070.7191467285156,1109.8187255859375" style="fill:#3b2e38;stroke:#3b2e38;"></polygon><polygon stroke-linejoin="round" stroke-miterlimit="1" stroke-width="1" points="929.2808532714844,970.1847839355469 929.2808532714844,1007.2655029296875 1070.7191467285156,981.5171203613281" style="fill:#2d1d23;stroke:#2d1d23;"></polygon><polygon stroke-linejoin="round" stroke-miterlimit="1" stroke-width="1" points="1070.7191467285156,750.06689453125 929.2808532714844,970.1847839355469 1070.7191467285156,981.5171203613281" style="fill:#433945;stroke:#433945;"></polygon><polygon stroke-linejoin="round" stroke-miterlimit="1" stroke-width="1" points="929.2808532714844,748.7068023681641 929.2808532714844,970.1847839355469 1070.7191467285156,750.06689453125" style="fill:#453b48;stroke:#453b48;"></polygon><polygon stroke-linejoin="round" stroke-miterlimit="1" stroke-width="1" points="1070.7191467285156,624.8215942382812 929.2808532714844,748.7068023681641 1070.7191467285156,750.06689453125" style="fill:#5e5b6f;stroke:#5e5b6f;"></polygon><polygon stroke-linejoin="round" stroke-miterlimit="1" stroke-width="1" points="929.2808532714844,660.4395141601562 929.2808532714844,748.7068023681641 1070.7191467285156,624.8215942382812" style="fill:#5a5669;stroke:#5a5669;"></polygon><polygon stroke-linejoin="round" stroke-miterlimit="1" stroke-width="1" points="1070.7191467285156,575.673397064209 929.2808532714844,660.4395141601562 1070.7191467285156,624.8215942382812" style="fill:#7c809e;stroke:#7c809e;"></polygon><polygon stroke-linejoin="round" stroke-miterlimit="1" stroke-width="1" points="929.2808532714844,487.4454345703125 929.2808532714844,660.4395141601562 1070.7191467285156,575.673397064209" style="fill:#757893;stroke:#757893;"></polygon><polygon stroke-linejoin="round" stroke-miterlimit="1" stroke-width="1" points="1070.7191467285156,363.9673614501953 929.2808532714844,487.4454345703125 1070.7191467285156,575.673397064209" style="fill:#9daad1;stroke:#9daad1;"></polygon><polygon stroke-linejoin="round" stroke-miterlimit="1" stroke-width="1" points="929.2808532714844,390.1099395751953 929.2808532714844,487.4454345703125 1070.7191467285156,363.9673614501953" style="fill:#9eabd2;stroke:#9eabd2;"></polygon><polygon stroke-linejoin="round" stroke-miterlimit="1" stroke-width="1" points="1070.7191467285156,246.43685913085938 929.2808532714844,390.1099395751953 1070.7191467285156,363.9673614501953" style="fill:#99a4ca;stroke:#99a4ca;"></polygon><polygon stroke-linejoin="round" stroke-miterlimit="1" stroke-width="1" points="929.2808532714844,261.49041748046875 929.2808532714844,390.1099395751953 1070.7191467285156,246.43685913085938" style="fill:#8b92b4;stroke:#8b92b4;"></polygon><polygon stroke-linejoin="round" stroke-miterlimit="1" stroke-width="1" points="1070.7191467285156,133.82794189453125 929.2808532714844,261.49041748046875 1070.7191467285156,246.43685913085938" style="fill:#71738d;stroke:#71738d;"></polygon><polygon stroke-linejoin="round" stroke-miterlimit="1" stroke-width="1" points="929.2808532714844,100.18478393554688 929.2808532714844,261.49041748046875 1070.7191467285156,133.82794189453125" style="fill:#68677f;stroke:#68677f;"></polygon><polygon stroke-linejoin="round" stroke-miterlimit="1" stroke-width="1" points="1070.7191467285156,-15.971435546875 929.2808532714844,100.18478393554688 1070.7191467285156,133.82794189453125" style="fill:#67657c;stroke:#67657c;"></polygon><polygon stroke-linejoin="round" stroke-miterlimit="1" stroke-width="1" points="929.2808532714844,74.13796997070312 929.2808532714844,100.18478393554688 1070.7191467285156,-15.971435546875" style="fill:#9099bc;stroke:#9099bc;"></polygon><polygon stroke-linejoin="round" stroke-miterlimit="1" stroke-width="1" points="1070.7191467285156,-151.6031494140625 929.2808532714844,74.13796997070312 1070.7191467285156,-15.971435546875" style="fill:#34262e;stroke:#34262e;"></polygon><polygon stroke-linejoin="round" stroke-miterlimit="1" stroke-width="1" points="929.2808532714844,-147.95220947265625 929.2808532714844,74.13796997070312 1070.7191467285156,-151.6031494140625" style="fill:#483f4d;stroke:#483f4d;"></polygon><polygon stroke-linejoin="round" stroke-miterlimit="1" stroke-width="1" points="929.2808532714844,1007.2655029296875 787.8425445556641,1240.8319702148438 929.2808532714844,1144.7064819335938" style="fill:#423844;stroke:#423844;"></polygon><polygon stroke-linejoin="round" stroke-miterlimit="1" stroke-width="1" points="787.8425445556641,1009.3245239257812 787.8425445556641,1240.8319702148438 929.2808532714844,1007.2655029296875" style="fill:#382b34;stroke:#382b34;"></polygon><polygon stroke-linejoin="round" stroke-miterlimit="1" stroke-width="1" points="929.2808532714844,970.1847839355469 787.8425445556641,1009.3245239257812 929.2808532714844,1007.2655029296875" style="fill:#302128;stroke:#302128;"></polygon><polygon stroke-linejoin="round" stroke-miterlimit="1" stroke-width="1" points="787.8425445556641,896.3587341308594 787.8425445556641,1009.3245239257812 929.2808532714844,970.1847839355469" style="fill:#534c5d;stroke:#534c5d;"></polygon><polygon stroke-linejoin="round" stroke-miterlimit="1" stroke-width="1" points="929.2808532714844,748.7068023681641 787.8425445556641,896.3587341308594 929.2808532714844,970.1847839355469" style="fill:#3f333e;stroke:#3f333e;"></polygon><polygon stroke-linejoin="round" stroke-miterlimit="1" stroke-width="1" points="787.8425445556641,850.8190307617188 787.8425445556641,896.3587341308594 929.2808532714844,748.7068023681641" style="fill:#2d1d23;stroke:#2d1d23;"></polygon><polygon stroke-linejoin="round" stroke-miterlimit="1" stroke-width="1" points="929.2808532714844,660.4395141601562 787.8425445556641,850.8190307617188 929.2808532714844,748.7068023681641" style="fill:#4c4352;stroke:#4c4352;"></polygon><polygon stroke-linejoin="round" stroke-miterlimit="1" stroke-width="1" points="787.8425445556641,720.9144592285156 787.8425445556641,850.8190307617188 929.2808532714844,660.4395141601562" style="fill:#4f4757;stroke:#4f4757;"></polygon><polygon stroke-linejoin="round" stroke-miterlimit="1" stroke-width="1" points="929.2808532714844,487.4454345703125 787.8425445556641,720.9144592285156 929.2808532714844,660.4395141601562" style="fill:#544e5f;stroke:#544e5f;"></polygon><polygon stroke-linejoin="round" stroke-miterlimit="1" stroke-width="1" points="787.8425445556641,487.14620208740234 787.8425445556641,720.9144592285156 929.2808532714844,487.4454345703125" style="fill:#595467;stroke:#595467;"></polygon><polygon stroke-linejoin="round" stroke-miterlimit="1" stroke-width="1" points="929.2808532714844,390.1099395751953 787.8425445556641,487.14620208740234 929.2808532714844,487.4454345703125" style="fill:#7c809e;stroke:#7c809e;"></polygon><polygon stroke-linejoin="round" stroke-miterlimit="1" stroke-width="1" points="787.8425445556641,414.9468994140625 787.8425445556641,487.14620208740234 929.2808532714844,390.1099395751953" style="fill:#6e6f88;stroke:#6e6f88;"></polygon><polygon stroke-linejoin="round" stroke-miterlimit="1" stroke-width="1" points="929.2808532714844,261.49041748046875 787.8425445556641,414.9468994140625 929.2808532714844,390.1099395751953" style="fill:#7f84a2;stroke:#7f84a2;"></polygon><polygon stroke-linejoin="round" stroke-miterlimit="1" stroke-width="1" points="787.8425445556641,331.8225555419922 787.8425445556641,414.9468994140625 929.2808532714844,261.49041748046875" style="fill:#8990b1;stroke:#8990b1;"></polygon><polygon stroke-linejoin="round" stroke-miterlimit="1" stroke-width="1" points="929.2808532714844,100.18478393554688 787.8425445556641,331.8225555419922 929.2808532714844,261.49041748046875" style="fill:#73758f;stroke:#73758f;"></polygon><polygon stroke-linejoin="round" stroke-miterlimit="1" stroke-width="1" points="787.8425445556641,195.96762084960938 787.8425445556641,331.8225555419922 929.2808532714844,100.18478393554688" style="fill:#5d596d;stroke:#5d596d;"></polygon><polygon stroke-linejoin="round" stroke-miterlimit="1" stroke-width="1" points="929.2808532714844,74.13796997070312 787.8425445556641,195.96762084960938 929.2808532714844,100.18478393554688" style="fill:#9ba7ce;stroke:#9ba7ce;"></polygon><polygon stroke-linejoin="round" stroke-miterlimit="1" stroke-width="1" points="787.8425445556641,62.797149658203125 787.8425445556641,195.96762084960938 929.2808532714844,74.13796997070312" style="fill:#534c5d;stroke:#534c5d;"></polygon><polygon stroke-linejoin="round" stroke-miterlimit="1" stroke-width="1" points="929.2808532714844,-147.95220947265625 787.8425445556641,62.797149658203125 929.2808532714844,74.13796997070312" style="fill:#483e4c;stroke:#483e4c;"></polygon><polygon stroke-linejoin="round" stroke-miterlimit="1" stroke-width="1" points="787.8425445556641,-57.45599365234375 787.8425445556641,62.797149658203125 929.2808532714844,-147.95220947265625" style="fill:#382b34;stroke:#382b34;"></polygon><polygon stroke-linejoin="round" stroke-miterlimit="1" stroke-width="1" points="787.8425445556641,1009.3245239257812 646.4042663574219,1166.5614013671875 787.8425445556641,1240.8319702148438" style="fill:#35272f;stroke:#35272f;"></polygon><polygon stroke-linejoin="round" stroke-miterlimit="1" stroke-width="1" points="646.4042663574219,1009.9636840820312 646.4042663574219,1166.5614013671875 787.8425445556641,1009.3245239257812" style="fill:#3b2e38;stroke:#3b2e38;"></polygon><polygon stroke-linejoin="round" stroke-miterlimit="1" stroke-width="1" points="787.8425445556641,896.3587341308594 646.4042663574219,1009.9636840820312 787.8425445556641,1009.3245239257812" style="fill:#4d4554;stroke:#4d4554;"></polygon><polygon stroke-linejoin="round" stroke-miterlimit="1" stroke-width="1" points="646.4042663574219,943.4239501953125 646.4042663574219,1009.9636840820312 787.8425445556641,896.3587341308594" style="fill:#514a5a;stroke:#514a5a;"></polygon><polygon stroke-linejoin="round" stroke-miterlimit="1" stroke-width="1" points="787.8425445556641,850.8190307617188 646.4042663574219,943.4239501953125 787.8425445556641,896.3587341308594" style="fill:#271519;stroke:#271519;"></polygon><polygon stroke-linejoin="round" stroke-miterlimit="1" stroke-width="1" points="646.4042663574219,812.0436706542969 646.4042663574219,943.4239501953125 787.8425445556641,850.8190307617188" style="fill:#3a2e38;stroke:#3a2e38;"></polygon><polygon stroke-linejoin="round" stroke-miterlimit="1" stroke-width="1" points="787.8425445556641,720.9144592285156 646.4042663574219,812.0436706542969 787.8425445556641,850.8190307617188" style="fill:#4d4555;stroke:#4d4555;"></polygon><polygon stroke-linejoin="round" stroke-miterlimit="1" stroke-width="1" points="646.4042663574219,646.4265441894531 646.4042663574219,812.0436706542969 787.8425445556641,720.9144592285156" style="fill:#453b48;stroke:#453b48;"></polygon><polygon stroke-linejoin="round" stroke-miterlimit="1" stroke-width="1" points="787.8425445556641,487.14620208740234 646.4042663574219,646.4265441894531 787.8425445556641,720.9144592285156" style="fill:#514a5b;stroke:#514a5b;"></polygon><polygon stroke-linejoin="round" stroke-miterlimit="1" stroke-width="1" points="646.4042663574219,592.8242835998535 646.4042663574219,646.4265441894531 787.8425445556641,487.14620208740234" style="fill:#453b48;stroke:#453b48;"></polygon><polygon stroke-linejoin="round" stroke-miterlimit="1" stroke-width="1" points="787.8425445556641,414.9468994140625 646.4042663574219,592.8242835998535 787.8425445556641,487.14620208740234" style="fill:#453b48;stroke:#453b48;"></polygon><polygon stroke-linejoin="round" stroke-miterlimit="1" stroke-width="1" points="646.4042663574219,459.88904571533203 646.4042663574219,592.8242835998535 787.8425445556641,414.9468994140625" style="fill:#504858;stroke:#504858;"></polygon><polygon stroke-linejoin="round" stroke-miterlimit="1" stroke-width="1" points="787.8425445556641,331.8225555419922 646.4042663574219,459.88904571533203 787.8425445556641,414.9468994140625" style="fill:#5e5b6f;stroke:#5e5b6f;"></polygon><polygon stroke-linejoin="round" stroke-miterlimit="1" stroke-width="1" points="646.4042663574219,230.69647216796875 646.4042663574219,459.88904571533203 787.8425445556641,331.8225555419922" style="fill:#453b48;stroke:#453b48;"></polygon><polygon stroke-linejoin="round" stroke-miterlimit="1" stroke-width="1" points="787.8425445556641,195.96762084960938 646.4042663574219,230.69647216796875 787.8425445556641,331.8225555419922" style="fill:#49404e;stroke:#49404e;"></polygon><polygon stroke-linejoin="round" stroke-miterlimit="1" stroke-width="1" points="646.4042663574219,112.3929443359375 646.4042663574219,230.69647216796875 787.8425445556641,195.96762084960938" style="fill:#423743;stroke:#423743;"></polygon><polygon stroke-linejoin="round" stroke-miterlimit="1" stroke-width="1" points="787.8425445556641,62.797149658203125 646.4042663574219,112.3929443359375 787.8425445556641,195.96762084960938" style="fill:#443946;stroke:#443946;"></polygon><polygon stroke-linejoin="round" stroke-miterlimit="1" stroke-width="1" points="646.4042663574219,65.25003051757812 646.4042663574219,112.3929443359375 787.8425445556641,62.797149658203125" style="fill:#696880;stroke:#696880;"></polygon><polygon stroke-linejoin="round" stroke-miterlimit="1" stroke-width="1" points="787.8425445556641,-57.45599365234375 646.4042663574219,65.25003051757812 787.8425445556641,62.797149658203125" style="fill:#3f333f;stroke:#3f333f;"></polygon><polygon stroke-linejoin="round" stroke-miterlimit="1" stroke-width="1" points="646.4042663574219,-55.1884765625 646.4042663574219,65.25003051757812 787.8425445556641,-57.45599365234375" style="fill:#463d4a;stroke:#463d4a;"></polygon><polygon stroke-linejoin="round" stroke-miterlimit="1" stroke-width="1" points="646.4042663574219,1009.9636840820312 504.9659423828125,1214.8480224609375 646.4042663574219,1166.5614013671875" style="fill:#392c35;stroke:#392c35;"></polygon><polygon stroke-linejoin="round" stroke-miterlimit="1" stroke-width="1" points="504.9659423828125,1043.7977600097656 504.9659423828125,1214.8480224609375 646.4042663574219,1009.9636840820312" style="fill:#392c35;stroke:#392c35;"></polygon><polygon stroke-linejoin="round" stroke-miterlimit="1" stroke-width="1" points="646.4042663574219,943.4239501953125 504.9659423828125,1043.7977600097656 646.4042663574219,1009.9636840820312" style="fill:#4e4655;stroke:#4e4655;"></polygon><polygon stroke-linejoin="round" stroke-miterlimit="1" stroke-width="1" points="504.9659423828125,893.4154052734375 504.9659423828125,1043.7977600097656 646.4042663574219,943.4239501953125" style="fill:#443946;stroke:#443946;"></polygon><polygon stroke-linejoin="round" stroke-miterlimit="1" stroke-width="1" points="646.4042663574219,812.0436706542969 504.9659423828125,893.4154052734375 646.4042663574219,943.4239501953125" style="fill:#4c4453;stroke:#4c4453;"></polygon><polygon stroke-linejoin="round" stroke-miterlimit="1" stroke-width="1" points="504.9659423828125,762.8196258544922 504.9659423828125,893.4154052734375 646.4042663574219,812.0436706542969" style="fill:#50495a;stroke:#50495a;"></polygon><polygon stroke-linejoin="round" stroke-miterlimit="1" stroke-width="1" points="646.4042663574219,646.4265441894531 504.9659423828125,762.8196258544922 646.4042663574219,812.0436706542969" style="fill:#3a2d37;stroke:#3a2d37;"></polygon><polygon stroke-linejoin="round" stroke-miterlimit="1" stroke-width="1" points="504.9659423828125,621.8390655517578 504.9659423828125,762.8196258544922 646.4042663574219,646.4265441894531" style="fill:#3b2e38;stroke:#3b2e38;"></polygon><polygon stroke-linejoin="round" stroke-miterlimit="1" stroke-width="1" points="646.4042663574219,592.8242835998535 504.9659423828125,621.8390655517578 646.4042663574219,646.4265441894531" style="fill:#4e4756;stroke:#4e4756;"></polygon><polygon stroke-linejoin="round" stroke-miterlimit="1" stroke-width="1" points="504.9659423828125,534.1183052062988 504.9659423828125,621.8390655517578 646.4042663574219,592.8242835998535" style="fill:#4a4150;stroke:#4a4150;"></polygon><polygon stroke-linejoin="round" stroke-miterlimit="1" stroke-width="1" points="646.4042663574219,459.88904571533203 504.9659423828125,534.1183052062988 646.4042663574219,592.8242835998535" style="fill:#575264;stroke:#575264;"></polygon><polygon stroke-linejoin="round" stroke-miterlimit="1" stroke-width="1" points="504.9659423828125,430.90612030029297 504.9659423828125,534.1183052062988 646.4042663574219,459.88904571533203" style="fill:#4f4858;stroke:#4f4858;"></polygon><polygon stroke-linejoin="round" stroke-miterlimit="1" stroke-width="1" points="646.4042663574219,230.69647216796875 504.9659423828125,430.90612030029297 646.4042663574219,459.88904571533203" style="fill:#4c4352;stroke:#4c4352;"></polygon><polygon stroke-linejoin="round" stroke-miterlimit="1" stroke-width="1" points="504.9659423828125,249.77310180664062 504.9659423828125,430.90612030029297 646.4042663574219,230.69647216796875" style="fill:#585366;stroke:#585366;"></polygon><polygon stroke-linejoin="round" stroke-miterlimit="1" stroke-width="1" points="646.4042663574219,112.3929443359375 504.9659423828125,249.77310180664062 646.4042663574219,230.69647216796875" style="fill:#504959;stroke:#504959;"></polygon><polygon stroke-linejoin="round" stroke-miterlimit="1" stroke-width="1" points="504.9659423828125,119.1871337890625 504.9659423828125,249.77310180664062 646.4042663574219,112.3929443359375" style="fill:#3c303a;stroke:#3c303a;"></polygon><polygon stroke-linejoin="round" stroke-miterlimit="1" stroke-width="1" points="646.4042663574219,65.25003051757812 504.9659423828125,119.1871337890625 646.4042663574219,112.3929443359375" style="fill:#636177;stroke:#636177;"></polygon><polygon stroke-linejoin="round" stroke-miterlimit="1" stroke-width="1" points="504.9659423828125,-8.6119384765625 504.9659423828125,119.1871337890625 646.4042663574219,65.25003051757812" style="fill:#3a2d37;stroke:#3a2d37;"></polygon><polygon stroke-linejoin="round" stroke-miterlimit="1" stroke-width="1" points="646.4042663574219,-55.1884765625 504.9659423828125,-8.6119384765625 646.4042663574219,65.25003051757812" style="fill:#382b34;stroke:#382b34;"></polygon><polygon stroke-linejoin="round" stroke-miterlimit="1" stroke-width="1" points="504.9659423828125,-148.4886474609375 504.9659423828125,-8.6119384765625 646.4042663574219,-55.1884765625" style="fill:#2f1f26;stroke:#2f1f26;"></polygon><polygon stroke-linejoin="round" stroke-miterlimit="1" stroke-width="1" points="504.9659423828125,1043.7977600097656 363.52764892578125,1238.9472045898438 504.9659423828125,1214.8480224609375" style="fill:#2f2026;stroke:#2f2026;"></polygon><polygon stroke-linejoin="round" stroke-miterlimit="1" stroke-width="1" points="363.52764892578125,1012.2534790039062 363.52764892578125,1238.9472045898438 504.9659423828125,1043.7977600097656" style="fill:#302027;stroke:#302027;"></polygon><polygon stroke-linejoin="round" stroke-miterlimit="1" stroke-width="1" points="504.9659423828125,893.4154052734375 363.52764892578125,1012.2534790039062 504.9659423828125,1043.7977600097656" style="fill:#32242b;stroke:#32242b;"></polygon><polygon stroke-linejoin="round" stroke-miterlimit="1" stroke-width="1" points="363.52764892578125,889.3745727539062 363.52764892578125,1012.2534790039062 504.9659423828125,893.4154052734375" style="fill:#32232a;stroke:#32232a;"></polygon><polygon stroke-linejoin="round" stroke-miterlimit="1" stroke-width="1" points="504.9659423828125,762.8196258544922 363.52764892578125,889.3745727539062 504.9659423828125,893.4154052734375" style="fill:#483f4c;stroke:#483f4c;"></polygon><polygon stroke-linejoin="round" stroke-miterlimit="1" stroke-width="1" points="363.52764892578125,817.8537902832031 363.52764892578125,889.3745727539062 504.9659423828125,762.8196258544922" style="fill:#49414f;stroke:#49414f;"></polygon><polygon stroke-linejoin="round" stroke-miterlimit="1" stroke-width="1" points="504.9659423828125,621.8390655517578 363.52764892578125,817.8537902832031 504.9659423828125,762.8196258544922" style="fill:#4a414f;stroke:#4a414f;"></polygon><polygon stroke-linejoin="round" stroke-miterlimit="1" stroke-width="1" points="363.52764892578125,623.0440826416016 363.52764892578125,817.8537902832031 504.9659423828125,621.8390655517578" style="fill:#33252c;stroke:#33252c;"></polygon><polygon stroke-linejoin="round" stroke-miterlimit="1" stroke-width="1" points="504.9659423828125,534.1183052062988 363.52764892578125,623.0440826416016 504.9659423828125,621.8390655517578" style="fill:#302127;stroke:#302127;"></polygon><polygon stroke-linejoin="round" stroke-miterlimit="1" stroke-width="1" points="363.52764892578125,490.07475662231445 363.52764892578125,623.0440826416016 504.9659423828125,534.1183052062988" style="fill:#34262e;stroke:#34262e;"></polygon><polygon stroke-linejoin="round" stroke-miterlimit="1" stroke-width="1" points="504.9659423828125,430.90612030029297 363.52764892578125,490.07475662231445 504.9659423828125,534.1183052062988" style="fill:#49414f;stroke:#49414f;"></polygon><polygon stroke-linejoin="round" stroke-miterlimit="1" stroke-width="1" points="363.52764892578125,454.51377868652344 363.52764892578125,490.07475662231445 504.9659423828125,430.90612030029297" style="fill:#483f4d;stroke:#483f4d;"></polygon><polygon stroke-linejoin="round" stroke-miterlimit="1" stroke-width="1" points="504.9659423828125,249.77310180664062 363.52764892578125,454.51377868652344 504.9659423828125,430.90612030029297" style="fill:#4f4858;stroke:#4f4858;"></polygon><polygon stroke-linejoin="round" stroke-miterlimit="1" stroke-width="1" points="363.52764892578125,271.7198486328125 363.52764892578125,454.51377868652344 504.9659423828125,249.77310180664062" style="fill:#382b34;stroke:#382b34;"></polygon><polygon stroke-linejoin="round" stroke-miterlimit="1" stroke-width="1" points="504.9659423828125,119.1871337890625 363.52764892578125,271.7198486328125 504.9659423828125,249.77310180664062" style="fill:#312229;stroke:#312229;"></polygon><polygon stroke-linejoin="round" stroke-miterlimit="1" stroke-width="1" points="363.52764892578125,198.25936889648438 363.52764892578125,271.7198486328125 504.9659423828125,119.1871337890625" style="fill:#4e4756;stroke:#4e4756;"></polygon><polygon stroke-linejoin="round" stroke-miterlimit="1" stroke-width="1" points="504.9659423828125,-8.6119384765625 363.52764892578125,198.25936889648438 504.9659423828125,119.1871337890625" style="fill:#514a5a;stroke:#514a5a;"></polygon><polygon stroke-linejoin="round" stroke-miterlimit="1" stroke-width="1" points="363.52764892578125,70.52474975585938 363.52764892578125,198.25936889648438 504.9659423828125,-8.6119384765625" style="fill:#423844;stroke:#423844;"></polygon><polygon stroke-linejoin="round" stroke-miterlimit="1" stroke-width="1" points="504.9659423828125,-148.4886474609375 363.52764892578125,70.52474975585938 504.9659423828125,-8.6119384765625" style="fill:#392c35;stroke:#392c35;"></polygon><polygon stroke-linejoin="round" stroke-miterlimit="1" stroke-width="1" points="363.52764892578125,-60.04241943359375 363.52764892578125,70.52474975585938 504.9659423828125,-148.4886474609375" style="fill:#2b1a1f;stroke:#2b1a1f;"></polygon><polygon stroke-linejoin="round" stroke-miterlimit="1" stroke-width="1" points="363.52764892578125,1012.2534790039062 222.08935546875,1164.6757202148438 363.52764892578125,1238.9472045898438" style="fill:#33252c;stroke:#33252c;"></polygon><polygon stroke-linejoin="round" stroke-miterlimit="1" stroke-width="1" points="222.08935546875,1062.9891967773438 222.08935546875,1164.6757202148438 363.52764892578125,1012.2534790039062" style="fill:#35272f;stroke:#35272f;"></polygon><polygon stroke-linejoin="round" stroke-miterlimit="1" stroke-width="1" points="363.52764892578125,889.3745727539062 222.08935546875,1062.9891967773438 363.52764892578125,1012.2534790039062" style="fill:#3a2d37;stroke:#3a2d37;"></polygon><polygon stroke-linejoin="round" stroke-miterlimit="1" stroke-width="1" points="222.08935546875,913.034423828125 222.08935546875,1062.9891967773438 363.52764892578125,889.3745727539062" style="fill:#2f1f26;stroke:#2f1f26;"></polygon><polygon stroke-linejoin="round" stroke-miterlimit="1" stroke-width="1" points="363.52764892578125,817.8537902832031 222.08935546875,913.034423828125 363.52764892578125,889.3745727539062" style="fill:#29181c;stroke:#29181c;"></polygon><polygon stroke-linejoin="round" stroke-miterlimit="1" stroke-width="1" points="222.08935546875,747.6826477050781 222.08935546875,913.034423828125 363.52764892578125,817.8537902832031" style="fill:#29181c;stroke:#29181c;"></polygon><polygon stroke-linejoin="round" stroke-miterlimit="1" stroke-width="1" points="363.52764892578125,623.0440826416016 222.08935546875,747.6826477050781 363.52764892578125,817.8537902832031" style="fill:#362831;stroke:#362831;"></polygon><polygon stroke-linejoin="round" stroke-miterlimit="1" stroke-width="1" points="222.08935546875,715.5559387207031 222.08935546875,747.6826477050781 363.52764892578125,623.0440826416016" style="fill:#3c2f39;stroke:#3c2f39;"></polygon><polygon stroke-linejoin="round" stroke-miterlimit="1" stroke-width="1" points="363.52764892578125,490.07475662231445 222.08935546875,715.5559387207031 363.52764892578125,623.0440826416016" style="fill:#423743;stroke:#423743;"></polygon><polygon stroke-linejoin="round" stroke-miterlimit="1" stroke-width="1" points="222.08935546875,537.7899789810181 222.08935546875,715.5559387207031 363.52764892578125,490.07475662231445" style="fill:#33242b;stroke:#33242b;"></polygon><polygon stroke-linejoin="round" stroke-miterlimit="1" stroke-width="1" points="363.52764892578125,454.51377868652344 222.08935546875,537.7899789810181 363.52764892578125,490.07475662231445" style="fill:#2e1e25;stroke:#2e1e25;"></polygon><polygon stroke-linejoin="round" stroke-miterlimit="1" stroke-width="1" points="222.08935546875,382.7655487060547 222.08935546875,537.7899789810181 363.52764892578125,454.51377868652344" style="fill:#3b2f39;stroke:#3b2f39;"></polygon><polygon stroke-linejoin="round" stroke-miterlimit="1" stroke-width="1" points="363.52764892578125,271.7198486328125 222.08935546875,382.7655487060547 363.52764892578125,454.51377868652344" style="fill:#3f343f;stroke:#3f343f;"></polygon><polygon stroke-linejoin="round" stroke-miterlimit="1" stroke-width="1" points="222.08935546875,227.98214721679688 222.08935546875,382.7655487060547 363.52764892578125,271.7198486328125" style="fill:#3a2d37;stroke:#3a2d37;"></polygon><polygon stroke-linejoin="round" stroke-miterlimit="1" stroke-width="1" points="363.52764892578125,198.25936889648438 222.08935546875,227.98214721679688 363.52764892578125,271.7198486328125" style="fill:#3a2d37;stroke:#3a2d37;"></polygon><polygon stroke-linejoin="round" stroke-miterlimit="1" stroke-width="1" points="222.08935546875,172.739501953125 222.08935546875,227.98214721679688 363.52764892578125,198.25936889648438" style="fill:#3d313b;stroke:#3d313b;"></polygon><polygon stroke-linejoin="round" stroke-miterlimit="1" stroke-width="1" points="363.52764892578125,70.52474975585938 222.08935546875,172.739501953125 363.52764892578125,198.25936889648438" style="fill:#3c303a;stroke:#3c303a;"></polygon><polygon stroke-linejoin="round" stroke-miterlimit="1" stroke-width="1" points="222.08935546875,62.9547119140625 222.08935546875,172.739501953125 363.52764892578125,70.52474975585938" style="fill:#271519;stroke:#271519;"></polygon><polygon stroke-linejoin="round" stroke-miterlimit="1" stroke-width="1" points="363.52764892578125,-60.04241943359375 222.08935546875,62.9547119140625 363.52764892578125,70.52474975585938" style="fill:#28161a;stroke:#28161a;"></polygon><polygon stroke-linejoin="round" stroke-miterlimit="1" stroke-width="1" points="222.08935546875,-58.3406982421875 222.08935546875,62.9547119140625 363.52764892578125,-60.04241943359375" style="fill:#453b48;stroke:#453b48;"></polygon><polygon stroke-linejoin="round" stroke-miterlimit="1" stroke-width="1" points="222.08935546875,1062.9891967773438 80.65106201171875,1136.0430297851562 222.08935546875,1164.6757202148438" style="fill:#271519;stroke:#271519;"></polygon><polygon stroke-linejoin="round" stroke-miterlimit="1" stroke-width="1" points="80.65106201171875,1033.6761474609375 80.65106201171875,1136.0430297851562 222.08935546875,1062.9891967773438" style="fill:#2a191e;stroke:#2a191e;"></polygon><polygon stroke-linejoin="round" stroke-miterlimit="1" stroke-width="1" points="222.08935546875,913.034423828125 80.65106201171875,1033.6761474609375 222.08935546875,1062.9891967773438" style="fill:#3b2e38;stroke:#3b2e38;"></polygon><polygon stroke-linejoin="round" stroke-miterlimit="1" stroke-width="1" points="80.65106201171875,911.1142578125 80.65106201171875,1033.6761474609375 222.08935546875,913.034423828125" style="fill:#3d313c;stroke:#3d313c;"></polygon><polygon stroke-linejoin="round" stroke-miterlimit="1" stroke-width="1" points="222.08935546875,747.6826477050781 80.65106201171875,911.1142578125 222.08935546875,913.034423828125" style="fill:#3d313c;stroke:#3d313c;"></polygon><polygon stroke-linejoin="round" stroke-miterlimit="1" stroke-width="1" points="80.65106201171875,827.7234191894531 80.65106201171875,911.1142578125 222.08935546875,747.6826477050781" style="fill:#3d313c;stroke:#3d313c;"></polygon><polygon stroke-linejoin="round" stroke-miterlimit="1" stroke-width="1" points="222.08935546875,715.5559387207031 80.65106201171875,827.7234191894531 222.08935546875,747.6826477050781" style="fill:#3f333e;stroke:#3f333e;"></polygon><polygon stroke-linejoin="round" stroke-miterlimit="1" stroke-width="1" points="80.65106201171875,669.7942810058594 80.65106201171875,827.7234191894531 222.08935546875,715.5559387207031" style="fill:#3f333e;stroke:#3f333e;"></polygon><polygon stroke-linejoin="round" stroke-miterlimit="1" stroke-width="1" points="222.08935546875,537.7899789810181 80.65106201171875,669.7942810058594 222.08935546875,715.5559387207031" style="fill:#403440;stroke:#403440;"></polygon><polygon stroke-linejoin="round" stroke-miterlimit="1" stroke-width="1" points="80.65106201171875,553.3009738922119 80.65106201171875,669.7942810058594 222.08935546875,537.7899789810181" style="fill:#443946;stroke:#443946;"></polygon><polygon stroke-linejoin="round" stroke-miterlimit="1" stroke-width="1" points="222.08935546875,382.7655487060547 80.65106201171875,553.3009738922119 222.08935546875,537.7899789810181" style="fill:#463c49;stroke:#463c49;"></polygon><polygon stroke-linejoin="round" stroke-miterlimit="1" stroke-width="1" points="80.65106201171875,463.1488494873047 80.65106201171875,553.3009738922119 222.08935546875,382.7655487060547" style="fill:#3a2e37;stroke:#3a2e37;"></polygon><polygon stroke-linejoin="round" stroke-miterlimit="1" stroke-width="1" points="222.08935546875,227.98214721679688 80.65106201171875,463.1488494873047 222.08935546875,382.7655487060547" style="fill:#3c2f39;stroke:#3c2f39;"></polygon><polygon stroke-linejoin="round" stroke-miterlimit="1" stroke-width="1" points="80.65106201171875,322.91197204589844 80.65106201171875,463.1488494873047 222.08935546875,227.98214721679688" style="fill:#2f2027;stroke:#2f2027;"></polygon><polygon stroke-linejoin="round" stroke-miterlimit="1" stroke-width="1" points="222.08935546875,172.739501953125 80.65106201171875,322.91197204589844 222.08935546875,227.98214721679688" style="fill:#433845;stroke:#433845;"></polygon><polygon stroke-linejoin="round" stroke-miterlimit="1" stroke-width="1" points="80.65106201171875,172.01223754882812 80.65106201171875,322.91197204589844 222.08935546875,172.739501953125" style="fill:#2d1d23;stroke:#2d1d23;"></polygon><polygon stroke-linejoin="round" stroke-miterlimit="1" stroke-width="1" points="222.08935546875,62.9547119140625 80.65106201171875,172.01223754882812 222.08935546875,172.739501953125" style="fill:#29181c;stroke:#29181c;"></polygon><polygon stroke-linejoin="round" stroke-miterlimit="1" stroke-width="1" points="80.65106201171875,-3.385986328125 80.65106201171875,172.01223754882812 222.08935546875,62.9547119140625" style="fill:#453c49;stroke:#453c49;"></polygon><polygon stroke-linejoin="round" stroke-miterlimit="1" stroke-width="1" points="222.08935546875,-58.3406982421875 80.65106201171875,-3.385986328125 222.08935546875,62.9547119140625" style="fill:#463c49;stroke:#463c49;"></polygon><polygon stroke-linejoin="round" stroke-miterlimit="1" stroke-width="1" points="80.65106201171875,-65.057861328125 80.65106201171875,-3.385986328125 222.08935546875,-58.3406982421875" style="fill:#302027;stroke:#302027;"></polygon><polygon stroke-linejoin="round" stroke-miterlimit="1" stroke-width="1" points="80.65106201171875,1033.6761474609375 -60.7872314453125,1153.6995849609375 80.65106201171875,1136.0430297851562" style="fill:#392c35;stroke:#392c35;"></polygon><polygon stroke-linejoin="round" stroke-miterlimit="1" stroke-width="1" points="-60.7872314453125,1078.9509887695312 -60.7872314453125,1153.6995849609375 80.65106201171875,1033.6761474609375" style="fill:#392c35;stroke:#392c35;"></polygon><polygon stroke-linejoin="round" stroke-miterlimit="1" stroke-width="1" points="80.65106201171875,911.1142578125 -60.7872314453125,1078.9509887695312 80.65106201171875,1033.6761474609375" style="fill:#3d313c;stroke:#3d313c;"></polygon><polygon stroke-linejoin="round" stroke-miterlimit="1" stroke-width="1" points="-60.7872314453125,934.4778442382812 -60.7872314453125,1078.9509887695312 80.65106201171875,911.1142578125" style="fill:#34262e;stroke:#34262e;"></polygon><polygon stroke-linejoin="round" stroke-miterlimit="1" stroke-width="1" points="80.65106201171875,827.7234191894531 -60.7872314453125,934.4778442382812 80.65106201171875,911.1142578125" style="fill:#2f1f26;stroke:#2f1f26;"></polygon><polygon stroke-linejoin="round" stroke-miterlimit="1" stroke-width="1" points="-60.7872314453125,834.9830932617188 -60.7872314453125,934.4778442382812 80.65106201171875,827.7234191894531" style="fill:#2f1f25;stroke:#2f1f25;"></polygon><polygon stroke-linejoin="round" stroke-miterlimit="1" stroke-width="1" points="80.65106201171875,669.7942810058594 -60.7872314453125,834.9830932617188 80.65106201171875,827.7234191894531" style="fill:#2f1f26;stroke:#2f1f26;"></polygon><polygon stroke-linejoin="round" stroke-miterlimit="1" stroke-width="1" points="-60.7872314453125,711.7736511230469 -60.7872314453125,834.9830932617188 80.65106201171875,669.7942810058594" style="fill:#2c1c22;stroke:#2c1c22;"></polygon><polygon stroke-linejoin="round" stroke-miterlimit="1" stroke-width="1" points="80.65106201171875,553.3009738922119 -60.7872314453125,711.7736511230469 80.65106201171875,669.7942810058594" style="fill:#2d1d23;stroke:#2d1d23;"></polygon><polygon stroke-linejoin="round" stroke-miterlimit="1" stroke-width="1" points="-60.7872314453125,588.8920707702637 -60.7872314453125,711.7736511230469 80.65106201171875,553.3009738922119" style="fill:#32242b;stroke:#32242b;"></polygon><polygon stroke-linejoin="round" stroke-miterlimit="1" stroke-width="1" points="80.65106201171875,463.1488494873047 -60.7872314453125,588.8920707702637 80.65106201171875,553.3009738922119" style="fill:#312229;stroke:#312229;"></polygon><polygon stroke-linejoin="round" stroke-miterlimit="1" stroke-width="1" points="-60.7872314453125,438.70699310302734 -60.7872314453125,588.8920707702637 80.65106201171875,463.1488494873047" style="fill:#2e1e24;stroke:#2e1e24;"></polygon><polygon stroke-linejoin="round" stroke-miterlimit="1" stroke-width="1" points="80.65106201171875,322.91197204589844 -60.7872314453125,438.70699310302734 80.65106201171875,463.1488494873047" style="fill:#2f1f26;stroke:#2f1f26;"></polygon><polygon stroke-linejoin="round" stroke-miterlimit="1" stroke-width="1" points="-60.7872314453125,239.34658813476562 -60.7872314453125,438.70699310302734 80.65106201171875,322.91197204589844" style="fill:#3c303a;stroke:#3c303a;"></polygon><polygon stroke-linejoin="round" stroke-miterlimit="1" stroke-width="1" points="80.65106201171875,172.01223754882812 -60.7872314453125,239.34658813476562 80.65106201171875,322.91197204589844" style="fill:#413642;stroke:#413642;"></polygon><polygon stroke-linejoin="round" stroke-miterlimit="1" stroke-width="1" points="-60.7872314453125,136.2322998046875 -60.7872314453125,239.34658813476562 80.65106201171875,172.01223754882812" style="fill:#413642;stroke:#413642;"></polygon><polygon stroke-linejoin="round" stroke-miterlimit="1" stroke-width="1" points="80.65106201171875,-3.385986328125 -60.7872314453125,136.2322998046875 80.65106201171875,172.01223754882812" style="fill:#423743;stroke:#423743;"></polygon><polygon stroke-linejoin="round" stroke-miterlimit="1" stroke-width="1" points="-60.7872314453125,73.37762451171875 -60.7872314453125,136.2322998046875 80.65106201171875,-3.385986328125" style="fill:#32232a;stroke:#32232a;"></polygon><polygon stroke-linejoin="round" stroke-miterlimit="1" stroke-width="1" points="80.65106201171875,-65.057861328125 -60.7872314453125,73.37762451171875 80.65106201171875,-3.385986328125" style="fill:#271519;stroke:#271519;"></polygon><polygon stroke-linejoin="round" stroke-miterlimit="1" stroke-width="1" points="-60.7872314453125,-67.9586181640625 -60.7872314453125,73.37762451171875 80.65106201171875,-65.057861328125" style="fill:#29171c;stroke:#29171c;"></polygon></svg>