
      <svg xmlns="http://www.w3.org/2000/svg" version="1.1" width="2000" height="1080" style="display: block;"><polygon stroke-linejoin="round" stroke-miterlimit="1" stroke-width="1" points="2063.619384765625,1098.8240356445312 1913.2413940429688,1213.6144409179688 2063.8585205078125,1186.38720703125" style="fill:#32242b;stroke:#32242b;"></polygon><polygon stroke-linejoin="round" stroke-miterlimit="1" stroke-width="1" points="1921.3256225585938,1105.945556640625 1913.2413940429688,1213.6144409179688 2063.619384765625,1098.8240356445312" style="fill:#34252d;stroke:#34252d;"></polygon><polygon stroke-linejoin="round" stroke-miterlimit="1" stroke-width="1" points="2054.57861328125,972.3953247070312 1921.3256225585938,1105.945556640625 2063.619384765625,1098.8240356445312" style="fill:#312229;stroke:#312229;"></polygon><polygon stroke-linejoin="round" stroke-miterlimit="1" stroke-width="1" points="1918.0642700195312,877.1414184570312 1921.3256225585938,1105.945556640625 2054.57861328125,972.3953247070312" style="fill:#392b35;stroke:#392b35;"></polygon><polygon stroke-linejoin="round" stroke-miterlimit="1" stroke-width="1" points="2055.241455078125,748.5128173828125 1918.0642700195312,877.1414184570312 2054.57861328125,972.3953247070312" style="fill:#382b34;stroke:#382b34;"></polygon><polygon stroke-linejoin="round" stroke-miterlimit="1" stroke-width="1" points="1920.6510009765625,808.8221130371094 1918.0642700195312,877.1414184570312 2055.241455078125,748.5128173828125" style="fill:#2c1c21;stroke:#2c1c21;"></polygon><polygon stroke-linejoin="round" stroke-miterlimit="1" stroke-width="1" points="2062.6898193359375,678.9879150390625 1920.6510009765625,808.8221130371094 2055.241455078125,748.5128173828125" style="fill:#271519;stroke:#271519;"></polygon><polygon stroke-linejoin="round" stroke-miterlimit="1" stroke-width="1" points="1917.4920654296875,722.1904296875 1920.6510009765625,808.8221130371094 2062.6898193359375,678.9879150390625" style="fill:#2a191e;stroke:#2a191e;"></polygon><polygon stroke-linejoin="round" stroke-miterlimit="1" stroke-width="1" points="2059.2591552734375,530.1531620025635 1917.4920654296875,722.1904296875 2062.6898193359375,678.9879150390625" style="fill:#3b2f39;stroke:#3b2f39;"></polygon><polygon stroke-linejoin="round" stroke-miterlimit="1" stroke-width="1" points="1913.2213745117188,576.7732200622559 1917.4920654296875,722.1904296875 2059.2591552734375,530.1531620025635" style="fill:#32232a;stroke:#32232a;"></polygon><polygon stroke-linejoin="round" stroke-miterlimit="1" stroke-width="1" points="2055.46875,421.2093276977539 1913.2213745117188,576.7732200622559 2059.2591552734375,530.1531620025635" style="fill:#2e1e25;stroke:#2e1e25;"></polygon><polygon stroke-linejoin="round" stroke-miterlimit="1" stroke-width="1" points="1918.0103759765625,429.75870513916016 1913.2213745117188,576.7732200622559 2055.46875,421.2093276977539" style="fill:#2d1d23;stroke:#2d1d23;"></polygon><polygon stroke-linejoin="round" stroke-miterlimit="1" stroke-width="1" points="2056.4781494140625,235.52264404296875 1918.0103759765625,429.75870513916016 2055.46875,421.2093276977539" style="fill:#2d1d22;stroke:#2d1d22;"></polygon><polygon stroke-linejoin="round" stroke-miterlimit="1" stroke-width="1" points="1919.5324096679688,333.36053466796875 1918.0103759765625,429.75870513916016 2056.4781494140625,235.52264404296875" style="fill:#554f61;stroke:#554f61;"></polygon><polygon stroke-linejoin="round" stroke-miterlimit="1" stroke-width="1" points="2066.9359130859375,158.44912719726562 1919.5324096679688,333.36053466796875 2056.4781494140625,235.52264404296875" style="fill:#4a414f;stroke:#4a414f;"></polygon><polygon stroke-linejoin="round" stroke-miterlimit="1" stroke-width="1" points="1916.4243774414062,167.56732177734375 1919.5324096679688,333.36053466796875 2066.9359130859375,158.44912719726562" style="fill:#3c2f3a;stroke:#3c2f3a;"></polygon><polygon stroke-linejoin="round" stroke-miterlimit="1" stroke-width="1" points="2055.9111328125,35.251220703125 1916.4243774414062,167.56732177734375 2066.9359130859375,158.44912719726562" style="fill:#372932;stroke:#372932;"></polygon><polygon stroke-linejoin="round" stroke-miterlimit="1" stroke-width="1" points="1924.920654296875,74.453857421875 1916.4243774414062,167.56732177734375 2055.9111328125,35.251220703125" style="fill:#3a2d37;stroke:#3a2d37;"></polygon><polygon stroke-linejoin="round" stroke-miterlimit="1" stroke-width="1" points="2062.93017578125,-58.0252685546875 1924.920654296875,74.453857421875 2055.9111328125,35.251220703125" style="fill:#3b2e38;stroke:#3b2e38;"></polygon><polygon stroke-linejoin="round" stroke-miterlimit="1" stroke-width="1" points="1913.5851440429688,-128.26763916015625 1924.920654296875,74.453857421875 2062.93017578125,-58.0252685546875" style="fill:#3c303a;stroke:#3c303a;"></polygon><polygon stroke-linejoin="round" stroke-miterlimit="1" stroke-width="1" points="1921.3256225585938,1105.945556640625 1774.1336059570312,1145.8558349609375 1913.2413940429688,1213.6144409179688" style="fill:#382a33;stroke:#382a33;"></polygon><polygon stroke-linejoin="round" stroke-miterlimit="1" stroke-width="1" points="1780.8101806640625,1041.0803833007812 1774.1336059570312,1145.8558349609375 1921.3256225585938,1105.945556640625" style="fill:#2b1a20;stroke:#2b1a20;"></polygon><polygon stroke-linejoin="round" stroke-miterlimit="1" stroke-width="1" points="1918.0642700195312,877.1414184570312 1780.8101806640625,1041.0803833007812 1921.3256225585938,1105.945556640625" style="fill:#2e1e24;stroke:#2e1e24;"></polygon><polygon stroke-linejoin="round" stroke-miterlimit="1" stroke-width="1" points="1772.466796875,950.7868041992188 1780.8101806640625,1041.0803833007812 1918.0642700195312,877.1414184570312" style="fill:#2c1c22;stroke:#2c1c22;"></polygon><polygon stroke-linejoin="round" stroke-miterlimit="1" stroke-width="1" points="1920.6510009765625,808.8221130371094 1772.466796875,950.7868041992188 1918.0642700195312,877.1414184570312" style="fill:#271519;stroke:#271519;"></polygon><polygon stroke-linejoin="round" stroke-miterlimit="1" stroke-width="1" points="1782.4453735351562,747.3335266113281 1772.466796875,950.7868041992188 1920.6510009765625,808.8221130371094" style="fill:#2c1b21;stroke:#2c1b21;"></polygon><polygon stroke-linejoin="round" stroke-miterlimit="1" stroke-width="1" points="1917.4920654296875,722.1904296875 1782.4453735351562,747.3335266113281 1920.6510009765625,808.8221130371094" style="fill:#2d1d23;stroke:#2d1d23;"></polygon><polygon stroke-linejoin="round" stroke-miterlimit="1" stroke-width="1" points="1781.1024780273438,641.5524139404297 1782.4453735351562,747.3335266113281 1917.4920654296875,722.1904296875" style="fill:#362831;stroke:#362831;"></polygon><polygon stroke-linejoin="round" stroke-miterlimit="1" stroke-width="1" points="1913.2213745117188,576.7732200622559 1781.1024780273438,641.5524139404297 1917.4920654296875,722.1904296875" style="fill:#33242b;stroke:#33242b;"></polygon><polygon stroke-linejoin="round" stroke-miterlimit="1" stroke-width="1" points="1771.7462158203125,488.27330780029297 1781.1024780273438,641.5524139404297 1913.2213745117188,576.7732200622559" style="fill:#392c35;stroke:#392c35;"></polygon><polygon stroke-linejoin="round" stroke-miterlimit="1" stroke-width="1" points="1918.0103759765625,429.75870513916016 1771.7462158203125,488.27330780029297 1913.2213745117188,576.7732200622559" style="fill:#413642;stroke:#413642;"></polygon><polygon stroke-linejoin="round" stroke-miterlimit="1" stroke-width="1" points="1773.905517578125,415.6453399658203 1771.7462158203125,488.27330780029297 1918.0103759765625,429.75870513916016" style="fill:#453b48;stroke:#453b48;"></polygon><polygon stroke-linejoin="round" stroke-miterlimit="1" stroke-width="1" points="1919.5324096679688,333.36053466796875 1773.905517578125,415.6453399658203 1918.0103759765625,429.75870513916016" style="fill:#413641;stroke:#413641;"></polygon><polygon stroke-linejoin="round" stroke-miterlimit="1" stroke-width="1" points="1782.7870483398438,308.1008605957031 1773.905517578125,415.6453399658203 1919.5324096679688,333.36053466796875" style="fill:#2b1b20;stroke:#2b1b20;"></polygon><polygon stroke-linejoin="round" stroke-miterlimit="1" stroke-width="1" points="1916.4243774414062,167.56732177734375 1782.7870483398438,308.1008605957031 1919.5324096679688,333.36053466796875" style="fill:#27151a;stroke:#27151a;"></polygon><polygon stroke-linejoin="round" stroke-miterlimit="1" stroke-width="1" points="1784.0614013671875,104.596435546875 1782.7870483398438,308.1008605957031 1916.4243774414062,167.56732177734375" style="fill:#3a2e37;stroke:#3a2e37;"></polygon><polygon stroke-linejoin="round" stroke-miterlimit="1" stroke-width="1" points="1924.920654296875,74.453857421875 1784.0614013671875,104.596435546875 1916.4243774414062,167.56732177734375" style="fill:#3a2d37;stroke:#3a2d37;"></polygon><polygon stroke-linejoin="round" stroke-miterlimit="1" stroke-width="1" points="1781.2435913085938,55.352081298828125 1784.0614013671875,104.596435546875 1924.920654296875,74.453857421875" style="fill:#3e323d;stroke:#3e323d;"></polygon><polygon stroke-linejoin="round" stroke-miterlimit="1" stroke-width="1" points="1913.5851440429688,-128.26763916015625 1781.2435913085938,55.352081298828125 1924.920654296875,74.453857421875" style="fill:#3c303a;stroke:#3c303a;"></polygon><polygon stroke-linejoin="round" stroke-miterlimit="1" stroke-width="1" points="1771.7103271484375,-135.51898193359375 1781.2435913085938,55.352081298828125 1913.5851440429688,-128.26763916015625" style="fill:#3e323d;stroke:#3e323d;"></polygon><polygon stroke-linejoin="round" stroke-miterlimit="1" stroke-width="1" points="1780.8101806640625,1041.0803833007812 1631.4642333984375,1195.3593139648438 1774.1336059570312,1145.8558349609375" style="fill:#271519;stroke:#271519;"></polygon><polygon stroke-linejoin="round" stroke-miterlimit="1" stroke-width="1" points="1632.0467529296875,1067.3236083984375 1631.4642333984375,1195.3593139648438 1780.8101806640625,1041.0803833007812" style="fill:#34252d;stroke:#34252d;"></polygon><polygon stroke-linejoin="round" stroke-miterlimit="1" stroke-width="1" points="1772.466796875,950.7868041992188 1632.0467529296875,1067.3236083984375 1780.8101806640625,1041.0803833007812" style="fill:#362830;stroke:#362830;"></polygon><polygon stroke-linejoin="round" stroke-miterlimit="1" stroke-width="1" points="1642.4917602539062,947.2233276367188 1632.0467529296875,1067.3236083984375 1772.466796875,950.7868041992188" style="fill:#2e1f25;stroke:#2e1f25;"></polygon><polygon stroke-linejoin="round" stroke-miterlimit="1" stroke-width="1" points="1782.4453735351562,747.3335266113281 1642.4917602539062,947.2233276367188 1772.466796875,950.7868041992188" style="fill:#312229;stroke:#312229;"></polygon><polygon stroke-linejoin="round" stroke-miterlimit="1" stroke-width="1" points="1630.9494018554688,797.5681457519531 1642.4917602539062,947.2233276367188 1782.4453735351562,747.3335266113281" style="fill:#473d4b;stroke:#473d4b;"></polygon><polygon stroke-linejoin="round" stroke-miterlimit="1" stroke-width="1" points="1781.1024780273438,641.5524139404297 1630.9494018554688,797.5681457519531 1782.4453735351562,747.3335266113281" style="fill:#3e323d;stroke:#3e323d;"></polygon><polygon stroke-linejoin="round" stroke-miterlimit="1" stroke-width="1" points="1640.1915893554688,619.7271881103516 1630.9494018554688,797.5681457519531 1781.1024780273438,641.5524139404297" style="fill:#453b48;stroke:#453b48;"></polygon><polygon stroke-linejoin="round" stroke-miterlimit="1" stroke-width="1" points="1771.7462158203125,488.27330780029297 1640.1915893554688,619.7271881103516 1781.1024780273438,641.5524139404297" style="fill:#453b48;stroke:#453b48;"></polygon><polygon stroke-linejoin="round" stroke-miterlimit="1" stroke-width="1" points="1630.4927368164062,504.7891159057617 1640.1915893554688,619.7271881103516 1771.7462158203125,488.27330780029297" style="fill:#443a46;stroke:#443a46;"></polygon><polygon stroke-linejoin="round" stroke-miterlimit="1" stroke-width="1" points="1773.905517578125,415.6453399658203 1630.4927368164062,504.7891159057617 1771.7462158203125,488.27330780029297" style="fill:#413642;stroke:#413642;"></polygon><polygon stroke-linejoin="round" stroke-miterlimit="1" stroke-width="1" points="1640.9049072265625,374.0464172363281 1630.4927368164062,504.7891159057617 1773.905517578125,415.6453399658203" style="fill:#34252d;stroke:#34252d;"></polygon><polygon stroke-linejoin="round" stroke-miterlimit="1" stroke-width="1" points="1782.7870483398438,308.1008605957031 1640.9049072265625,374.0464172363281 1773.905517578125,415.6453399658203" style="fill:#35262f;stroke:#35262f;"></polygon><polygon stroke-linejoin="round" stroke-miterlimit="1" stroke-width="1" points="1642.60595703125,276.3950500488281 1640.9049072265625,374.0464172363281 1782.7870483398438,308.1008605957031" style="fill:#413642;stroke:#413642;"></polygon><polygon stroke-linejoin="round" stroke-miterlimit="1" stroke-width="1" points="1784.0614013671875,104.596435546875 1642.60595703125,276.3950500488281 1782.7870483398438,308.1008605957031" style="fill:#3f333e;stroke:#3f333e;"></polygon><polygon stroke-linejoin="round" stroke-miterlimit="1" stroke-width="1" points="1641.4313354492188,107.14385986328125 1642.60595703125,276.3950500488281 1784.0614013671875,104.596435546875" style="fill:#2d1d23;stroke:#2d1d23;"></polygon><polygon stroke-linejoin="round" stroke-miterlimit="1" stroke-width="1" points="1781.2435913085938,55.352081298828125 1641.4313354492188,107.14385986328125 1784.0614013671875,104.596435546875" style="fill:#2c1c22;stroke:#2c1c22;"></polygon><polygon stroke-linejoin="round" stroke-miterlimit="1" stroke-width="1" points="1642.5895385742188,74.3978271484375 1641.4313354492188,107.14385986328125 1781.2435913085938,55.352081298828125" style="fill:#271519;stroke:#271519;"></polygon><polygon stroke-linejoin="round" stroke-miterlimit="1" stroke-width="1" points="1771.7103271484375,-135.51898193359375 1642.5895385742188,74.3978271484375 1781.2435913085938,55.352081298828125" style="fill:#382a34;stroke:#382a34;"></polygon><polygon stroke-linejoin="round" stroke-miterlimit="1" stroke-width="1" points="1637.7818603515625,-105.65533447265625 1642.5895385742188,74.3978271484375 1771.7103271484375,-135.51898193359375" style="fill:#34262e;stroke:#34262e;"></polygon><polygon stroke-linejoin="round" stroke-miterlimit="1" stroke-width="1" points="1632.0467529296875,1067.3236083984375 1492.2416687011719,1184.8087158203125 1631.4642333984375,1195.3593139648438" style="fill:#2c1c21;stroke:#2c1c21;"></polygon><polygon stroke-linejoin="round" stroke-miterlimit="1" stroke-width="1" points="1499.2896118164062,1089.05615234375 1492.2416687011719,1184.8087158203125 1632.0467529296875,1067.3236083984375" style="fill:#3c303a;stroke:#3c303a;"></polygon><polygon stroke-linejoin="round" stroke-miterlimit="1" stroke-width="1" points="1642.4917602539062,947.2233276367188 1499.2896118164062,1089.05615234375 1632.0467529296875,1067.3236083984375" style="fill:#302027;stroke:#302027;"></polygon><polygon stroke-linejoin="round" stroke-miterlimit="1" stroke-width="1" points="1499.63671875,966.0458068847656 1499.2896118164062,1089.05615234375 1642.4917602539062,947.2233276367188" style="fill:#32232a;stroke:#32232a;"></polygon><polygon stroke-linejoin="round" stroke-miterlimit="1" stroke-width="1" points="1630.9494018554688,797.5681457519531 1499.63671875,966.0458068847656 1642.4917602539062,947.2233276367188" style="fill:#3e323d;stroke:#3e323d;"></polygon><polygon stroke-linejoin="round" stroke-miterlimit="1" stroke-width="1" points="1499.2698364257812,777.50537109375 1499.63671875,966.0458068847656 1630.9494018554688,797.5681457519531" style="fill:#302128;stroke:#302128;"></polygon><polygon stroke-linejoin="round" stroke-miterlimit="1" stroke-width="1" points="1640.1915893554688,619.7271881103516 1499.2698364257812,777.50537109375 1630.9494018554688,797.5681457519531" style="fill:#302027;stroke:#302027;"></polygon><polygon stroke-linejoin="round" stroke-miterlimit="1" stroke-width="1" points="1488.8045654296875,711.9080352783203 1499.2698364257812,777.50537109375 1640.1915893554688,619.7271881103516" style="fill:#5d5a6e;stroke:#5d5a6e;"></polygon><polygon stroke-linejoin="round" stroke-miterlimit="1" stroke-width="1" points="1630.4927368164062,504.7891159057617 1488.8045654296875,711.9080352783203 1640.1915893554688,619.7271881103516" style="fill:#4c4352;stroke:#4c4352;"></polygon><polygon stroke-linejoin="round" stroke-miterlimit="1" stroke-width="1" points="1501.1174926757812,564.8420295715332 1488.8045654296875,711.9080352783203 1630.4927368164062,504.7891159057617" style="fill:#33252c;stroke:#33252c;"></polygon><polygon stroke-linejoin="round" stroke-miterlimit="1" stroke-width="1" points="1640.9049072265625,374.0464172363281 1501.1174926757812,564.8420295715332 1630.4927368164062,504.7891159057617" style="fill:#2b1a1f;stroke:#2b1a1f;"></polygon><polygon stroke-linejoin="round" stroke-miterlimit="1" stroke-width="1" points="1499.5750427246094,357.8456573486328 1501.1174926757812,564.8420295715332 1640.9049072265625,374.0464172363281" style="fill:#3e333e;stroke:#3e333e;"></polygon><polygon stroke-linejoin="round" stroke-miterlimit="1" stroke-width="1" points="1642.60595703125,276.3950500488281 1499.5750427246094,357.8456573486328 1640.9049072265625,374.0464172363281" style="fill:#382b34;stroke:#382b34;"></polygon><polygon stroke-linejoin="round" stroke-miterlimit="1" stroke-width="1" points="1499.8185119628906,282.5382385253906 1499.5750427246094,357.8456573486328 1642.60595703125,276.3950500488281" style="fill:#3d313c;stroke:#3d313c;"></polygon><polygon stroke-linejoin="round" stroke-miterlimit="1" stroke-width="1" points="1641.4313354492188,107.14385986328125 1499.8185119628906,282.5382385253906 1642.60595703125,276.3950500488281" style="fill:#423744;stroke:#423744;"></polygon><polygon stroke-linejoin="round" stroke-miterlimit="1" stroke-width="1" points="1489.3581848144531,109.67279052734375 1499.8185119628906,282.5382385253906 1641.4313354492188,107.14385986328125" style="fill:#4a4150;stroke:#4a4150;"></polygon><polygon stroke-linejoin="round" stroke-miterlimit="1" stroke-width="1" points="1642.5895385742188,74.3978271484375 1489.3581848144531,109.67279052734375 1641.4313354492188,107.14385986328125" style="fill:#2f1f26;stroke:#2f1f26;"></polygon><polygon stroke-linejoin="round" stroke-miterlimit="1" stroke-width="1" points="1497.1152648925781,39.260589599609375 1489.3581848144531,109.67279052734375 1642.5895385742188,74.3978271484375" style="fill:#3d313c;stroke:#3d313c;"></polygon><polygon stroke-linejoin="round" stroke-miterlimit="1" stroke-width="1" points="1637.7818603515625,-105.65533447265625 1497.1152648925781,39.260589599609375 1642.5895385742188,74.3978271484375" style="fill:#473e4b;stroke:#473e4b;"></polygon><polygon stroke-linejoin="round" stroke-miterlimit="1" stroke-width="1" points="1497.0178833007812,-60.55108642578125 1497.1152648925781,39.260589599609375 1637.7818603515625,-105.65533447265625" style="fill:#453b48;stroke:#453b48;"></polygon><polygon stroke-linejoin="round" stroke-miterlimit="1" stroke-width="1" points="1499.2896118164062,1089.05615234375 1355.49365234375,1186.5361328125 1492.2416687011719,1184.8087158203125" style="fill:#433844;stroke:#433844;"></polygon><polygon stroke-linejoin="round" stroke-miterlimit="1" stroke-width="1" points="1351.8435363769531,1007.933837890625 1355.49365234375,1186.5361328125 1499.2896118164062,1089.05615234375" style="fill:#35262e;stroke:#35262e;"></polygon><polygon stroke-linejoin="round" stroke-miterlimit="1" stroke-width="1" points="1499.63671875,966.0458068847656 1351.8435363769531,1007.933837890625 1499.2896118164062,1089.05615234375" style="fill:#34262e;stroke:#34262e;"></polygon><polygon stroke-linejoin="round" stroke-miterlimit="1" stroke-width="1" points="1356.824951171875,962.8898620605469 1351.8435363769531,1007.933837890625 1499.63671875,966.0458068847656" style="fill:#6a6a82;stroke:#6a6a82;"></polygon><polygon stroke-linejoin="round" stroke-miterlimit="1" stroke-width="1" points="1499.2698364257812,777.50537109375 1356.824951171875,962.8898620605469 1499.63671875,966.0458068847656" style="fill:#4a414f;stroke:#4a414f;"></polygon><polygon stroke-linejoin="round" stroke-miterlimit="1" stroke-width="1" points="1347.749267578125,750.4154663085938 1356.824951171875,962.8898620605469 1499.2698364257812,777.50537109375" style="fill:#3b2f39;stroke:#3b2f39;"></polygon><polygon stroke-linejoin="round" stroke-miterlimit="1" stroke-width="1" points="1488.8045654296875,711.9080352783203 1347.749267578125,750.4154663085938 1499.2698364257812,777.50537109375" style="fill:#4c4453;stroke:#4c4453;"></polygon><polygon stroke-linejoin="round" stroke-miterlimit="1" stroke-width="1" points="1349.4111328125,721.9604797363281 1347.749267578125,750.4154663085938 1488.8045654296875,711.9080352783203" style="fill:#6c6c84;stroke:#6c6c84;"></polygon><polygon stroke-linejoin="round" stroke-miterlimit="1" stroke-width="1" points="1501.1174926757812,564.8420295715332 1349.4111328125,721.9604797363281 1488.8045654296875,711.9080352783203" style="fill:#453b47;stroke:#453b47;"></polygon><polygon stroke-linejoin="round" stroke-miterlimit="1" stroke-width="1" points="1347.3868103027344,539.2916808128357 1349.4111328125,721.9604797363281 1501.1174926757812,564.8420295715332" style="fill:#3b2f39;stroke:#3b2f39;"></polygon><polygon stroke-linejoin="round" stroke-miterlimit="1" stroke-width="1" points="1499.5750427246094,357.8456573486328 1347.3868103027344,539.2916808128357 1501.1174926757812,564.8420295715332" style="fill:#3b2e38;stroke:#3b2e38;"></polygon><polygon stroke-linejoin="round" stroke-miterlimit="1" stroke-width="1" points="1350.7479248046875,459.49053955078125 1347.3868103027344,539.2916808128357 1499.5750427246094,357.8456573486328" style="fill:#615e74;stroke:#615e74;"></polygon><polygon stroke-linejoin="round" stroke-miterlimit="1" stroke-width="1" points="1499.8185119628906,282.5382385253906 1350.7479248046875,459.49053955078125 1499.5750427246094,357.8456573486328" style="fill:#5a5669;stroke:#5a5669;"></polygon><polygon stroke-linejoin="round" stroke-miterlimit="1" stroke-width="1" points="1359.8275451660156,237.9471435546875 1350.7479248046875,459.49053955078125 1499.8185119628906,282.5382385253906" style="fill:#443a47;stroke:#443a47;"></polygon><polygon stroke-linejoin="round" stroke-miterlimit="1" stroke-width="1" points="1489.3581848144531,109.67279052734375 1359.8275451660156,237.9471435546875 1499.8185119628906,282.5382385253906" style="fill:#3d313c;stroke:#3d313c;"></polygon><polygon stroke-linejoin="round" stroke-miterlimit="1" stroke-width="1" points="1348.7551574707031,196.214111328125 1359.8275451660156,237.9471435546875 1489.3581848144531,109.67279052734375" style="fill:#3d303b;stroke:#3d303b;"></polygon><polygon stroke-linejoin="round" stroke-miterlimit="1" stroke-width="1" points="1497.1152648925781,39.260589599609375 1348.7551574707031,196.214111328125 1489.3581848144531,109.67279052734375" style="fill:#3a2d37;stroke:#3a2d37;"></polygon><polygon stroke-linejoin="round" stroke-miterlimit="1" stroke-width="1" points="1355.4482116699219,7.5887451171875 1348.7551574707031,196.214111328125 1497.1152648925781,39.260589599609375" style="fill:#382b34;stroke:#382b34;"></polygon><polygon stroke-linejoin="round" stroke-miterlimit="1" stroke-width="1" points="1497.0178833007812,-60.55108642578125 1355.4482116699219,7.5887451171875 1497.1152648925781,39.260589599609375" style="fill:#453b48;stroke:#453b48;"></polygon><polygon stroke-linejoin="round" stroke-miterlimit="1" stroke-width="1" points="1355.3182983398438,-77.6329345703125 1355.4482116699219,7.5887451171875 1497.0178833007812,-60.55108642578125" style="fill:#413641;stroke:#413641;"></polygon><polygon stroke-linejoin="round" stroke-miterlimit="1" stroke-width="1" points="1351.8435363769531,1007.933837890625 1218.3386840820312,1225.1970825195312 1355.49365234375,1186.5361328125" style="fill:#33252c;stroke:#33252c;"></polygon><polygon stroke-linejoin="round" stroke-miterlimit="1" stroke-width="1" points="1215.3325653076172,1110.8768310546875 1218.3386840820312,1225.1970825195312 1351.8435363769531,1007.933837890625" style="fill:#524b5b;stroke:#524b5b;"></polygon><polygon stroke-linejoin="round" stroke-miterlimit="1" stroke-width="1" points="1356.824951171875,962.8898620605469 1215.3325653076172,1110.8768310546875 1351.8435363769531,1007.933837890625" style="fill:#8085a3;stroke:#8085a3;"></polygon><polygon stroke-linejoin="round" stroke-miterlimit="1" stroke-width="1" points="1208.8973541259766,894.7744445800781 1215.3325653076172,1110.8768310546875 1356.824951171875,962.8898620605469" style="fill:#382a33;stroke:#382a33;"></polygon><polygon stroke-linejoin="round" stroke-miterlimit="1" stroke-width="1" points="1347.749267578125,750.4154663085938 1208.8973541259766,894.7744445800781 1356.824951171875,962.8898620605469" style="fill:#372932;stroke:#372932;"></polygon><polygon stroke-linejoin="round" stroke-miterlimit="1" stroke-width="1" points="1206.9534912109375,823.5454711914062 1208.8973541259766,894.7744445800781 1347.749267578125,750.4154663085938" style="fill:#4c4352;stroke:#4c4352;"></polygon><polygon stroke-linejoin="round" stroke-miterlimit="1" stroke-width="1" points="1349.4111328125,721.9604797363281 1206.9534912109375,823.5454711914062 1347.749267578125,750.4154663085938" style="fill:#8e97b9;stroke:#8e97b9;"></polygon><polygon stroke-linejoin="round" stroke-miterlimit="1" stroke-width="1" points="1206.1166381835938,643.2868118286133 1206.9534912109375,823.5454711914062 1349.4111328125,721.9604797363281" style="fill:#423844;stroke:#423844;"></polygon><polygon stroke-linejoin="round" stroke-miterlimit="1" stroke-width="1" points="1347.3868103027344,539.2916808128357 1206.1166381835938,643.2868118286133 1349.4111328125,721.9604797363281" style="fill:#423743;stroke:#423743;"></polygon><polygon stroke-linejoin="round" stroke-miterlimit="1" stroke-width="1" points="1217.8246307373047,591.5122489929199 1206.1166381835938,643.2868118286133 1347.3868103027344,539.2916808128357" style="fill:#4b4251;stroke:#4b4251;"></polygon><polygon stroke-linejoin="round" stroke-miterlimit="1" stroke-width="1" points="1350.7479248046875,459.49053955078125 1217.8246307373047,591.5122489929199 1347.3868103027344,539.2916808128357" style="fill:#5e5a6e;stroke:#5e5a6e;"></polygon><polygon stroke-linejoin="round" stroke-miterlimit="1" stroke-width="1" points="1212.1176147460938,462.66727447509766 1217.8246307373047,591.5122489929199 1350.7479248046875,459.49053955078125" style="fill:#575163;stroke:#575163;"></polygon><polygon stroke-linejoin="round" stroke-miterlimit="1" stroke-width="1" points="1359.8275451660156,237.9471435546875 1212.1176147460938,462.66727447509766 1350.7479248046875,459.49053955078125" style="fill:#504959;stroke:#504959;"></polygon><polygon stroke-linejoin="round" stroke-miterlimit="1" stroke-width="1" points="1207.1393585205078,230.80181884765625 1212.1176147460938,462.66727447509766 1359.8275451660156,237.9471435546875" style="fill:#4f4858;stroke:#4f4858;"></polygon><polygon stroke-linejoin="round" stroke-miterlimit="1" stroke-width="1" points="1348.7551574707031,196.214111328125 1207.1393585205078,230.80181884765625 1359.8275451660156,237.9471435546875" style="fill:#483e4c;stroke:#483e4c;"></polygon><polygon stroke-linejoin="round" stroke-miterlimit="1" stroke-width="1" points="1216.4805145263672,193.60317993164062 1207.1393585205078,230.80181884765625 1348.7551574707031,196.214111328125" style="fill:#4b4251;stroke:#4b4251;"></polygon><polygon stroke-linejoin="round" stroke-miterlimit="1" stroke-width="1" points="1355.4482116699219,7.5887451171875 1216.4805145263672,193.60317993164062 1348.7551574707031,196.214111328125" style="fill:#413642;stroke:#413642;"></polygon><polygon stroke-linejoin="round" stroke-miterlimit="1" stroke-width="1" points="1214.0977630615234,74.48040771484375 1216.4805145263672,193.60317993164062 1355.4482116699219,7.5887451171875" style="fill:#443946;stroke:#443946;"></polygon><polygon stroke-linejoin="round" stroke-miterlimit="1" stroke-width="1" points="1355.3182983398438,-77.6329345703125 1214.0977630615234,74.48040771484375 1355.4482116699219,7.5887451171875" style="fill:#473d4b;stroke:#473d4b;"></polygon><polygon stroke-linejoin="round" stroke-miterlimit="1" stroke-width="1" points="1207.2794647216797,-99.72015380859375 1214.0977630615234,74.48040771484375 1355.3182983398438,-77.6329345703125" style="fill:#473e4b;stroke:#473e4b;"></polygon><polygon stroke-linejoin="round" stroke-miterlimit="1" stroke-width="1" points="1215.3325653076172,1110.8768310546875 1075.8460235595703,1227.4108276367188 1218.3386840820312,1225.1970825195312" style="fill:#4c4453;stroke:#4c4453;"></polygon><polygon stroke-linejoin="round" stroke-miterlimit="1" stroke-width="1" points="1069.4603958129883,1007.4852905273438 1075.8460235595703,1227.4108276367188 1215.3325653076172,1110.8768310546875" style="fill:#403540;stroke:#403540;"></polygon><polygon stroke-linejoin="round" stroke-miterlimit="1" stroke-width="1" points="1208.8973541259766,894.7744445800781 1069.4603958129883,1007.4852905273438 1215.3325653076172,1110.8768310546875" style="fill:#3f333e;stroke:#3f333e;"></polygon><polygon stroke-linejoin="round" stroke-miterlimit="1" stroke-width="1" points="1076.9364395141602,894.5213928222656 1069.4603958129883,1007.4852905273438 1208.8973541259766,894.7744445800781" style="fill:#504858;stroke:#504858;"></polygon><polygon stroke-linejoin="round" stroke-miterlimit="1" stroke-width="1" points="1206.9534912109375,823.5454711914062 1076.9364395141602,894.5213928222656 1208.8973541259766,894.7744445800781" style="fill:#504959;stroke:#504959;"></polygon><polygon stroke-linejoin="round" stroke-miterlimit="1" stroke-width="1" points="1064.6789474487305,751.1259155273438 1076.9364395141602,894.5213928222656 1206.9534912109375,823.5454711914062" style="fill:#3f343f;stroke:#3f343f;"></polygon><polygon stroke-linejoin="round" stroke-miterlimit="1" stroke-width="1" points="1206.1166381835938,643.2868118286133 1064.6789474487305,751.1259155273438 1206.9534912109375,823.5454711914062" style="fill:#4d4554;stroke:#4d4554;"></polygon><polygon stroke-linejoin="round" stroke-miterlimit="1" stroke-width="1" points="1074.4687576293945,722.4675598144531 1064.6789474487305,751.1259155273438 1206.1166381835938,643.2868118286133" style="fill:#a3b1d9;stroke:#a3b1d9;"></polygon><polygon stroke-linejoin="round" stroke-miterlimit="1" stroke-width="1" points="1217.8246307373047,591.5122489929199 1074.4687576293945,722.4675598144531 1206.1166381835938,643.2868118286133" style="fill:#5a5569;stroke:#5a5569;"></polygon><polygon stroke-linejoin="round" stroke-miterlimit="1" stroke-width="1" points="1076.2377700805664,586.4361305236816 1074.4687576293945,722.4675598144531 1217.8246307373047,591.5122489929199" style="fill:#5a5568;stroke:#5a5568;"></polygon><polygon stroke-linejoin="round" stroke-miterlimit="1" stroke-width="1" points="1212.1176147460938,462.66727447509766 1076.2377700805664,586.4361305236816 1217.8246307373047,591.5122489929199" style="fill:#68677e;stroke:#68677e;"></polygon><polygon stroke-linejoin="round" stroke-miterlimit="1" stroke-width="1" points="1073.0171203613281,359.2617645263672 1076.2377700805664,586.4361305236816 1212.1176147460938,462.66727447509766" style="fill:#6a6981;stroke:#6a6981;"></polygon><polygon stroke-linejoin="round" stroke-miterlimit="1" stroke-width="1" points="1207.1393585205078,230.80181884765625 1073.0171203613281,359.2617645263672 1212.1176147460938,462.66727447509766" style="fill:#5e5b6f;stroke:#5e5b6f;"></polygon><polygon stroke-linejoin="round" stroke-miterlimit="1" stroke-width="1" points="1065.203712463379,258.2899475097656 1073.0171203613281,359.2617645263672 1207.1393585205078,230.80181884765625" style="fill:#605d72;stroke:#605d72;"></polygon><polygon stroke-linejoin="round" stroke-miterlimit="1" stroke-width="1" points="1216.4805145263672,193.60317993164062 1065.203712463379,258.2899475097656 1207.1393585205078,230.80181884765625" style="fill:#615e73;stroke:#615e73;"></polygon><polygon stroke-linejoin="round" stroke-miterlimit="1" stroke-width="1" points="1066.949851989746,102.78506469726562 1065.203712463379,258.2899475097656 1216.4805145263672,193.60317993164062" style="fill:#636076;stroke:#636076;"></polygon><polygon stroke-linejoin="round" stroke-miterlimit="1" stroke-width="1" points="1214.0977630615234,74.48040771484375 1066.949851989746,102.78506469726562 1216.4805145263672,193.60317993164062" style="fill:#433945;stroke:#433945;"></polygon><polygon stroke-linejoin="round" stroke-miterlimit="1" stroke-width="1" points="1076.94482421875,65.35577392578125 1066.949851989746,102.78506469726562 1214.0977630615234,74.48040771484375" style="fill:#2f1f26;stroke:#2f1f26;"></polygon><polygon stroke-linejoin="round" stroke-miterlimit="1" stroke-width="1" points="1207.2794647216797,-99.72015380859375 1076.94482421875,65.35577392578125 1214.0977630615234,74.48040771484375" style="fill:#524b5c;stroke:#524b5c;"></polygon><polygon stroke-linejoin="round" stroke-miterlimit="1" stroke-width="1" points="1076.938735961914,-155.55609130859375 1076.94482421875,65.35577392578125 1207.2794647216797,-99.72015380859375" style="fill:#4a414f;stroke:#4a414f;"></polygon><polygon stroke-linejoin="round" stroke-miterlimit="1" stroke-width="1" points="1069.4603958129883,1007.4852905273438 925.2728958129883,1234.2798461914062 1075.8460235595703,1227.4108276367188" style="fill:#403440;stroke:#403440;"></polygon><polygon stroke-linejoin="round" stroke-miterlimit="1" stroke-width="1" points="930.2986297607422,1005.6152954101562 925.2728958129883,1234.2798461914062 1069.4603958129883,1007.4852905273438" style="fill:#423743;stroke:#423743;"></polygon><polygon stroke-linejoin="round" stroke-miterlimit="1" stroke-width="1" points="1076.9364395141602,894.5213928222656 930.2986297607422,1005.6152954101562 1069.4603958129883,1007.4852905273438" style="fill:#4b4251;stroke:#4b4251;"></polygon><polygon stroke-linejoin="round" stroke-miterlimit="1" stroke-width="1" points="934.7204284667969,914.1317443847656 930.2986297607422,1005.6152954101562 1076.9364395141602,894.5213928222656" style="fill:#271519;stroke:#271519;"></polygon><polygon stroke-linejoin="round" stroke-miterlimit="1" stroke-width="1" points="1064.6789474487305,751.1259155273438 934.7204284667969,914.1317443847656 1076.9364395141602,894.5213928222656" style="fill:#392c35;stroke:#392c35;"></polygon><polygon stroke-linejoin="round" stroke-miterlimit="1" stroke-width="1" points="934.4760360717773,757.3477783203125 934.7204284667969,914.1317443847656 1064.6789474487305,751.1259155273438" style="fill:#524c5d;stroke:#524c5d;"></polygon><polygon stroke-linejoin="round" stroke-miterlimit="1" stroke-width="1" points="1074.4687576293945,722.4675598144531 934.4760360717773,757.3477783203125 1064.6789474487305,751.1259155273438" style="fill:#8f99bb;stroke:#8f99bb;"></polygon><polygon stroke-linejoin="round" stroke-miterlimit="1" stroke-width="1" points="935.5189590454102,688.5416717529297 934.4760360717773,757.3477783203125 1074.4687576293945,722.4675598144531" style="fill:#7a7d9a;stroke:#7a7d9a;"></polygon><polygon stroke-linejoin="round" stroke-miterlimit="1" stroke-width="1" points="1076.2377700805664,586.4361305236816 935.5189590454102,688.5416717529297 1074.4687576293945,722.4675598144531" style="fill:#5e5a6f;stroke:#5e5a6f;"></polygon><polygon stroke-linejoin="round" stroke-miterlimit="1" stroke-width="1" points="924.5278549194336,592.1228828430176 935.5189590454102,688.5416717529297 1076.2377700805664,586.4361305236816" style="fill:#67657c;stroke:#67657c;"></polygon><polygon stroke-linejoin="round" stroke-miterlimit="1" stroke-width="1" points="1073.0171203613281,359.2617645263672 924.5278549194336,592.1228828430176 1076.2377700805664,586.4361305236816" style="fill:#8f98ba;stroke:#8f98ba;"></polygon><polygon stroke-linejoin="round" stroke-miterlimit="1" stroke-width="1" points="925.7409744262695,370.7555847167969 924.5278549194336,592.1228828430176 1073.0171203613281,359.2617645263672" style="fill:#adbee9;stroke:#adbee9;"></polygon><polygon stroke-linejoin="round" stroke-miterlimit="1" stroke-width="1" points="1065.203712463379,258.2899475097656 925.7409744262695,370.7555847167969 1073.0171203613281,359.2617645263672" style="fill:#6c6c84;stroke:#6c6c84;"></polygon><polygon stroke-linejoin="round" stroke-miterlimit="1" stroke-width="1" points="934.6051788330078,311.1790466308594 925.7409744262695,370.7555847167969 1065.203712463379,258.2899475097656" style="fill:#69687f;stroke:#69687f;"></polygon><polygon stroke-linejoin="round" stroke-miterlimit="1" stroke-width="1" points="1066.949851989746,102.78506469726562 934.6051788330078,311.1790466308594 1065.203712463379,258.2899475097656" style="fill:#68677e;stroke:#68677e;"></polygon><polygon stroke-linejoin="round" stroke-miterlimit="1" stroke-width="1" points="925.5559310913086,197.32058715820312 934.6051788330078,311.1790466308594 1066.949851989746,102.78506469726562" style="fill:#615f74;stroke:#615f74;"></polygon><polygon stroke-linejoin="round" stroke-miterlimit="1" stroke-width="1" points="1076.94482421875,65.35577392578125 925.5559310913086,197.32058715820312 1066.949851989746,102.78506469726562" style="fill:#32232b;stroke:#32232b;"></polygon><polygon stroke-linejoin="round" stroke-miterlimit="1" stroke-width="1" points="935.4942398071289,-19.44122314453125 925.5559310913086,197.32058715820312 1076.94482421875,65.35577392578125" style="fill:#4f4757;stroke:#4f4757;"></polygon><polygon stroke-linejoin="round" stroke-miterlimit="1" stroke-width="1" points="1076.938735961914,-155.55609130859375 935.4942398071289,-19.44122314453125 1076.94482421875,65.35577392578125" style="fill:#473e4c;stroke:#473e4c;"></polygon><polygon stroke-linejoin="round" stroke-miterlimit="1" stroke-width="1" points="923.6293182373047,-64.0155029296875 935.4942398071289,-19.44122314453125 1076.938735961914,-155.55609130859375" style="fill:#66647b;stroke:#66647b;"></polygon><polygon stroke-linejoin="round" stroke-miterlimit="1" stroke-width="1" points="930.2986297607422,1005.6152954101562 782.3213653564453,1135.1156005859375 925.2728958129883,1234.2798461914062" style="fill:#403440;stroke:#403440;"></polygon><polygon stroke-linejoin="round" stroke-miterlimit="1" stroke-width="1" points="793.4537658691406,1100.8717041015625 782.3213653564453,1135.1156005859375 930.2986297607422,1005.6152954101562" style="fill:#392c35;stroke:#392c35;"></polygon><polygon stroke-linejoin="round" stroke-miterlimit="1" stroke-width="1" points="934.7204284667969,914.1317443847656 793.4537658691406,1100.8717041015625 930.2986297607422,1005.6152954101562" style="fill:#271519;stroke:#271519;"></polygon><polygon stroke-linejoin="round" stroke-miterlimit="1" stroke-width="1" points="785.9280548095703,979.9830627441406 793.4537658691406,1100.8717041015625 934.7204284667969,914.1317443847656" style="fill:#473d4a;stroke:#473d4a;"></polygon><polygon stroke-linejoin="round" stroke-miterlimit="1" stroke-width="1" points="934.4760360717773,757.3477783203125 785.9280548095703,979.9830627441406 934.7204284667969,914.1317443847656" style="fill:#4b4251;stroke:#4b4251;"></polygon><polygon stroke-linejoin="round" stroke-miterlimit="1" stroke-width="1" points="792.4486999511719,748.0375366210938 785.9280548095703,979.9830627441406 934.4760360717773,757.3477783203125" style="fill:#4a4150;stroke:#4a4150;"></polygon><polygon stroke-linejoin="round" stroke-miterlimit="1" stroke-width="1" points="935.5189590454102,688.5416717529297 792.4486999511719,748.0375366210938 934.4760360717773,757.3477783203125" style="fill:#777a96;stroke:#777a96;"></polygon><polygon stroke-linejoin="round" stroke-miterlimit="1" stroke-width="1" points="789.8547973632812,670.0043029785156 792.4486999511719,748.0375366210938 935.5189590454102,688.5416717529297" style="fill:#767893;stroke:#767893;"></polygon><polygon stroke-linejoin="round" stroke-miterlimit="1" stroke-width="1" points="924.5278549194336,592.1228828430176 789.8547973632812,670.0043029785156 935.5189590454102,688.5416717529297" style="fill:#5e5b6f;stroke:#5e5b6f;"></polygon><polygon stroke-linejoin="round" stroke-miterlimit="1" stroke-width="1" points="793.7064208984375,592.8813438415527 789.8547973632812,670.0043029785156 924.5278549194336,592.1228828430176" style="fill:#565062;stroke:#565062;"></polygon><polygon stroke-linejoin="round" stroke-miterlimit="1" stroke-width="1" points="925.7409744262695,370.7555847167969 793.7064208984375,592.8813438415527 924.5278549194336,592.1228828430176" style="fill:#929cc0;stroke:#929cc0;"></polygon><polygon stroke-linejoin="round" stroke-miterlimit="1" stroke-width="1" points="784.3961944580078,457.01576232910156 793.7064208984375,592.8813438415527 925.7409744262695,370.7555847167969" style="fill:#7d819e;stroke:#7d819e;"></polygon><polygon stroke-linejoin="round" stroke-miterlimit="1" stroke-width="1" points="934.6051788330078,311.1790466308594 784.3961944580078,457.01576232910156 925.7409744262695,370.7555847167969" style="fill:#71728c;stroke:#71728c;"></polygon><polygon stroke-linejoin="round" stroke-miterlimit="1" stroke-width="1" points="790.8043518066406,333.6175079345703 784.3961944580078,457.01576232910156 934.6051788330078,311.1790466308594" style="fill:#888faf;stroke:#888faf;"></polygon><polygon stroke-linejoin="round" stroke-miterlimit="1" stroke-width="1" points="925.5559310913086,197.32058715820312 790.8043518066406,333.6175079345703 934.6051788330078,311.1790466308594" style="fill:#72748e;stroke:#72748e;"></polygon><polygon stroke-linejoin="round" stroke-miterlimit="1" stroke-width="1" points="784.5978393554688,104.56246948242188 790.8043518066406,333.6175079345703 925.5559310913086,197.32058715820312" style="fill:#625f75;stroke:#625f75;"></polygon><polygon stroke-linejoin="round" stroke-miterlimit="1" stroke-width="1" points="935.4942398071289,-19.44122314453125 784.5978393554688,104.56246948242188 925.5559310913086,197.32058715820312" style="fill:#50495a;stroke:#50495a;"></polygon><polygon stroke-linejoin="round" stroke-miterlimit="1" stroke-width="1" points="781.6284332275391,54.45355224609375 784.5978393554688,104.56246948242188 935.4942398071289,-19.44122314453125" style="fill:#544e5f;stroke:#544e5f;"></polygon><polygon stroke-linejoin="round" stroke-miterlimit="1" stroke-width="1" points="923.6293182373047,-64.0155029296875 781.6284332275391,54.45355224609375 935.4942398071289,-19.44122314453125" style="fill:#71728c;stroke:#71728c;"></polygon><polygon stroke-linejoin="round" stroke-miterlimit="1" stroke-width="1" points="792.7086334228516,-128.58367919921875 781.6284332275391,54.45355224609375 923.6293182373047,-64.0155029296875" style="fill:#32232b;stroke:#32232b;"></polygon><polygon stroke-linejoin="round" stroke-miterlimit="1" stroke-width="1" points="793.4537658691406,1100.8717041015625 649.00244140625,1140.4415893554688 782.3213653564453,1135.1156005859375" style="fill:#3b2e38;stroke:#3b2e38;"></polygon><polygon stroke-linejoin="round" stroke-miterlimit="1" stroke-width="1" points="652.6214599609375,1062.8935546875 649.00244140625,1140.4415893554688 793.4537658691406,1100.8717041015625" style="fill:#2b1a20;stroke:#2b1a20;"></polygon><polygon stroke-linejoin="round" stroke-miterlimit="1" stroke-width="1" points="785.9280548095703,979.9830627441406 652.6214599609375,1062.8935546875 793.4537658691406,1100.8717041015625" style="fill:#473d4a;stroke:#473d4a;"></polygon><polygon stroke-linejoin="round" stroke-miterlimit="1" stroke-width="1" points="646.1408081054688,883.5909118652344 652.6214599609375,1062.8935546875 785.9280548095703,979.9830627441406" style="fill:#413642;stroke:#413642;"></polygon><polygon stroke-linejoin="round" stroke-miterlimit="1" stroke-width="1" points="792.4486999511719,748.0375366210938 646.1408081054688,883.5909118652344 785.9280548095703,979.9830627441406" style="fill:#473e4b;stroke:#473e4b;"></polygon><polygon stroke-linejoin="round" stroke-miterlimit="1" stroke-width="1" points="640.2533264160156,845.132080078125 646.1408081054688,883.5909118652344 792.4486999511719,748.0375366210938" style="fill:#554f61;stroke:#554f61;"></polygon><polygon stroke-linejoin="round" stroke-miterlimit="1" stroke-width="1" points="789.8547973632812,670.0043029785156 640.2533264160156,845.132080078125 792.4486999511719,748.0375366210938" style="fill:#565062;stroke:#565062;"></polygon><polygon stroke-linejoin="round" stroke-miterlimit="1" stroke-width="1" points="650.5816650390625,618.1311340332031 640.2533264160156,845.132080078125 789.8547973632812,670.0043029785156" style="fill:#554f61;stroke:#554f61;"></polygon><polygon stroke-linejoin="round" stroke-miterlimit="1" stroke-width="1" points="793.7064208984375,592.8813438415527 650.5816650390625,618.1311340332031 789.8547973632812,670.0043029785156" style="fill:#453c49;stroke:#453c49;"></polygon><polygon stroke-linejoin="round" stroke-miterlimit="1" stroke-width="1" points="640.1802062988281,572.2778167724609 650.5816650390625,618.1311340332031 793.7064208984375,592.8813438415527" style="fill:#443a47;stroke:#443a47;"></polygon><polygon stroke-linejoin="round" stroke-miterlimit="1" stroke-width="1" points="784.3961944580078,457.01576232910156 640.1802062988281,572.2778167724609 793.7064208984375,592.8813438415527" style="fill:#69687f;stroke:#69687f;"></polygon><polygon stroke-linejoin="round" stroke-miterlimit="1" stroke-width="1" points="640.226318359375,411.12432861328125 640.1802062988281,572.2778167724609 784.3961944580078,457.01576232910156" style="fill:#66647b;stroke:#66647b;"></polygon><polygon stroke-linejoin="round" stroke-miterlimit="1" stroke-width="1" points="790.8043518066406,333.6175079345703 640.226318359375,411.12432861328125 784.3961944580078,457.01576232910156" style="fill:#6f6f89;stroke:#6f6f89;"></polygon><polygon stroke-linejoin="round" stroke-miterlimit="1" stroke-width="1" points="643.9014282226562,240.90744018554688 640.226318359375,411.12432861328125 790.8043518066406,333.6175079345703" style="fill:#554f61;stroke:#554f61;"></polygon><polygon stroke-linejoin="round" stroke-miterlimit="1" stroke-width="1" points="784.5978393554688,104.56246948242188 643.9014282226562,240.90744018554688 790.8043518066406,333.6175079345703" style="fill:#534c5d;stroke:#534c5d;"></polygon><polygon stroke-linejoin="round" stroke-miterlimit="1" stroke-width="1" points="649.0682983398438,100.86767578125 643.9014282226562,240.90744018554688 784.5978393554688,104.56246948242188" style="fill:#575164;stroke:#575164;"></polygon><polygon stroke-linejoin="round" stroke-miterlimit="1" stroke-width="1" points="781.6284332275391,54.45355224609375 649.0682983398438,100.86767578125 784.5978393554688,104.56246948242188" style="fill:#4f4858;stroke:#4f4858;"></polygon><polygon stroke-linejoin="round" stroke-miterlimit="1" stroke-width="1" points="652.5829772949219,40.4420166015625 649.0682983398438,100.86767578125 781.6284332275391,54.45355224609375" style="fill:#443a47;stroke:#443a47;"></polygon><polygon stroke-linejoin="round" stroke-miterlimit="1" stroke-width="1" points="792.7086334228516,-128.58367919921875 652.5829772949219,40.4420166015625 781.6284332275391,54.45355224609375" style="fill:#372a33;stroke:#372a33;"></polygon><polygon stroke-linejoin="round" stroke-miterlimit="1" stroke-width="1" points="646.28759765625,-97.31689453125 652.5829772949219,40.4420166015625 792.7086334228516,-128.58367919921875" style="fill:#372932;stroke:#372932;"></polygon><polygon stroke-linejoin="round" stroke-miterlimit="1" stroke-width="1" points="652.6214599609375,1062.8935546875 506.17047119140625,1147.73291015625 649.00244140625,1140.4415893554688" style="fill:#32242b;stroke:#32242b;"></polygon><polygon stroke-linejoin="round" stroke-miterlimit="1" stroke-width="1" points="498.7662353515625,1034.5547790527344 506.17047119140625,1147.73291015625 652.6214599609375,1062.8935546875" style="fill:#49404e;stroke:#49404e;"></polygon><polygon stroke-linejoin="round" stroke-miterlimit="1" stroke-width="1" points="646.1408081054688,883.5909118652344 498.7662353515625,1034.5547790527344 652.6214599609375,1062.8935546875" style="fill:#362830;stroke:#362830;"></polygon><polygon stroke-linejoin="round" stroke-miterlimit="1" stroke-width="1" points="506.30145263671875,948.9434509277344 498.7662353515625,1034.5547790527344 646.1408081054688,883.5909118652344" style="fill:#35272f;stroke:#35272f;"></polygon><polygon stroke-linejoin="round" stroke-miterlimit="1" stroke-width="1" points="640.2533264160156,845.132080078125 506.30145263671875,948.9434509277344 646.1408081054688,883.5909118652344" style="fill:#514a5b;stroke:#514a5b;"></polygon><polygon stroke-linejoin="round" stroke-miterlimit="1" stroke-width="1" points="498.7279968261719,838.3133239746094 506.30145263671875,948.9434509277344 640.2533264160156,845.132080078125" style="fill:#453b48;stroke:#453b48;"></polygon><polygon stroke-linejoin="round" stroke-miterlimit="1" stroke-width="1" points="650.5816650390625,618.1311340332031 498.7279968261719,838.3133239746094 640.2533264160156,845.132080078125" style="fill:#4c4453;stroke:#4c4453;"></polygon><polygon stroke-linejoin="round" stroke-miterlimit="1" stroke-width="1" points="498.95257568359375,689.47021484375 498.7279968261719,838.3133239746094 650.5816650390625,618.1311340332031" style="fill:#483f4d;stroke:#483f4d;"></polygon><polygon stroke-linejoin="round" stroke-miterlimit="1" stroke-width="1" points="640.1802062988281,572.2778167724609 498.95257568359375,689.47021484375 650.5816650390625,618.1311340332031" style="fill:#4c4453;stroke:#4c4453;"></polygon><polygon stroke-linejoin="round" stroke-miterlimit="1" stroke-width="1" points="504.7996826171875,586.0713157653809 498.95257568359375,689.47021484375 640.1802062988281,572.2778167724609" style="fill:#443946;stroke:#443946;"></polygon><polygon stroke-linejoin="round" stroke-miterlimit="1" stroke-width="1" points="640.226318359375,411.12432861328125 504.7996826171875,586.0713157653809 640.1802062988281,572.2778167724609" style="fill:#4c4352;stroke:#4c4352;"></polygon><polygon stroke-linejoin="round" stroke-miterlimit="1" stroke-width="1" points="500.9495544433594,425.3413391113281 504.7996826171875,586.0713157653809 640.226318359375,411.12432861328125" style="fill:#4b4251;stroke:#4b4251;"></polygon><polygon stroke-linejoin="round" stroke-miterlimit="1" stroke-width="1" points="643.9014282226562,240.90744018554688 500.9495544433594,425.3413391113281 640.226318359375,411.12432861328125" style="fill:#4c4453;stroke:#4c4453;"></polygon><polygon stroke-linejoin="round" stroke-miterlimit="1" stroke-width="1" points="498.9976501464844,242.27764892578125 500.9495544433594,425.3413391113281 643.9014282226562,240.90744018554688" style="fill:#575264;stroke:#575264;"></polygon><polygon stroke-linejoin="round" stroke-miterlimit="1" stroke-width="1" points="649.0682983398438,100.86767578125 498.9976501464844,242.27764892578125 643.9014282226562,240.90744018554688" style="fill:#5b576b;stroke:#5b576b;"></polygon><polygon stroke-linejoin="round" stroke-miterlimit="1" stroke-width="1" points="502.7291564941406,98.86178588867188 498.9976501464844,242.27764892578125 649.0682983398438,100.86767578125" style="fill:#3e323d;stroke:#3e323d;"></polygon><polygon stroke-linejoin="round" stroke-miterlimit="1" stroke-width="1" points="652.5829772949219,40.4420166015625 502.7291564941406,98.86178588867188 649.0682983398438,100.86767578125" style="fill:#403540;stroke:#403540;"></polygon><polygon stroke-linejoin="round" stroke-miterlimit="1" stroke-width="1" points="505.0581359863281,-5.29620361328125 502.7291564941406,98.86178588867188 652.5829772949219,40.4420166015625" style="fill:#33252d;stroke:#33252d;"></polygon><polygon stroke-linejoin="round" stroke-miterlimit="1" stroke-width="1" points="646.28759765625,-97.31689453125 505.0581359863281,-5.29620361328125 652.5829772949219,40.4420166015625" style="fill:#32242b;stroke:#32242b;"></polygon><polygon stroke-linejoin="round" stroke-miterlimit="1" stroke-width="1" points="505.6259460449219,-56.620361328125 505.0581359863281,-5.29620361328125 646.28759765625,-97.31689453125" style="fill:#32232b;stroke:#32232b;"></polygon><polygon stroke-linejoin="round" stroke-miterlimit="1" stroke-width="1" points="498.7662353515625,1034.5547790527344 357.29620361328125,1210.8244018554688 506.17047119140625,1147.73291015625" style="fill:#3a2d37;stroke:#3a2d37;"></polygon><polygon stroke-linejoin="round" stroke-miterlimit="1" stroke-width="1" points="368.9730224609375,1029.9981079101562 357.29620361328125,1210.8244018554688 498.7662353515625,1034.5547790527344" style="fill:#3a2d37;stroke:#3a2d37;"></polygon><polygon stroke-linejoin="round" stroke-miterlimit="1" stroke-width="1" points="506.30145263671875,948.9434509277344 368.9730224609375,1029.9981079101562 498.7662353515625,1034.5547790527344" style="fill:#372a33;stroke:#372a33;"></polygon><polygon stroke-linejoin="round" stroke-miterlimit="1" stroke-width="1" points="360.01348876953125,981.6419982910156 368.9730224609375,1029.9981079101562 506.30145263671875,948.9434509277344" style="fill:#32232a;stroke:#32232a;"></polygon><polygon stroke-linejoin="round" stroke-miterlimit="1" stroke-width="1" points="498.7279968261719,838.3133239746094 360.01348876953125,981.6419982910156 506.30145263671875,948.9434509277344" style="fill:#3f333e;stroke:#3f333e;"></polygon><polygon stroke-linejoin="round" stroke-miterlimit="1" stroke-width="1" points="363.507080078125,851.8319702148438 360.01348876953125,981.6419982910156 498.7279968261719,838.3133239746094" style="fill:#3d313b;stroke:#3d313b;"></polygon><polygon stroke-linejoin="round" stroke-miterlimit="1" stroke-width="1" points="498.95257568359375,689.47021484375 363.507080078125,851.8319702148438 498.7279968261719,838.3133239746094" style="fill:#3c303a;stroke:#3c303a;"></polygon><polygon stroke-linejoin="round" stroke-miterlimit="1" stroke-width="1" points="369.68487548828125,700.8740692138672 363.507080078125,851.8319702148438 498.95257568359375,689.47021484375" style="fill:#3f343f;stroke:#3f343f;"></polygon><polygon stroke-linejoin="round" stroke-miterlimit="1" stroke-width="1" points="504.7996826171875,586.0713157653809 369.68487548828125,700.8740692138672 498.95257568359375,689.47021484375" style="fill:#413641;stroke:#413641;"></polygon><polygon stroke-linejoin="round" stroke-miterlimit="1" stroke-width="1" points="358.339599609375,500.1138610839844 369.68487548828125,700.8740692138672 504.7996826171875,586.0713157653809" style="fill:#3f333e;stroke:#3f333e;"></polygon><polygon stroke-linejoin="round" stroke-miterlimit="1" stroke-width="1" points="500.9495544433594,425.3413391113281 358.339599609375,500.1138610839844 504.7996826171875,586.0713157653809" style="fill:#463c49;stroke:#463c49;"></polygon><polygon stroke-linejoin="round" stroke-miterlimit="1" stroke-width="1" points="357.5699462890625,365.61265563964844 358.339599609375,500.1138610839844 500.9495544433594,425.3413391113281" style="fill:#3c303a;stroke:#3c303a;"></polygon><polygon stroke-linejoin="round" stroke-miterlimit="1" stroke-width="1" points="498.9976501464844,242.27764892578125 357.5699462890625,365.61265563964844 500.9495544433594,425.3413391113281" style="fill:#392c35;stroke:#392c35;"></polygon><polygon stroke-linejoin="round" stroke-miterlimit="1" stroke-width="1" points="363.49615478515625,333.3783721923828 357.5699462890625,365.61265563964844 498.9976501464844,242.27764892578125" style="fill:#6d6d86;stroke:#6d6d86;"></polygon><polygon stroke-linejoin="round" stroke-miterlimit="1" stroke-width="1" points="502.7291564941406,98.86178588867188 363.49615478515625,333.3783721923828 498.9976501464844,242.27764892578125" style="fill:#3a2d36;stroke:#3a2d36;"></polygon><polygon stroke-linejoin="round" stroke-miterlimit="1" stroke-width="1" points="369.76055908203125,188.49124145507812 363.49615478515625,333.3783721923828 502.7291564941406,98.86178588867188" style="fill:#32232a;stroke:#32232a;"></polygon><polygon stroke-linejoin="round" stroke-miterlimit="1" stroke-width="1" points="505.0581359863281,-5.29620361328125 369.76055908203125,188.49124145507812 502.7291564941406,98.86178588867188" style="fill:#2d1d23;stroke:#2d1d23;"></polygon><polygon stroke-linejoin="round" stroke-miterlimit="1" stroke-width="1" points="367.3984375,68.81167602539062 369.76055908203125,188.49124145507812 505.0581359863281,-5.29620361328125" style="fill:#565163;stroke:#565163;"></polygon><polygon stroke-linejoin="round" stroke-miterlimit="1" stroke-width="1" points="505.6259460449219,-56.620361328125 367.3984375,68.81167602539062 505.0581359863281,-5.29620361328125" style="fill:#3b2f39;stroke:#3b2f39;"></polygon><polygon stroke-linejoin="round" stroke-miterlimit="1" stroke-width="1" points="359.96356201171875,-145.5714111328125 367.3984375,68.81167602539062 505.6259460449219,-56.620361328125" style="fill:#483f4d;stroke:#483f4d;"></polygon><polygon stroke-linejoin="round" stroke-miterlimit="1" stroke-width="1" points="368.9730224609375,1029.9981079101562 228.05291748046875,1171.6967163085938 357.29620361328125,1210.8244018554688" style="fill:#413642;stroke:#413642;"></polygon><polygon stroke-linejoin="round" stroke-miterlimit="1" stroke-width="1" points="223.55963134765625,1015.4407043457031 228.05291748046875,1171.6967163085938 368.9730224609375,1029.9981079101562" style="fill:#413642;stroke:#413642;"></polygon><polygon stroke-linejoin="round" stroke-miterlimit="1" stroke-width="1" points="360.01348876953125,981.6419982910156 223.55963134765625,1015.4407043457031 368.9730224609375,1029.9981079101562" style="fill:#33252d;stroke:#33252d;"></polygon><polygon stroke-linejoin="round" stroke-miterlimit="1" stroke-width="1" points="228.3212890625,960.3254699707031 223.55963134765625,1015.4407043457031 360.01348876953125,981.6419982910156" style="fill:#4d4555;stroke:#4d4555;"></polygon><polygon stroke-linejoin="round" stroke-miterlimit="1" stroke-width="1" points="363.507080078125,851.8319702148438 228.3212890625,960.3254699707031 360.01348876953125,981.6419982910156" style="fill:#3c2f39;stroke:#3c2f39;"></polygon><polygon stroke-linejoin="round" stroke-miterlimit="1" stroke-width="1" points="225.9720458984375,825.2527160644531 228.3212890625,960.3254699707031 363.507080078125,851.8319702148438" style="fill:#3d313c;stroke:#3d313c;"></polygon><polygon stroke-linejoin="round" stroke-miterlimit="1" stroke-width="1" points="369.68487548828125,700.8740692138672 225.9720458984375,825.2527160644531 363.507080078125,851.8319702148438" style="fill:#463c49;stroke:#463c49;"></polygon><polygon stroke-linejoin="round" stroke-miterlimit="1" stroke-width="1" points="216.58856201171875,624.0207061767578 225.9720458984375,825.2527160644531 369.68487548828125,700.8740692138672" style="fill:#403540;stroke:#403540;"></polygon><polygon stroke-linejoin="round" stroke-miterlimit="1" stroke-width="1" points="358.339599609375,500.1138610839844 216.58856201171875,624.0207061767578 369.68487548828125,700.8740692138672" style="fill:#34262d;stroke:#34262d;"></polygon><polygon stroke-linejoin="round" stroke-miterlimit="1" stroke-width="1" points="226.101806640625,592.8799476623535 216.58856201171875,624.0207061767578 358.339599609375,500.1138610839844" style="fill:#605d72;stroke:#605d72;"></polygon><polygon stroke-linejoin="round" stroke-miterlimit="1" stroke-width="1" points="357.5699462890625,365.61265563964844 226.101806640625,592.8799476623535 358.339599609375,500.1138610839844" style="fill:#392b35;stroke:#392b35;"></polygon><polygon stroke-linejoin="round" stroke-miterlimit="1" stroke-width="1" points="217.13336181640625,463.23108673095703 226.101806640625,592.8799476623535 357.5699462890625,365.61265563964844" style="fill:#2d1d23;stroke:#2d1d23;"></polygon><polygon stroke-linejoin="round" stroke-miterlimit="1" stroke-width="1" points="363.49615478515625,333.3783721923828 217.13336181640625,463.23108673095703 357.5699462890625,365.61265563964844" style="fill:#646278;stroke:#646278;"></polygon><polygon stroke-linejoin="round" stroke-miterlimit="1" stroke-width="1" points="228.304443359375,235.6087646484375 217.13336181640625,463.23108673095703 363.49615478515625,333.3783721923828" style="fill:#32232b;stroke:#32232b;"></polygon><polygon stroke-linejoin="round" stroke-miterlimit="1" stroke-width="1" points="369.76055908203125,188.49124145507812 228.304443359375,235.6087646484375 363.49615478515625,333.3783721923828" style="fill:#382b34;stroke:#382b34;"></polygon><polygon stroke-linejoin="round" stroke-miterlimit="1" stroke-width="1" points="220.62481689453125,143.26492309570312 228.304443359375,235.6087646484375 369.76055908203125,188.49124145507812" style="fill:#35262e;stroke:#35262e;"></polygon><polygon stroke-linejoin="round" stroke-miterlimit="1" stroke-width="1" points="367.3984375,68.81167602539062 220.62481689453125,143.26492309570312 369.76055908203125,188.49124145507812" style="fill:#382b34;stroke:#382b34;"></polygon><polygon stroke-linejoin="round" stroke-miterlimit="1" stroke-width="1" points="227.8026123046875,1.35858154296875 220.62481689453125,143.26492309570312 367.3984375,68.81167602539062" style="fill:#32232b;stroke:#32232b;"></polygon><polygon stroke-linejoin="round" stroke-miterlimit="1" stroke-width="1" points="359.96356201171875,-145.5714111328125 227.8026123046875,1.35858154296875 367.3984375,68.81167602539062" style="fill:#312229;stroke:#312229;"></polygon><polygon stroke-linejoin="round" stroke-miterlimit="1" stroke-width="1" points="218.0736083984375,-144.81011962890625 227.8026123046875,1.35858154296875 359.96356201171875,-145.5714111328125" style="fill:#29181d;stroke:#29181d;"></polygon><polygon stroke-linejoin="round" stroke-miterlimit="1" stroke-width="1" points="223.55963134765625,1015.4407043457031 74.61517333984375,1238.6258544921875 228.05291748046875,1171.6967163085938" style="fill:#2c1b21;stroke:#2c1b21;"></polygon><polygon stroke-linejoin="round" stroke-miterlimit="1" stroke-width="1" points="82.8175048828125,1081.1691284179688 74.61517333984375,1238.6258544921875 223.55963134765625,1015.4407043457031" style="fill:#2e1e25;stroke:#2e1e25;"></polygon><polygon stroke-linejoin="round" stroke-miterlimit="1" stroke-width="1" points="228.3212890625,960.3254699707031 82.8175048828125,1081.1691284179688 223.55963134765625,1015.4407043457031" style="fill:#392c36;stroke:#392c36;"></polygon><polygon stroke-linejoin="round" stroke-miterlimit="1" stroke-width="1" points="81.73651123046875,942.1141052246094 82.8175048828125,1081.1691284179688 228.3212890625,960.3254699707031" style="fill:#3e323d;stroke:#3e323d;"></polygon><polygon stroke-linejoin="round" stroke-miterlimit="1" stroke-width="1" points="225.9720458984375,825.2527160644531 81.73651123046875,942.1141052246094 228.3212890625,960.3254699707031" style="fill:#3d313c;stroke:#3d313c;"></polygon><polygon stroke-linejoin="round" stroke-miterlimit="1" stroke-width="1" points="82.57391357421875,811.7554321289062 81.73651123046875,942.1141052246094 225.9720458984375,825.2527160644531" style="fill:#372931;stroke:#372931;"></polygon><polygon stroke-linejoin="round" stroke-miterlimit="1" stroke-width="1" points="216.58856201171875,624.0207061767578 82.57391357421875,811.7554321289062 225.9720458984375,825.2527160644531" style="fill:#352730;stroke:#352730;"></polygon><polygon stroke-linejoin="round" stroke-miterlimit="1" stroke-width="1" points="74.4249267578125,721.2311248779297 82.57391357421875,811.7554321289062 216.58856201171875,624.0207061767578" style="fill:#3d303b;stroke:#3d303b;"></polygon><polygon stroke-linejoin="round" stroke-miterlimit="1" stroke-width="1" points="226.101806640625,592.8799476623535 74.4249267578125,721.2311248779297 216.58856201171875,624.0207061767578" style="fill:#585366;stroke:#585366;"></polygon><polygon stroke-linejoin="round" stroke-miterlimit="1" stroke-width="1" points="84.40692138671875,490.11898040771484 74.4249267578125,721.2311248779297 226.101806640625,592.8799476623535" style="fill:#2b1a1f;stroke:#2b1a1f;"></polygon><polygon stroke-linejoin="round" stroke-miterlimit="1" stroke-width="1" points="217.13336181640625,463.23108673095703 84.40692138671875,490.11898040771484 226.101806640625,592.8799476623535" style="fill:#3a2d36;stroke:#3a2d36;"></polygon><polygon stroke-linejoin="round" stroke-miterlimit="1" stroke-width="1" points="82.2899169921875,403.2875213623047 84.40692138671875,490.11898040771484 217.13336181640625,463.23108673095703" style="fill:#403440;stroke:#403440;"></polygon><polygon stroke-linejoin="round" stroke-miterlimit="1" stroke-width="1" points="228.304443359375,235.6087646484375 82.2899169921875,403.2875213623047 217.13336181640625,463.23108673095703" style="fill:#49404e;stroke:#49404e;"></polygon><polygon stroke-linejoin="round" stroke-miterlimit="1" stroke-width="1" points="79.07177734375,264.27569580078125 82.2899169921875,403.2875213623047 228.304443359375,235.6087646484375" style="fill:#35272f;stroke:#35272f;"></polygon><polygon stroke-linejoin="round" stroke-miterlimit="1" stroke-width="1" points="220.62481689453125,143.26492309570312 79.07177734375,264.27569580078125 228.304443359375,235.6087646484375" style="fill:#34262e;stroke:#34262e;"></polygon><polygon stroke-linejoin="round" stroke-miterlimit="1" stroke-width="1" points="82.77197265625,130.6583251953125 79.07177734375,264.27569580078125 220.62481689453125,143.26492309570312" style="fill:#4e4756;stroke:#4e4756;"></polygon><polygon stroke-linejoin="round" stroke-miterlimit="1" stroke-width="1" points="227.8026123046875,1.35858154296875 82.77197265625,130.6583251953125 220.62481689453125,143.26492309570312" style="fill:#4e4656;stroke:#4e4656;"></polygon><polygon stroke-linejoin="round" stroke-miterlimit="1" stroke-width="1" points="82.2611083984375,48.08648681640625 82.77197265625,130.6583251953125 227.8026123046875,1.35858154296875" style="fill:#33252c;stroke:#33252c;"></polygon><polygon stroke-linejoin="round" stroke-miterlimit="1" stroke-width="1" points="218.0736083984375,-144.81011962890625 82.2611083984375,48.08648681640625 227.8026123046875,1.35858154296875" style="fill:#372932;stroke:#372932;"></polygon><polygon stroke-linejoin="round" stroke-miterlimit="1" stroke-width="1" points="74.4810791015625,-87.788818359375 82.2611083984375,48.08648681640625 218.0736083984375,-144.81011962890625" style="fill:#3e323c;stroke:#3e323c;"></polygon><polygon stroke-linejoin="round" stroke-miterlimit="1" stroke-width="1" points="82.8175048828125,1081.1691284179688 -66.9849853515625,1153.088134765625 74.61517333984375,1238.6258544921875" style="fill:#312229;stroke:#312229;"></polygon><polygon stroke-linejoin="round" stroke-miterlimit="1" stroke-width="1" points="-54.6436767578125,1005.7064208984375 -66.9849853515625,1153.088134765625 82.8175048828125,1081.1691284179688" style="fill:#32232b;stroke:#32232b;"></polygon><polygon stroke-linejoin="round" stroke-miterlimit="1" stroke-width="1" points="81.73651123046875,942.1141052246094 -54.6436767578125,1005.7064208984375 82.8175048828125,1081.1691284179688" style="fill:#2d1d23;stroke:#2d1d23;"></polygon><polygon stroke-linejoin="round" stroke-miterlimit="1" stroke-width="1" points="-61.67822265625,942.9371643066406 -54.6436767578125,1005.7064208984375 81.73651123046875,942.1141052246094" style="fill:#2c1c21;stroke:#2c1c21;"></polygon><polygon stroke-linejoin="round" stroke-miterlimit="1" stroke-width="1" points="82.57391357421875,811.7554321289062 -61.67822265625,942.9371643066406 81.73651123046875,942.1141052246094" style="fill:#3d313c;stroke:#3d313c;"></polygon><polygon stroke-linejoin="round" stroke-miterlimit="1" stroke-width="1" points="-66.923583984375,747.5029144287109 -61.67822265625,942.9371643066406 82.57391357421875,811.7554321289062" style="fill:#3f343f;stroke:#3f343f;"></polygon><polygon stroke-linejoin="round" stroke-miterlimit="1" stroke-width="1" points="74.4249267578125,721.2311248779297 -66.923583984375,747.5029144287109 82.57391357421875,811.7554321289062" style="fill:#3c2f39;stroke:#3c2f39;"></polygon><polygon stroke-linejoin="round" stroke-miterlimit="1" stroke-width="1" points="-59.8671875,719.1390380859375 -66.923583984375,747.5029144287109 74.4249267578125,721.2311248779297" style="fill:#3d303b;stroke:#3d303b;"></polygon><polygon stroke-linejoin="round" stroke-miterlimit="1" stroke-width="1" points="84.40692138671875,490.11898040771484 -59.8671875,719.1390380859375 74.4249267578125,721.2311248779297" style="fill:#392c35;stroke:#392c35;"></polygon><polygon stroke-linejoin="round" stroke-miterlimit="1" stroke-width="1" points="-59.893798828125,487.1192932128906 -59.8671875,719.1390380859375 84.40692138671875,490.11898040771484" style="fill:#392c35;stroke:#392c35;"></polygon><polygon stroke-linejoin="round" stroke-miterlimit="1" stroke-width="1" points="82.2899169921875,403.2875213623047 -59.893798828125,487.1192932128906 84.40692138671875,490.11898040771484" style="fill:#382b34;stroke:#382b34;"></polygon><polygon stroke-linejoin="round" stroke-miterlimit="1" stroke-width="1" points="-62.072998046875,358.9999084472656 -59.893798828125,487.1192932128906 82.2899169921875,403.2875213623047" style="fill:#34262e;stroke:#34262e;"></polygon><polygon stroke-linejoin="round" stroke-miterlimit="1" stroke-width="1" points="79.07177734375,264.27569580078125 -62.072998046875,358.9999084472656 82.2899169921875,403.2875213623047" style="fill:#3b2f39;stroke:#3b2f39;"></polygon><polygon stroke-linejoin="round" stroke-miterlimit="1" stroke-width="1" points="-59.396240234375,233.0679931640625 -62.072998046875,358.9999084472656 79.07177734375,264.27569580078125" style="fill:#33252c;stroke:#33252c;"></polygon><polygon stroke-linejoin="round" stroke-miterlimit="1" stroke-width="1" points="82.77197265625,130.6583251953125 -59.396240234375,233.0679931640625 79.07177734375,264.27569580078125" style="fill:#33252d;stroke:#33252d;"></polygon><polygon stroke-linejoin="round" stroke-miterlimit="1" stroke-width="1" points="-64.0152587890625,124.54586791992188 -59.396240234375,233.0679931640625 82.77197265625,130.6583251953125" style="fill:#3a2e37;stroke:#3a2e37;"></polygon><polygon stroke-linejoin="round" stroke-miterlimit="1" stroke-width="1" points="82.2611083984375,48.08648681640625 -64.0152587890625,124.54586791992188 82.77197265625,130.6583251953125" style="fill:#32232a;stroke:#32232a;"></polygon><polygon stroke-linejoin="round" stroke-miterlimit="1" stroke-width="1" points="-56.7305908203125,24.398681640625 -64.0152587890625,124.54586791992188 82.2611083984375,48.08648681640625" style="fill:#271519;stroke:#271519;"></polygon><polygon stroke-linejoin="round" stroke-miterlimit="1" stroke-width="1" points="74.4810791015625,-87.788818359375 -56.7305908203125,24.398681640625 82.2611083984375,48.08648681640625" style="fill:#2b1a20;stroke:#2b1a20;"></polygon><polygon stroke-linejoin="round" stroke-miterlimit="1" stroke-width="1" points="-62.5682373046875,-57.5228271484375 -56.7305908203125,24.398681640625 74.4810791015625,-87.788818359375" style="fill:#483e4c;stroke:#483e4c;"></polygon></svg>