
      <svg xmlns="http://www.w3.org/2000/svg" version="1.1" width="2000" height="1080" style="display: block;"><polygon stroke-linejoin="round" stroke-miterlimit="1" stroke-width="1" points="2060.7872314453125,1111.2564697265625 1919.3489379882812,1138.4222412109375 2060.7872314453125,1138.4149780273438" style="fill:#33252c;stroke:#33252c;"></polygon><polygon stroke-linejoin="round" stroke-miterlimit="1" stroke-width="1" points="1919.3489379882812,1037.1432495117188 1919.3489379882812,1138.4222412109375 2060.7872314453125,1111.2564697265625" style="fill:#2c1c21;stroke:#2c1c21;"></polygon><polygon stroke-linejoin="round" stroke-miterlimit="1" stroke-width="1" points="2060.7872314453125,971.5065307617188 1919.3489379882812,1037.1432495117188 2060.7872314453125,1111.2564697265625" style="fill:#2b1b20;stroke:#2b1b20;"></polygon><polygon stroke-linejoin="round" stroke-miterlimit="1" stroke-width="1" points="1919.3489379882812,934.3855895996094 1919.3489379882812,1037.1432495117188 2060.7872314453125,971.5065307617188" style="fill:#49404e;stroke:#49404e;"></polygon><polygon stroke-linejoin="round" stroke-miterlimit="1" stroke-width="1" points="2060.7872314453125,836.7492370605469 1919.3489379882812,934.3855895996094 2060.7872314453125,971.5065307617188" style="fill:#443a46;stroke:#443a46;"></polygon><polygon stroke-linejoin="round" stroke-miterlimit="1" stroke-width="1" points="1919.3489379882812,751.0836944580078 1919.3489379882812,934.3855895996094 2060.7872314453125,836.7492370605469" style="fill:#433945;stroke:#433945;"></polygon><polygon stroke-linejoin="round" stroke-miterlimit="1" stroke-width="1" points="2060.7872314453125,617.3398895263672 1919.3489379882812,751.0836944580078 2060.7872314453125,836.7492370605469" style="fill:#413642;stroke:#413642;"></polygon><polygon stroke-linejoin="round" stroke-miterlimit="1" stroke-width="1" points="1919.3489379882812,618.5331268310547 1919.3489379882812,751.0836944580078 2060.7872314453125,617.3398895263672" style="fill:#312128;stroke:#312128;"></polygon><polygon stroke-linejoin="round" stroke-miterlimit="1" stroke-width="1" points="2060.7872314453125,581.6795845031738 1919.3489379882812,618.5331268310547 2060.7872314453125,617.3398895263672" style="fill:#362830;stroke:#362830;"></polygon><polygon stroke-linejoin="round" stroke-miterlimit="1" stroke-width="1" points="1919.3489379882812,551.5006055831909 1919.3489379882812,618.5331268310547 2060.7872314453125,581.6795845031738" style="fill:#28171b;stroke:#28171b;"></polygon><polygon stroke-linejoin="round" stroke-miterlimit="1" stroke-width="1" points="2060.7872314453125,359.6561584472656 1919.3489379882812,551.5006055831909 2060.7872314453125,581.6795845031738" style="fill:#28161a;stroke:#28161a;"></polygon><polygon stroke-linejoin="round" stroke-miterlimit="1" stroke-width="1" points="1919.3489379882812,359.2754211425781 1919.3489379882812,551.5006055831909 2060.7872314453125,359.6561584472656" style="fill:#372932;stroke:#372932;"></polygon><polygon stroke-linejoin="round" stroke-miterlimit="1" stroke-width="1" points="2060.7872314453125,317.8363342285156 1919.3489379882812,359.2754211425781 2060.7872314453125,359.6561584472656" style="fill:#382a33;stroke:#382a33;"></polygon><polygon stroke-linejoin="round" stroke-miterlimit="1" stroke-width="1" points="1919.3489379882812,333.5298767089844 1919.3489379882812,359.2754211425781 2060.7872314453125,317.8363342285156" style="fill:#33242b;stroke:#33242b;"></polygon><polygon stroke-linejoin="round" stroke-miterlimit="1" stroke-width="1" points="2060.7872314453125,200.66278076171875 1919.3489379882812,333.5298767089844 2060.7872314453125,317.8363342285156" style="fill:#34262d;stroke:#34262d;"></polygon><polygon stroke-linejoin="round" stroke-miterlimit="1" stroke-width="1" points="1919.3489379882812,187.6953125 1919.3489379882812,333.5298767089844 2060.7872314453125,200.66278076171875" style="fill:#362831;stroke:#362831;"></polygon><polygon stroke-linejoin="round" stroke-miterlimit="1" stroke-width="1" points="2060.7872314453125,60.7542724609375 1919.3489379882812,187.6953125 2060.7872314453125,200.66278076171875" style="fill:#3d313b;stroke:#3d313b;"></polygon><polygon stroke-linejoin="round" stroke-miterlimit="1" stroke-width="1" points="1919.3489379882812,-29.0430908203125 1919.3489379882812,187.6953125 2060.7872314453125,60.7542724609375" style="fill:#413642;stroke:#413642;"></polygon><polygon stroke-linejoin="round" stroke-miterlimit="1" stroke-width="1" points="2060.7872314453125,-152.978271484375 1919.3489379882812,-29.0430908203125 2060.7872314453125,60.7542724609375" style="fill:#3b2e38;stroke:#3b2e38;"></polygon><polygon stroke-linejoin="round" stroke-miterlimit="1" stroke-width="1" points="1919.3489379882812,-56.2060546875 1919.3489379882812,-29.0430908203125 2060.7872314453125,-152.978271484375" style="fill:#372a33;stroke:#372a33;"></polygon><polygon stroke-linejoin="round" stroke-miterlimit="1" stroke-width="1" points="1919.3489379882812,1037.1432495117188 1777.91064453125,1146.414306640625 1919.3489379882812,1138.4222412109375" style="fill:#271519;stroke:#271519;"></polygon><polygon stroke-linejoin="round" stroke-miterlimit="1" stroke-width="1" points="1777.91064453125,1013.31494140625 1777.91064453125,1146.414306640625 1919.3489379882812,1037.1432495117188" style="fill:#423743;stroke:#423743;"></polygon><polygon stroke-linejoin="round" stroke-miterlimit="1" stroke-width="1" points="1919.3489379882812,934.3855895996094 1777.91064453125,1013.31494140625 1919.3489379882812,1037.1432495117188" style="fill:#423844;stroke:#423844;"></polygon><polygon stroke-linejoin="round" stroke-miterlimit="1" stroke-width="1" points="1777.91064453125,875.9828491210938 1777.91064453125,1013.31494140625 1919.3489379882812,934.3855895996094" style="fill:#271519;stroke:#271519;"></polygon><polygon stroke-linejoin="round" stroke-miterlimit="1" stroke-width="1" points="1919.3489379882812,751.0836944580078 1777.91064453125,875.9828491210938 1919.3489379882812,934.3855895996094" style="fill:#28161b;stroke:#28161b;"></polygon><polygon stroke-linejoin="round" stroke-miterlimit="1" stroke-width="1" points="1777.91064453125,824.6513061523438 1777.91064453125,875.9828491210938 1919.3489379882812,751.0836944580078" style="fill:#5f5b70;stroke:#5f5b70;"></polygon><polygon stroke-linejoin="round" stroke-miterlimit="1" stroke-width="1" points="1919.3489379882812,618.5331268310547 1777.91064453125,824.6513061523438 1919.3489379882812,751.0836944580078" style="fill:#372a32;stroke:#372a32;"></polygon><polygon stroke-linejoin="round" stroke-miterlimit="1" stroke-width="1" points="1777.91064453125,637.1185150146484 1777.91064453125,824.6513061523438 1919.3489379882812,618.5331268310547" style="fill:#483e4c;stroke:#483e4c;"></polygon><polygon stroke-linejoin="round" stroke-miterlimit="1" stroke-width="1" points="1919.3489379882812,551.5006055831909 1777.91064453125,637.1185150146484 1919.3489379882812,618.5331268310547" style="fill:#413641;stroke:#413641;"></polygon><polygon stroke-linejoin="round" stroke-miterlimit="1" stroke-width="1" points="1777.91064453125,512.107255935669 1777.91064453125,637.1185150146484 1919.3489379882812,551.5006055831909" style="fill:#3d303b;stroke:#3d303b;"></polygon><polygon stroke-linejoin="round" stroke-miterlimit="1" stroke-width="1" points="1919.3489379882812,359.2754211425781 1777.91064453125,512.107255935669 1919.3489379882812,551.5006055831909" style="fill:#392c35;stroke:#392c35;"></polygon><polygon stroke-linejoin="round" stroke-miterlimit="1" stroke-width="1" points="1777.91064453125,368.4834899902344 1777.91064453125,512.107255935669 1919.3489379882812,359.2754211425781" style="fill:#3f333e;stroke:#3f333e;"></polygon><polygon stroke-linejoin="round" stroke-miterlimit="1" stroke-width="1" points="1919.3489379882812,333.5298767089844 1777.91064453125,368.4834899902344 1919.3489379882812,359.2754211425781" style="fill:#3b2f39;stroke:#3b2f39;"></polygon><polygon stroke-linejoin="round" stroke-miterlimit="1" stroke-width="1" points="1777.91064453125,318.8381652832031 1777.91064453125,368.4834899902344 1919.3489379882812,333.5298767089844" style="fill:#403440;stroke:#403440;"></polygon><polygon stroke-linejoin="round" stroke-miterlimit="1" stroke-width="1" points="1919.3489379882812,187.6953125 1777.91064453125,318.8381652832031 1919.3489379882812,333.5298767089844" style="fill:#33242c;stroke:#33242c;"></polygon><polygon stroke-linejoin="round" stroke-miterlimit="1" stroke-width="1" points="1777.91064453125,150.04998779296875 1777.91064453125,318.8381652832031 1919.3489379882812,187.6953125" style="fill:#33252d;stroke:#33252d;"></polygon><polygon stroke-linejoin="round" stroke-miterlimit="1" stroke-width="1" points="1919.3489379882812,-29.0430908203125 1777.91064453125,150.04998779296875 1919.3489379882812,187.6953125" style="fill:#3b2f39;stroke:#3b2f39;"></polygon><polygon stroke-linejoin="round" stroke-miterlimit="1" stroke-width="1" points="1777.91064453125,-13.279541015625 1777.91064453125,150.04998779296875 1919.3489379882812,-29.0430908203125" style="fill:#3c303a;stroke:#3c303a;"></polygon><polygon stroke-linejoin="round" stroke-miterlimit="1" stroke-width="1" points="1919.3489379882812,-56.2060546875 1777.91064453125,-13.279541015625 1919.3489379882812,-29.0430908203125" style="fill:#3e333e;stroke:#3e333e;"></polygon><polygon stroke-linejoin="round" stroke-miterlimit="1" stroke-width="1" points="1777.91064453125,-141.8978271484375 1777.91064453125,-13.279541015625 1919.3489379882812,-56.2060546875" style="fill:#413642;stroke:#413642;"></polygon><polygon stroke-linejoin="round" stroke-miterlimit="1" stroke-width="1" points="1777.91064453125,1013.31494140625 1636.4723510742188,1179.9067993164062 1777.91064453125,1146.414306640625" style="fill:#4a414f;stroke:#4a414f;"></polygon><polygon stroke-linejoin="round" stroke-miterlimit="1" stroke-width="1" points="1636.4723510742188,1007.89208984375 1636.4723510742188,1179.9067993164062 1777.91064453125,1013.31494140625" style="fill:#3b2f39;stroke:#3b2f39;"></polygon><polygon stroke-linejoin="round" stroke-miterlimit="1" stroke-width="1" points="1777.91064453125,875.9828491210938 1636.4723510742188,1007.89208984375 1777.91064453125,1013.31494140625" style="fill:#312229;stroke:#312229;"></polygon><polygon stroke-linejoin="round" stroke-miterlimit="1" stroke-width="1" points="1636.4723510742188,875.9149169921875 1636.4723510742188,1007.89208984375 1777.91064453125,875.9828491210938" style="fill:#463c49;stroke:#463c49;"></polygon><polygon stroke-linejoin="round" stroke-miterlimit="1" stroke-width="1" points="1777.91064453125,824.6513061523438 1636.4723510742188,875.9149169921875 1777.91064453125,875.9828491210938" style="fill:#5b576b;stroke:#5b576b;"></polygon><polygon stroke-linejoin="round" stroke-miterlimit="1" stroke-width="1" points="1636.4723510742188,848.6653137207031 1636.4723510742188,875.9149169921875 1777.91064453125,824.6513061523438" style="fill:#271519;stroke:#271519;"></polygon><polygon stroke-linejoin="round" stroke-miterlimit="1" stroke-width="1" points="1777.91064453125,637.1185150146484 1636.4723510742188,848.6653137207031 1777.91064453125,824.6513061523438" style="fill:#32232b;stroke:#32232b;"></polygon><polygon stroke-linejoin="round" stroke-miterlimit="1" stroke-width="1" points="1636.4723510742188,629.2384490966797 1636.4723510742188,848.6653137207031 1777.91064453125,637.1185150146484" style="fill:#302128;stroke:#302128;"></polygon><polygon stroke-linejoin="round" stroke-miterlimit="1" stroke-width="1" points="1777.91064453125,512.107255935669 1636.4723510742188,629.2384490966797 1777.91064453125,637.1185150146484" style="fill:#2b1a1f;stroke:#2b1a1f;"></polygon><polygon stroke-linejoin="round" stroke-miterlimit="1" stroke-width="1" points="1636.4723510742188,487.3573455810547 1636.4723510742188,629.2384490966797 1777.91064453125,512.107255935669" style="fill:#4e4655;stroke:#4e4655;"></polygon><polygon stroke-linejoin="round" stroke-miterlimit="1" stroke-width="1" points="1777.91064453125,368.4834899902344 1636.4723510742188,487.3573455810547 1777.91064453125,512.107255935669" style="fill:#4c4352;stroke:#4c4352;"></polygon><polygon stroke-linejoin="round" stroke-miterlimit="1" stroke-width="1" points="1636.4723510742188,403.1949462890625 1636.4723510742188,487.3573455810547 1777.91064453125,368.4834899902344" style="fill:#3c2f3a;stroke:#3c2f3a;"></polygon><polygon stroke-linejoin="round" stroke-miterlimit="1" stroke-width="1" points="1777.91064453125,318.8381652832031 1636.4723510742188,403.1949462890625 1777.91064453125,368.4834899902344" style="fill:#34252d;stroke:#34252d;"></polygon><polygon stroke-linejoin="round" stroke-miterlimit="1" stroke-width="1" points="1636.4723510742188,312.76991271972656 1636.4723510742188,403.1949462890625 1777.91064453125,318.8381652832031" style="fill:#463d4a;stroke:#463d4a;"></polygon><polygon stroke-linejoin="round" stroke-miterlimit="1" stroke-width="1" points="1777.91064453125,150.04998779296875 1636.4723510742188,312.76991271972656 1777.91064453125,318.8381652832031" style="fill:#3f333e;stroke:#3f333e;"></polygon><polygon stroke-linejoin="round" stroke-miterlimit="1" stroke-width="1" points="1636.4723510742188,142.02899169921875 1636.4723510742188,312.76991271972656 1777.91064453125,150.04998779296875" style="fill:#3c2f39;stroke:#3c2f39;"></polygon><polygon stroke-linejoin="round" stroke-miterlimit="1" stroke-width="1" points="1777.91064453125,-13.279541015625 1636.4723510742188,142.02899169921875 1777.91064453125,150.04998779296875" style="fill:#3e323d;stroke:#3e323d;"></polygon><polygon stroke-linejoin="round" stroke-miterlimit="1" stroke-width="1" points="1636.4723510742188,-0.72113037109375 1636.4723510742188,142.02899169921875 1777.91064453125,-13.279541015625" style="fill:#3b2e38;stroke:#3b2e38;"></polygon><polygon stroke-linejoin="round" stroke-miterlimit="1" stroke-width="1" points="1777.91064453125,-141.8978271484375 1636.4723510742188,-0.72113037109375 1777.91064453125,-13.279541015625" style="fill:#3e323d;stroke:#3e323d;"></polygon><polygon stroke-linejoin="round" stroke-miterlimit="1" stroke-width="1" points="1636.4723510742188,-56.9991455078125 1636.4723510742188,-0.72113037109375 1777.91064453125,-141.8978271484375" style="fill:#423844;stroke:#423844;"></polygon><polygon stroke-linejoin="round" stroke-miterlimit="1" stroke-width="1" points="1636.4723510742188,1007.89208984375 1495.0340576171875,1211.1529541015625 1636.4723510742188,1179.9067993164062" style="fill:#34252d;stroke:#34252d;"></polygon><polygon stroke-linejoin="round" stroke-miterlimit="1" stroke-width="1" points="1495.0340576171875,1089.3822631835938 1495.0340576171875,1211.1529541015625 1636.4723510742188,1007.89208984375" style="fill:#565062;stroke:#565062;"></polygon><polygon stroke-linejoin="round" stroke-miterlimit="1" stroke-width="1" points="1636.4723510742188,875.9149169921875 1495.0340576171875,1089.3822631835938 1636.4723510742188,1007.89208984375" style="fill:#403440;stroke:#403440;"></polygon><polygon stroke-linejoin="round" stroke-miterlimit="1" stroke-width="1" points="1495.0340576171875,935.9846496582031 1495.0340576171875,1089.3822631835938 1636.4723510742188,875.9149169921875" style="fill:#29181d;stroke:#29181d;"></polygon><polygon stroke-linejoin="round" stroke-miterlimit="1" stroke-width="1" points="1636.4723510742188,848.6653137207031 1495.0340576171875,935.9846496582031 1636.4723510742188,875.9149169921875" style="fill:#271519;stroke:#271519;"></polygon><polygon stroke-linejoin="round" stroke-miterlimit="1" stroke-width="1" points="1495.0340576171875,746.9439392089844 1495.0340576171875,935.9846496582031 1636.4723510742188,848.6653137207031" style="fill:#4e4756;stroke:#4e4756;"></polygon><polygon stroke-linejoin="round" stroke-miterlimit="1" stroke-width="1" points="1636.4723510742188,629.2384490966797 1495.0340576171875,746.9439392089844 1636.4723510742188,848.6653137207031" style="fill:#4f4858;stroke:#4f4858;"></polygon><polygon stroke-linejoin="round" stroke-miterlimit="1" stroke-width="1" points="1495.0340576171875,619.2200469970703 1495.0340576171875,746.9439392089844 1636.4723510742188,629.2384490966797" style="fill:#4d4555;stroke:#4d4555;"></polygon><polygon stroke-linejoin="round" stroke-miterlimit="1" stroke-width="1" points="1636.4723510742188,487.3573455810547 1495.0340576171875,619.2200469970703 1636.4723510742188,629.2384490966797" style="fill:#524c5d;stroke:#524c5d;"></polygon><polygon stroke-linejoin="round" stroke-miterlimit="1" stroke-width="1" points="1495.0340576171875,556.9697437286377 1495.0340576171875,619.2200469970703 1636.4723510742188,487.3573455810547" style="fill:#443946;stroke:#443946;"></polygon><polygon stroke-linejoin="round" stroke-miterlimit="1" stroke-width="1" points="1636.4723510742188,403.1949462890625 1495.0340576171875,556.9697437286377 1636.4723510742188,487.3573455810547" style="fill:#3e333e;stroke:#3e333e;"></polygon><polygon stroke-linejoin="round" stroke-miterlimit="1" stroke-width="1" points="1495.0340576171875,389.0985870361328 1495.0340576171875,556.9697437286377 1636.4723510742188,403.1949462890625" style="fill:#3f333e;stroke:#3f333e;"></polygon><polygon stroke-linejoin="round" stroke-miterlimit="1" stroke-width="1" points="1636.4723510742188,312.76991271972656 1495.0340576171875,389.0985870361328 1636.4723510742188,403.1949462890625" style="fill:#3c303b;stroke:#3c303b;"></polygon><polygon stroke-linejoin="round" stroke-miterlimit="1" stroke-width="1" points="1495.0340576171875,249.14138793945312 1495.0340576171875,389.0985870361328 1636.4723510742188,312.76991271972656" style="fill:#433844;stroke:#433844;"></polygon><polygon stroke-linejoin="round" stroke-miterlimit="1" stroke-width="1" points="1636.4723510742188,142.02899169921875 1495.0340576171875,249.14138793945312 1636.4723510742188,312.76991271972656" style="fill:#392c35;stroke:#392c35;"></polygon><polygon stroke-linejoin="round" stroke-miterlimit="1" stroke-width="1" points="1495.0340576171875,100.82095336914062 1495.0340576171875,249.14138793945312 1636.4723510742188,142.02899169921875" style="fill:#372a33;stroke:#372a33;"></polygon><polygon stroke-linejoin="round" stroke-miterlimit="1" stroke-width="1" points="1636.4723510742188,-0.72113037109375 1495.0340576171875,100.82095336914062 1636.4723510742188,142.02899169921875" style="fill:#3d313c;stroke:#3d313c;"></polygon><polygon stroke-linejoin="round" stroke-miterlimit="1" stroke-width="1" points="1495.0340576171875,10.61431884765625 1495.0340576171875,100.82095336914062 1636.4723510742188,-0.72113037109375" style="fill:#3d313b;stroke:#3d313b;"></polygon><polygon stroke-linejoin="round" stroke-miterlimit="1" stroke-width="1" points="1636.4723510742188,-56.9991455078125 1495.0340576171875,10.61431884765625 1636.4723510742188,-0.72113037109375" style="fill:#473e4b;stroke:#473e4b;"></polygon><polygon stroke-linejoin="round" stroke-miterlimit="1" stroke-width="1" points="1495.0340576171875,-74.52081298828125 1495.0340576171875,10.61431884765625 1636.4723510742188,-56.9991455078125" style="fill:#4b4251;stroke:#4b4251;"></polygon><polygon stroke-linejoin="round" stroke-miterlimit="1" stroke-width="1" points="1495.0340576171875,1089.3822631835938 1353.5957336425781,1211.770751953125 1495.0340576171875,1211.1529541015625" style="fill:#524b5c;stroke:#524b5c;"></polygon><polygon stroke-linejoin="round" stroke-miterlimit="1" stroke-width="1" points="1353.5957336425781,1051.1717529296875 1353.5957336425781,1211.770751953125 1495.0340576171875,1089.3822631835938" style="fill:#382b34;stroke:#382b34;"></polygon><polygon stroke-linejoin="round" stroke-miterlimit="1" stroke-width="1" points="1495.0340576171875,935.9846496582031 1353.5957336425781,1051.1717529296875 1495.0340576171875,1089.3822631835938" style="fill:#2f1f26;stroke:#2f1f26;"></polygon><polygon stroke-linejoin="round" stroke-miterlimit="1" stroke-width="1" points="1353.5957336425781,921.0316467285156 1353.5957336425781,1051.1717529296875 1495.0340576171875,935.9846496582031" style="fill:#4d4655;stroke:#4d4655;"></polygon><polygon stroke-linejoin="round" stroke-miterlimit="1" stroke-width="1" points="1495.0340576171875,746.9439392089844 1353.5957336425781,921.0316467285156 1495.0340576171875,935.9846496582031" style="fill:#534c5d;stroke:#534c5d;"></polygon><polygon stroke-linejoin="round" stroke-miterlimit="1" stroke-width="1" points="1353.5957336425781,834.9964904785156 1353.5957336425781,921.0316467285156 1495.0340576171875,746.9439392089844" style="fill:#271519;stroke:#271519;"></polygon><polygon stroke-linejoin="round" stroke-miterlimit="1" stroke-width="1" points="1495.0340576171875,619.2200469970703 1353.5957336425781,834.9964904785156 1495.0340576171875,746.9439392089844" style="fill:#33242c;stroke:#33242c;"></polygon><polygon stroke-linejoin="round" stroke-miterlimit="1" stroke-width="1" points="1353.5957336425781,696.0088500976562 1353.5957336425781,834.9964904785156 1495.0340576171875,619.2200469970703" style="fill:#626075;stroke:#626075;"></polygon><polygon stroke-linejoin="round" stroke-miterlimit="1" stroke-width="1" points="1495.0340576171875,556.9697437286377 1353.5957336425781,696.0088500976562 1495.0340576171875,619.2200469970703" style="fill:#4e4656;stroke:#4e4656;"></polygon><polygon stroke-linejoin="round" stroke-miterlimit="1" stroke-width="1" points="1353.5957336425781,540.6424208283424 1353.5957336425781,696.0088500976562 1495.0340576171875,556.9697437286377" style="fill:#504959;stroke:#504959;"></polygon><polygon stroke-linejoin="round" stroke-miterlimit="1" stroke-width="1" points="1495.0340576171875,389.0985870361328 1353.5957336425781,540.6424208283424 1495.0340576171875,556.9697437286377" style="fill:#4f4757;stroke:#4f4757;"></polygon><polygon stroke-linejoin="round" stroke-miterlimit="1" stroke-width="1" points="1353.5957336425781,462.5296630859375 1353.5957336425781,540.6424208283424 1495.0340576171875,389.0985870361328" style="fill:#6f6f88;stroke:#6f6f88;"></polygon><polygon stroke-linejoin="round" stroke-miterlimit="1" stroke-width="1" points="1495.0340576171875,249.14138793945312 1353.5957336425781,462.5296630859375 1495.0340576171875,389.0985870361328" style="fill:#636076;stroke:#636076;"></polygon><polygon stroke-linejoin="round" stroke-miterlimit="1" stroke-width="1" points="1353.5957336425781,298.7905731201172 1353.5957336425781,462.5296630859375 1495.0340576171875,249.14138793945312" style="fill:#67657c;stroke:#67657c;"></polygon><polygon stroke-linejoin="round" stroke-miterlimit="1" stroke-width="1" points="1495.0340576171875,100.82095336914062 1353.5957336425781,298.7905731201172 1495.0340576171875,249.14138793945312" style="fill:#5a5669;stroke:#5a5669;"></polygon><polygon stroke-linejoin="round" stroke-miterlimit="1" stroke-width="1" points="1353.5957336425781,200.63357543945312 1353.5957336425781,298.7905731201172 1495.0340576171875,100.82095336914062" style="fill:#4d4554;stroke:#4d4554;"></polygon><polygon stroke-linejoin="round" stroke-miterlimit="1" stroke-width="1" points="1495.0340576171875,10.61431884765625 1353.5957336425781,200.63357543945312 1495.0340576171875,100.82095336914062" style="fill:#443a46;stroke:#443a46;"></polygon><polygon stroke-linejoin="round" stroke-miterlimit="1" stroke-width="1" points="1353.5957336425781,40.24066162109375 1353.5957336425781,200.63357543945312 1495.0340576171875,10.61431884765625" style="fill:#3d323c;stroke:#3d323c;"></polygon><polygon stroke-linejoin="round" stroke-miterlimit="1" stroke-width="1" points="1495.0340576171875,-74.52081298828125 1353.5957336425781,40.24066162109375 1495.0340576171875,10.61431884765625" style="fill:#3d313c;stroke:#3d313c;"></polygon><polygon stroke-linejoin="round" stroke-miterlimit="1" stroke-width="1" points="1353.5957336425781,-55.17169189453125 1353.5957336425781,40.24066162109375 1495.0340576171875,-74.52081298828125" style="fill:#372932;stroke:#372932;"></polygon><polygon stroke-linejoin="round" stroke-miterlimit="1" stroke-width="1" points="1353.5957336425781,1051.1717529296875 1212.157455444336,1177.146240234375 1353.5957336425781,1211.770751953125" style="fill:#3b2f39;stroke:#3b2f39;"></polygon><polygon stroke-linejoin="round" stroke-miterlimit="1" stroke-width="1" points="1212.157455444336,1083.4910888671875 1212.157455444336,1177.146240234375 1353.5957336425781,1051.1717529296875" style="fill:#49404e;stroke:#49404e;"></polygon><polygon stroke-linejoin="round" stroke-miterlimit="1" stroke-width="1" points="1353.5957336425781,921.0316467285156 1212.157455444336,1083.4910888671875 1353.5957336425781,1051.1717529296875" style="fill:#4b4351;stroke:#4b4351;"></polygon><polygon stroke-linejoin="round" stroke-miterlimit="1" stroke-width="1" points="1212.157455444336,898.1670532226562 1212.157455444336,1083.4910888671875 1353.5957336425781,921.0316467285156" style="fill:#33252d;stroke:#33252d;"></polygon><polygon stroke-linejoin="round" stroke-miterlimit="1" stroke-width="1" points="1353.5957336425781,834.9964904785156 1212.157455444336,898.1670532226562 1353.5957336425781,921.0316467285156" style="fill:#271519;stroke:#271519;"></polygon><polygon stroke-linejoin="round" stroke-miterlimit="1" stroke-width="1" points="1212.157455444336,747.4205932617188 1212.157455444336,898.1670532226562 1353.5957336425781,834.9964904785156" style="fill:#595567;stroke:#595567;"></polygon><polygon stroke-linejoin="round" stroke-miterlimit="1" stroke-width="1" points="1353.5957336425781,696.0088500976562 1212.157455444336,747.4205932617188 1353.5957336425781,834.9964904785156" style="fill:#605d72;stroke:#605d72;"></polygon><polygon stroke-linejoin="round" stroke-miterlimit="1" stroke-width="1" points="1212.157455444336,646.3649978637695 1212.157455444336,747.4205932617188 1353.5957336425781,696.0088500976562" style="fill:#585366;stroke:#585366;"></polygon><polygon stroke-linejoin="round" stroke-miterlimit="1" stroke-width="1" points="1353.5957336425781,540.6424208283424 1212.157455444336,646.3649978637695 1353.5957336425781,696.0088500976562" style="fill:#585365;stroke:#585365;"></polygon><polygon stroke-linejoin="round" stroke-miterlimit="1" stroke-width="1" points="1212.157455444336,589.7571983337402 1212.157455444336,646.3649978637695 1353.5957336425781,540.6424208283424" style="fill:#2e1e24;stroke:#2e1e24;"></polygon><polygon stroke-linejoin="round" stroke-miterlimit="1" stroke-width="1" points="1353.5957336425781,462.5296630859375 1212.157455444336,589.7571983337402 1353.5957336425781,540.6424208283424" style="fill:#5f5b6f;stroke:#5f5b6f;"></polygon><polygon stroke-linejoin="round" stroke-miterlimit="1" stroke-width="1" points="1212.157455444336,357.53399658203125 1212.157455444336,589.7571983337402 1353.5957336425781,462.5296630859375" style="fill:#6a6981;stroke:#6a6981;"></polygon><polygon stroke-linejoin="round" stroke-miterlimit="1" stroke-width="1" points="1353.5957336425781,298.7905731201172 1212.157455444336,357.53399658203125 1353.5957336425781,462.5296630859375" style="fill:#656379;stroke:#656379;"></polygon><polygon stroke-linejoin="round" stroke-miterlimit="1" stroke-width="1" points="1212.157455444336,296.8749694824219 1212.157455444336,357.53399658203125 1353.5957336425781,298.7905731201172" style="fill:#6a6981;stroke:#6a6981;"></polygon><polygon stroke-linejoin="round" stroke-miterlimit="1" stroke-width="1" points="1353.5957336425781,200.63357543945312 1212.157455444336,296.8749694824219 1353.5957336425781,298.7905731201172" style="fill:#595466;stroke:#595466;"></polygon><polygon stroke-linejoin="round" stroke-miterlimit="1" stroke-width="1" points="1212.157455444336,202.21725463867188 1212.157455444336,296.8749694824219 1353.5957336425781,200.63357543945312" style="fill:#5b576a;stroke:#5b576a;"></polygon><polygon stroke-linejoin="round" stroke-miterlimit="1" stroke-width="1" points="1353.5957336425781,40.24066162109375 1212.157455444336,202.21725463867188 1353.5957336425781,200.63357543945312" style="fill:#504858;stroke:#504858;"></polygon><polygon stroke-linejoin="round" stroke-miterlimit="1" stroke-width="1" points="1212.157455444336,10.38885498046875 1212.157455444336,202.21725463867188 1353.5957336425781,40.24066162109375" style="fill:#4a414f;stroke:#4a414f;"></polygon><polygon stroke-linejoin="round" stroke-miterlimit="1" stroke-width="1" points="1353.5957336425781,-55.17169189453125 1212.157455444336,10.38885498046875 1353.5957336425781,40.24066162109375" style="fill:#40343f;stroke:#40343f;"></polygon><polygon stroke-linejoin="round" stroke-miterlimit="1" stroke-width="1" points="1212.157455444336,-70.061279296875 1212.157455444336,10.38885498046875 1353.5957336425781,-55.17169189453125" style="fill:#49414f;stroke:#49414f;"></polygon><polygon stroke-linejoin="round" stroke-miterlimit="1" stroke-width="1" points="1212.157455444336,1083.4910888671875 1070.7191467285156,1144.9150390625 1212.157455444336,1177.146240234375" style="fill:#453a47;stroke:#453a47;"></polygon><polygon stroke-linejoin="round" stroke-miterlimit="1" stroke-width="1" points="1070.7191467285156,1107.531494140625 1070.7191467285156,1144.9150390625 1212.157455444336,1083.4910888671875" style="fill:#443a46;stroke:#443a46;"></polygon><polygon stroke-linejoin="round" stroke-miterlimit="1" stroke-width="1" points="1212.157455444336,898.1670532226562 1070.7191467285156,1107.531494140625 1212.157455444336,1083.4910888671875" style="fill:#32242b;stroke:#32242b;"></polygon><polygon stroke-linejoin="round" stroke-miterlimit="1" stroke-width="1" points="1070.7191467285156,878.4419555664062 1070.7191467285156,1107.531494140625 1212.157455444336,898.1670532226562" style="fill:#413642;stroke:#413642;"></polygon><polygon stroke-linejoin="round" stroke-miterlimit="1" stroke-width="1" points="1212.157455444336,747.4205932617188 1070.7191467285156,878.4419555664062 1212.157455444336,898.1670532226562" style="fill:#585265;stroke:#585265;"></polygon><polygon stroke-linejoin="round" stroke-miterlimit="1" stroke-width="1" points="1070.7191467285156,774.1026611328125 1070.7191467285156,878.4419555664062 1212.157455444336,747.4205932617188" style="fill:#5c586c;stroke:#5c586c;"></polygon><polygon stroke-linejoin="round" stroke-miterlimit="1" stroke-width="1" points="1212.157455444336,646.3649978637695 1070.7191467285156,774.1026611328125 1212.157455444336,747.4205932617188" style="fill:#585366;stroke:#585366;"></polygon><polygon stroke-linejoin="round" stroke-miterlimit="1" stroke-width="1" points="1070.7191467285156,690.0884704589844 1070.7191467285156,774.1026611328125 1212.157455444336,646.3649978637695" style="fill:#585265;stroke:#585265;"></polygon><polygon stroke-linejoin="round" stroke-miterlimit="1" stroke-width="1" points="1212.157455444336,589.7571983337402 1070.7191467285156,690.0884704589844 1212.157455444336,646.3649978637695" style="fill:#312229;stroke:#312229;"></polygon><polygon stroke-linejoin="round" stroke-miterlimit="1" stroke-width="1" points="1070.7191467285156,586.3930931091309 1070.7191467285156,690.0884704589844 1212.157455444336,589.7571983337402" style="fill:#625f75;stroke:#625f75;"></polygon><polygon stroke-linejoin="round" stroke-miterlimit="1" stroke-width="1" points="1212.157455444336,357.53399658203125 1070.7191467285156,586.3930931091309 1212.157455444336,589.7571983337402" style="fill:#8a92b3;stroke:#8a92b3;"></polygon><polygon stroke-linejoin="round" stroke-miterlimit="1" stroke-width="1" points="1070.7191467285156,460.2819366455078 1070.7191467285156,586.3930931091309 1212.157455444336,357.53399658203125" style="fill:#a5b4dd;stroke:#a5b4dd;"></polygon><polygon stroke-linejoin="round" stroke-miterlimit="1" stroke-width="1" points="1212.157455444336,296.8749694824219 1070.7191467285156,460.2819366455078 1212.157455444336,357.53399658203125" style="fill:#8c94b6;stroke:#8c94b6;"></polygon><polygon stroke-linejoin="round" stroke-miterlimit="1" stroke-width="1" points="1070.7191467285156,273.6076354980469 1070.7191467285156,460.2819366455078 1212.157455444336,296.8749694824219" style="fill:#9eaad1;stroke:#9eaad1;"></polygon><polygon stroke-linejoin="round" stroke-miterlimit="1" stroke-width="1" points="1212.157455444336,202.21725463867188 1070.7191467285156,273.6076354980469 1212.157455444336,296.8749694824219" style="fill:#7a7e9b;stroke:#7a7e9b;"></polygon><polygon stroke-linejoin="round" stroke-miterlimit="1" stroke-width="1" points="1070.7191467285156,183.40707397460938 1070.7191467285156,273.6076354980469 1212.157455444336,202.21725463867188" style="fill:#7e83a0;stroke:#7e83a0;"></polygon><polygon stroke-linejoin="round" stroke-miterlimit="1" stroke-width="1" points="1212.157455444336,10.38885498046875 1070.7191467285156,183.40707397460938 1212.157455444336,202.21725463867188" style="fill:#504959;stroke:#504959;"></polygon><polygon stroke-linejoin="round" stroke-miterlimit="1" stroke-width="1" points="1070.7191467285156,-15.8114013671875 1070.7191467285156,183.40707397460938 1212.157455444336,10.38885498046875" style="fill:#554f61;stroke:#554f61;"></polygon><polygon stroke-linejoin="round" stroke-miterlimit="1" stroke-width="1" points="1212.157455444336,-70.061279296875 1070.7191467285156,-15.8114013671875 1212.157455444336,10.38885498046875" style="fill:#463d4a;stroke:#463d4a;"></polygon><polygon stroke-linejoin="round" stroke-miterlimit="1" stroke-width="1" points="1070.7191467285156,-97.37677001953125 1070.7191467285156,-15.8114013671875 1212.157455444336,-70.061279296875" style="fill:#34262e;stroke:#34262e;"></polygon><polygon stroke-linejoin="round" stroke-miterlimit="1" stroke-width="1" points="1070.7191467285156,1107.531494140625 929.2808532714844,1238.63330078125 1070.7191467285156,1144.9150390625" style="fill:#413642;stroke:#413642;"></polygon><polygon stroke-linejoin="round" stroke-miterlimit="1" stroke-width="1" points="929.2808532714844,1006.1091918945312 929.2808532714844,1238.63330078125 1070.7191467285156,1107.531494140625" style="fill:#3c303a;stroke:#3c303a;"></polygon><polygon stroke-linejoin="round" stroke-miterlimit="1" stroke-width="1" points="1070.7191467285156,878.4419555664062 929.2808532714844,1006.1091918945312 1070.7191467285156,1107.531494140625" style="fill:#3f333e;stroke:#3f333e;"></polygon><polygon stroke-linejoin="round" stroke-miterlimit="1" stroke-width="1" points="929.2808532714844,936.0392456054688 929.2808532714844,1006.1091918945312 1070.7191467285156,878.4419555664062" style="fill:#3d313c;stroke:#3d313c;"></polygon><polygon stroke-linejoin="round" stroke-miterlimit="1" stroke-width="1" points="1070.7191467285156,774.1026611328125 929.2808532714844,936.0392456054688 1070.7191467285156,878.4419555664062" style="fill:#544e5f;stroke:#544e5f;"></polygon><polygon stroke-linejoin="round" stroke-miterlimit="1" stroke-width="1" points="929.2808532714844,822.3744812011719 929.2808532714844,936.0392456054688 1070.7191467285156,774.1026611328125" style="fill:#4b4351;stroke:#4b4351;"></polygon><polygon stroke-linejoin="round" stroke-miterlimit="1" stroke-width="1" points="1070.7191467285156,690.0884704589844 929.2808532714844,822.3744812011719 1070.7191467285156,774.1026611328125" style="fill:#504858;stroke:#504858;"></polygon><polygon stroke-linejoin="round" stroke-miterlimit="1" stroke-width="1" points="929.2808532714844,643.0430603027344 929.2808532714844,822.3744812011719 1070.7191467285156,690.0884704589844" style="fill:#4b4251;stroke:#4b4251;"></polygon><polygon stroke-linejoin="round" stroke-miterlimit="1" stroke-width="1" points="1070.7191467285156,586.3930931091309 929.2808532714844,643.0430603027344 1070.7191467285156,690.0884704589844" style="fill:#5e5a6e;stroke:#5e5a6e;"></polygon><polygon stroke-linejoin="round" stroke-miterlimit="1" stroke-width="1" points="929.2808532714844,492.4371109008789 929.2808532714844,643.0430603027344 1070.7191467285156,586.3930931091309" style="fill:#6e6f88;stroke:#6e6f88;"></polygon><polygon stroke-linejoin="round" stroke-miterlimit="1" stroke-width="1" points="1070.7191467285156,460.2819366455078 929.2808532714844,492.4371109008789 1070.7191467285156,586.3930931091309" style="fill:#8f99bb;stroke:#8f99bb;"></polygon><polygon stroke-linejoin="round" stroke-miterlimit="1" stroke-width="1" points="929.2808532714844,441.4610366821289 929.2808532714844,492.4371109008789 1070.7191467285156,460.2819366455078" style="fill:#9099bc;stroke:#9099bc;"></polygon><polygon stroke-linejoin="round" stroke-miterlimit="1" stroke-width="1" points="1070.7191467285156,273.6076354980469 929.2808532714844,441.4610366821289 1070.7191467285156,460.2819366455078" style="fill:#a4b3db;stroke:#a4b3db;"></polygon><polygon stroke-linejoin="round" stroke-miterlimit="1" stroke-width="1" points="929.2808532714844,269.3998107910156 929.2808532714844,441.4610366821289 1070.7191467285156,273.6076354980469" style="fill:#8085a3;stroke:#8085a3;"></polygon><polygon stroke-linejoin="round" stroke-miterlimit="1" stroke-width="1" points="1070.7191467285156,183.40707397460938 929.2808532714844,269.3998107910156 1070.7191467285156,273.6076354980469" style="fill:#8388a7;stroke:#8388a7;"></polygon><polygon stroke-linejoin="round" stroke-miterlimit="1" stroke-width="1" points="929.2808532714844,98.77047729492188 929.2808532714844,269.3998107910156 1070.7191467285156,183.40707397460938" style="fill:#5f5c71;stroke:#5f5c71;"></polygon><polygon stroke-linejoin="round" stroke-miterlimit="1" stroke-width="1" points="1070.7191467285156,-15.8114013671875 929.2808532714844,98.77047729492188 1070.7191467285156,183.40707397460938" style="fill:#575264;stroke:#575264;"></polygon><polygon stroke-linejoin="round" stroke-miterlimit="1" stroke-width="1" points="929.2808532714844,-27.9249267578125 929.2808532714844,98.77047729492188 1070.7191467285156,-15.8114013671875" style="fill:#575163;stroke:#575163;"></polygon><polygon stroke-linejoin="round" stroke-miterlimit="1" stroke-width="1" points="1070.7191467285156,-97.37677001953125 929.2808532714844,-27.9249267578125 1070.7191467285156,-15.8114013671875" style="fill:#34262e;stroke:#34262e;"></polygon><polygon stroke-linejoin="round" stroke-miterlimit="1" stroke-width="1" points="929.2808532714844,-106.00787353515625 929.2808532714844,-27.9249267578125 1070.7191467285156,-97.37677001953125" style="fill:#32222a;stroke:#32222a;"></polygon><polygon stroke-linejoin="round" stroke-miterlimit="1" stroke-width="1" points="929.2808532714844,1006.1091918945312 787.8425445556641,1209.4788208007812 929.2808532714844,1238.63330078125" style="fill:#3d313c;stroke:#3d313c;"></polygon><polygon stroke-linejoin="round" stroke-miterlimit="1" stroke-width="1" points="787.8425445556641,1006.6478881835938 787.8425445556641,1209.4788208007812 929.2808532714844,1006.1091918945312" style="fill:#372a33;stroke:#372a33;"></polygon><polygon stroke-linejoin="round" stroke-miterlimit="1" stroke-width="1" points="929.2808532714844,936.0392456054688 787.8425445556641,1006.6478881835938 929.2808532714844,1006.1091918945312" style="fill:#423844;stroke:#423844;"></polygon><polygon stroke-linejoin="round" stroke-miterlimit="1" stroke-width="1" points="787.8425445556641,875.9193115234375 787.8425445556641,1006.6478881835938 929.2808532714844,936.0392456054688" style="fill:#473e4b;stroke:#473e4b;"></polygon><polygon stroke-linejoin="round" stroke-miterlimit="1" stroke-width="1" points="929.2808532714844,822.3744812011719 787.8425445556641,875.9193115234375 929.2808532714844,936.0392456054688" style="fill:#4d4655;stroke:#4d4655;"></polygon><polygon stroke-linejoin="round" stroke-miterlimit="1" stroke-width="1" points="787.8425445556641,851.8187866210938 787.8425445556641,875.9193115234375 929.2808532714844,822.3744812011719" style="fill:#595467;stroke:#595467;"></polygon><polygon stroke-linejoin="round" stroke-miterlimit="1" stroke-width="1" points="929.2808532714844,643.0430603027344 787.8425445556641,851.8187866210938 929.2808532714844,822.3744812011719" style="fill:#473e4c;stroke:#473e4c;"></polygon><polygon stroke-linejoin="round" stroke-miterlimit="1" stroke-width="1" points="787.8425445556641,670.0391235351562 787.8425445556641,851.8187866210938 929.2808532714844,643.0430603027344" style="fill:#49404e;stroke:#49404e;"></polygon><polygon stroke-linejoin="round" stroke-miterlimit="1" stroke-width="1" points="929.2808532714844,492.4371109008789 787.8425445556641,670.0391235351562 929.2808532714844,643.0430603027344" style="fill:#554f61;stroke:#554f61;"></polygon><polygon stroke-linejoin="round" stroke-miterlimit="1" stroke-width="1" points="787.8425445556641,494.1763114929199 787.8425445556641,670.0391235351562 929.2808532714844,492.4371109008789" style="fill:#575163;stroke:#575163;"></polygon><polygon stroke-linejoin="round" stroke-miterlimit="1" stroke-width="1" points="929.2808532714844,441.4610366821289 787.8425445556641,494.1763114929199 929.2808532714844,492.4371109008789" style="fill:#6b6b83;stroke:#6b6b83;"></polygon><polygon stroke-linejoin="round" stroke-miterlimit="1" stroke-width="1" points="787.8425445556641,357.67254638671875 787.8425445556641,494.1763114929199 929.2808532714844,441.4610366821289" style="fill:#625f74;stroke:#625f74;"></polygon><polygon stroke-linejoin="round" stroke-miterlimit="1" stroke-width="1" points="929.2808532714844,269.3998107910156 787.8425445556641,357.67254638671875 929.2808532714844,441.4610366821289" style="fill:#66657b;stroke:#66657b;"></polygon><polygon stroke-linejoin="round" stroke-miterlimit="1" stroke-width="1" points="787.8425445556641,310.77191162109375 787.8425445556641,357.67254638671875 929.2808532714844,269.3998107910156" style="fill:#858bab;stroke:#858bab;"></polygon><polygon stroke-linejoin="round" stroke-miterlimit="1" stroke-width="1" points="929.2808532714844,98.77047729492188 787.8425445556641,310.77191162109375 929.2808532714844,269.3998107910156" style="fill:#6b6a82;stroke:#6b6a82;"></polygon><polygon stroke-linejoin="round" stroke-miterlimit="1" stroke-width="1" points="787.8425445556641,114.47158813476562 787.8425445556641,310.77191162109375 929.2808532714844,98.77047729492188" style="fill:#5e5b6f;stroke:#5e5b6f;"></polygon><polygon stroke-linejoin="round" stroke-miterlimit="1" stroke-width="1" points="929.2808532714844,-27.9249267578125 787.8425445556641,114.47158813476562 929.2808532714844,98.77047729492188" style="fill:#615e73;stroke:#615e73;"></polygon><polygon stroke-linejoin="round" stroke-miterlimit="1" stroke-width="1" points="787.8425445556641,73.59957885742188 787.8425445556641,114.47158813476562 929.2808532714844,-27.9249267578125" style="fill:#544e60;stroke:#544e60;"></polygon><polygon stroke-linejoin="round" stroke-miterlimit="1" stroke-width="1" points="929.2808532714844,-106.00787353515625 787.8425445556641,73.59957885742188 929.2808532714844,-27.9249267578125" style="fill:#32232a;stroke:#32232a;"></polygon><polygon stroke-linejoin="round" stroke-miterlimit="1" stroke-width="1" points="787.8425445556641,-108.903076171875 787.8425445556641,73.59957885742188 929.2808532714844,-106.00787353515625" style="fill:#3c303a;stroke:#3c303a;"></polygon><polygon stroke-linejoin="round" stroke-miterlimit="1" stroke-width="1" points="787.8425445556641,1006.6478881835938 646.4042663574219,1147.6493530273438 787.8425445556641,1209.4788208007812" style="fill:#2d1c22;stroke:#2d1c22;"></polygon><polygon stroke-linejoin="round" stroke-miterlimit="1" stroke-width="1" points="646.4042663574219,1026.3595886230469 646.4042663574219,1147.6493530273438 787.8425445556641,1006.6478881835938" style="fill:#32232b;stroke:#32232b;"></polygon><polygon stroke-linejoin="round" stroke-miterlimit="1" stroke-width="1" points="787.8425445556641,875.9193115234375 646.4042663574219,1026.3595886230469 787.8425445556641,1006.6478881835938" style="fill:#34262d;stroke:#34262d;"></polygon><polygon stroke-linejoin="round" stroke-miterlimit="1" stroke-width="1" points="646.4042663574219,930.2982788085938 646.4042663574219,1026.3595886230469 787.8425445556641,875.9193115234375" style="fill:#312229;stroke:#312229;"></polygon><polygon stroke-linejoin="round" stroke-miterlimit="1" stroke-width="1" points="787.8425445556641,851.8187866210938 646.4042663574219,930.2982788085938 787.8425445556641,875.9193115234375" style="fill:#443a47;stroke:#443a47;"></polygon><polygon stroke-linejoin="round" stroke-miterlimit="1" stroke-width="1" points="646.4042663574219,835.9975891113281 646.4042663574219,930.2982788085938 787.8425445556641,851.8187866210938" style="fill:#35262f;stroke:#35262f;"></polygon><polygon stroke-linejoin="round" stroke-miterlimit="1" stroke-width="1" points="787.8425445556641,670.0391235351562 646.4042663574219,835.9975891113281 787.8425445556641,851.8187866210938" style="fill:#4a414f;stroke:#4a414f;"></polygon><polygon stroke-linejoin="round" stroke-miterlimit="1" stroke-width="1" points="646.4042663574219,627.4462585449219 646.4042663574219,835.9975891113281 787.8425445556641,670.0391235351562" style="fill:#4a4150;stroke:#4a4150;"></polygon><polygon stroke-linejoin="round" stroke-miterlimit="1" stroke-width="1" points="787.8425445556641,494.1763114929199 646.4042663574219,627.4462585449219 787.8425445556641,670.0391235351562" style="fill:#473d4b;stroke:#473d4b;"></polygon><polygon stroke-linejoin="round" stroke-miterlimit="1" stroke-width="1" points="646.4042663574219,507.9377861022949 646.4042663574219,627.4462585449219 787.8425445556641,494.1763114929199" style="fill:#3e323d;stroke:#3e323d;"></polygon><polygon stroke-linejoin="round" stroke-miterlimit="1" stroke-width="1" points="787.8425445556641,357.67254638671875 646.4042663574219,507.9377861022949 787.8425445556641,494.1763114929199" style="fill:#433945;stroke:#433945;"></polygon><polygon stroke-linejoin="round" stroke-miterlimit="1" stroke-width="1" points="646.4042663574219,358.8050842285156 646.4042663574219,507.9377861022949 787.8425445556641,357.67254638671875" style="fill:#524c5d;stroke:#524c5d;"></polygon><polygon stroke-linejoin="round" stroke-miterlimit="1" stroke-width="1" points="787.8425445556641,310.77191162109375 646.4042663574219,358.8050842285156 787.8425445556641,357.67254638671875" style="fill:#5b576a;stroke:#5b576a;"></polygon><polygon stroke-linejoin="round" stroke-miterlimit="1" stroke-width="1" points="646.4042663574219,249.9561767578125 646.4042663574219,358.8050842285156 787.8425445556641,310.77191162109375" style="fill:#403440;stroke:#403440;"></polygon><polygon stroke-linejoin="round" stroke-miterlimit="1" stroke-width="1" points="787.8425445556641,114.47158813476562 646.4042663574219,249.9561767578125 787.8425445556641,310.77191162109375" style="fill:#413641;stroke:#413641;"></polygon><polygon stroke-linejoin="round" stroke-miterlimit="1" stroke-width="1" points="646.4042663574219,101.04864501953125 646.4042663574219,249.9561767578125 787.8425445556641,114.47158813476562" style="fill:#413642;stroke:#413642;"></polygon><polygon stroke-linejoin="round" stroke-miterlimit="1" stroke-width="1" points="787.8425445556641,73.59957885742188 646.4042663574219,101.04864501953125 787.8425445556641,114.47158813476562" style="fill:#433845;stroke:#433845;"></polygon><polygon stroke-linejoin="round" stroke-miterlimit="1" stroke-width="1" points="646.4042663574219,16.90826416015625 646.4042663574219,101.04864501953125 787.8425445556641,73.59957885742188" style="fill:#3e323d;stroke:#3e323d;"></polygon><polygon stroke-linejoin="round" stroke-miterlimit="1" stroke-width="1" points="787.8425445556641,-108.903076171875 646.4042663574219,16.90826416015625 787.8425445556641,73.59957885742188" style="fill:#372932;stroke:#372932;"></polygon><polygon stroke-linejoin="round" stroke-miterlimit="1" stroke-width="1" points="646.4042663574219,-156.17645263671875 646.4042663574219,16.90826416015625 787.8425445556641,-108.903076171875" style="fill:#4e4656;stroke:#4e4656;"></polygon><polygon stroke-linejoin="round" stroke-miterlimit="1" stroke-width="1" points="646.4042663574219,1026.3595886230469 504.9659423828125,1170.2994995117188 646.4042663574219,1147.6493530273438" style="fill:#423743;stroke:#423743;"></polygon><polygon stroke-linejoin="round" stroke-miterlimit="1" stroke-width="1" points="504.9659423828125,1050.9610900878906 504.9659423828125,1170.2994995117188 646.4042663574219,1026.3595886230469" style="fill:#413642;stroke:#413642;"></polygon><polygon stroke-linejoin="round" stroke-miterlimit="1" stroke-width="1" points="646.4042663574219,930.2982788085938 504.9659423828125,1050.9610900878906 646.4042663574219,1026.3595886230469" style="fill:#3d313c;stroke:#3d313c;"></polygon><polygon stroke-linejoin="round" stroke-miterlimit="1" stroke-width="1" points="504.9659423828125,935.703369140625 504.9659423828125,1050.9610900878906 646.4042663574219,930.2982788085938" style="fill:#433844;stroke:#433844;"></polygon><polygon stroke-linejoin="round" stroke-miterlimit="1" stroke-width="1" points="646.4042663574219,835.9975891113281 504.9659423828125,935.703369140625 646.4042663574219,930.2982788085938" style="fill:#2f1f25;stroke:#2f1f25;"></polygon><polygon stroke-linejoin="round" stroke-miterlimit="1" stroke-width="1" points="504.9659423828125,803.9556579589844 504.9659423828125,935.703369140625 646.4042663574219,835.9975891113281" style="fill:#31222a;stroke:#31222a;"></polygon><polygon stroke-linejoin="round" stroke-miterlimit="1" stroke-width="1" points="646.4042663574219,627.4462585449219 504.9659423828125,803.9556579589844 646.4042663574219,835.9975891113281" style="fill:#392c36;stroke:#392c36;"></polygon><polygon stroke-linejoin="round" stroke-miterlimit="1" stroke-width="1" points="504.9659423828125,674.5493316650391 504.9659423828125,803.9556579589844 646.4042663574219,627.4462585449219" style="fill:#463c4a;stroke:#463c4a;"></polygon><polygon stroke-linejoin="round" stroke-miterlimit="1" stroke-width="1" points="646.4042663574219,507.9377861022949 504.9659423828125,674.5493316650391 646.4042663574219,627.4462585449219" style="fill:#4f4757;stroke:#4f4757;"></polygon><polygon stroke-linejoin="round" stroke-miterlimit="1" stroke-width="1" points="504.9659423828125,590.9787445068359 504.9659423828125,674.5493316650391 646.4042663574219,507.9377861022949" style="fill:#544e5f;stroke:#544e5f;"></polygon><polygon stroke-linejoin="round" stroke-miterlimit="1" stroke-width="1" points="646.4042663574219,358.8050842285156 504.9659423828125,590.9787445068359 646.4042663574219,507.9377861022949" style="fill:#5a5669;stroke:#5a5669;"></polygon><polygon stroke-linejoin="round" stroke-miterlimit="1" stroke-width="1" points="504.9659423828125,386.2911834716797 504.9659423828125,590.9787445068359 646.4042663574219,358.8050842285156" style="fill:#49404e;stroke:#49404e;"></polygon><polygon stroke-linejoin="round" stroke-miterlimit="1" stroke-width="1" points="646.4042663574219,249.9561767578125 504.9659423828125,386.2911834716797 646.4042663574219,358.8050842285156" style="fill:#4e4656;stroke:#4e4656;"></polygon><polygon stroke-linejoin="round" stroke-miterlimit="1" stroke-width="1" points="504.9659423828125,304.81243896484375 504.9659423828125,386.2911834716797 646.4042663574219,249.9561767578125" style="fill:#3a2d37;stroke:#3a2d37;"></polygon><polygon stroke-linejoin="round" stroke-miterlimit="1" stroke-width="1" points="646.4042663574219,101.04864501953125 504.9659423828125,304.81243896484375 646.4042663574219,249.9561767578125" style="fill:#453b48;stroke:#453b48;"></polygon><polygon stroke-linejoin="round" stroke-miterlimit="1" stroke-width="1" points="504.9659423828125,159.56890869140625 504.9659423828125,304.81243896484375 646.4042663574219,101.04864501953125" style="fill:#3d313c;stroke:#3d313c;"></polygon><polygon stroke-linejoin="round" stroke-miterlimit="1" stroke-width="1" points="646.4042663574219,16.90826416015625 504.9659423828125,159.56890869140625 646.4042663574219,101.04864501953125" style="fill:#3f343f;stroke:#3f343f;"></polygon><polygon stroke-linejoin="round" stroke-miterlimit="1" stroke-width="1" points="504.9659423828125,-22.1356201171875 504.9659423828125,159.56890869140625 646.4042663574219,16.90826416015625" style="fill:#453b48;stroke:#453b48;"></polygon><polygon stroke-linejoin="round" stroke-miterlimit="1" stroke-width="1" points="646.4042663574219,-156.17645263671875 504.9659423828125,-22.1356201171875 646.4042663574219,16.90826416015625" style="fill:#433945;stroke:#433945;"></polygon><polygon stroke-linejoin="round" stroke-miterlimit="1" stroke-width="1" points="504.9659423828125,-81.5643310546875 504.9659423828125,-22.1356201171875 646.4042663574219,-156.17645263671875" style="fill:#453b47;stroke:#453b47;"></polygon><polygon stroke-linejoin="round" stroke-miterlimit="1" stroke-width="1" points="504.9659423828125,1050.9610900878906 363.52764892578125,1238.7750244140625 504.9659423828125,1170.2994995117188" style="fill:#33242c;stroke:#33242c;"></polygon><polygon stroke-linejoin="round" stroke-miterlimit="1" stroke-width="1" points="363.52764892578125,1108.5386962890625 363.52764892578125,1238.7750244140625 504.9659423828125,1050.9610900878906" style="fill:#33252d;stroke:#33252d;"></polygon><polygon stroke-linejoin="round" stroke-miterlimit="1" stroke-width="1" points="504.9659423828125,935.703369140625 363.52764892578125,1108.5386962890625 504.9659423828125,1050.9610900878906" style="fill:#403541;stroke:#403541;"></polygon><polygon stroke-linejoin="round" stroke-miterlimit="1" stroke-width="1" points="363.52764892578125,954.1036682128906 363.52764892578125,1108.5386962890625 504.9659423828125,935.703369140625" style="fill:#413642;stroke:#413642;"></polygon><polygon stroke-linejoin="round" stroke-miterlimit="1" stroke-width="1" points="504.9659423828125,803.9556579589844 363.52764892578125,954.1036682128906 504.9659423828125,935.703369140625" style="fill:#3e323d;stroke:#3e323d;"></polygon><polygon stroke-linejoin="round" stroke-miterlimit="1" stroke-width="1" points="363.52764892578125,756.9564514160156 363.52764892578125,954.1036682128906 504.9659423828125,803.9556579589844" style="fill:#3f333e;stroke:#3f333e;"></polygon><polygon stroke-linejoin="round" stroke-miterlimit="1" stroke-width="1" points="504.9659423828125,674.5493316650391 363.52764892578125,756.9564514160156 504.9659423828125,803.9556579589844" style="fill:#362831;stroke:#362831;"></polygon><polygon stroke-linejoin="round" stroke-miterlimit="1" stroke-width="1" points="363.52764892578125,634.6457595825195 363.52764892578125,756.9564514160156 504.9659423828125,674.5493316650391" style="fill:#352730;stroke:#352730;"></polygon><polygon stroke-linejoin="round" stroke-miterlimit="1" stroke-width="1" points="504.9659423828125,590.9787445068359 363.52764892578125,634.6457595825195 504.9659423828125,674.5493316650391" style="fill:#3e323d;stroke:#3e323d;"></polygon><polygon stroke-linejoin="round" stroke-miterlimit="1" stroke-width="1" points="363.52764892578125,533.7571520805359 363.52764892578125,634.6457595825195 504.9659423828125,590.9787445068359" style="fill:#3d313b;stroke:#3d313b;"></polygon><polygon stroke-linejoin="round" stroke-miterlimit="1" stroke-width="1" points="504.9659423828125,386.2911834716797 363.52764892578125,533.7571520805359 504.9659423828125,590.9787445068359" style="fill:#433946;stroke:#433946;"></polygon><polygon stroke-linejoin="round" stroke-miterlimit="1" stroke-width="1" points="363.52764892578125,462.6605529785156 363.52764892578125,533.7571520805359 504.9659423828125,386.2911834716797" style="fill:#463d4a;stroke:#463d4a;"></polygon><polygon stroke-linejoin="round" stroke-miterlimit="1" stroke-width="1" points="504.9659423828125,304.81243896484375 363.52764892578125,462.6605529785156 504.9659423828125,386.2911834716797" style="fill:#433845;stroke:#433845;"></polygon><polygon stroke-linejoin="round" stroke-miterlimit="1" stroke-width="1" points="363.52764892578125,272.2416687011719 363.52764892578125,462.6605529785156 504.9659423828125,304.81243896484375" style="fill:#4d4454;stroke:#4d4454;"></polygon><polygon stroke-linejoin="round" stroke-miterlimit="1" stroke-width="1" points="504.9659423828125,159.56890869140625 363.52764892578125,272.2416687011719 504.9659423828125,304.81243896484375" style="fill:#4e4656;stroke:#4e4656;"></polygon><polygon stroke-linejoin="round" stroke-miterlimit="1" stroke-width="1" points="363.52764892578125,110.38009643554688 363.52764892578125,272.2416687011719 504.9659423828125,159.56890869140625" style="fill:#4e4757;stroke:#4e4757;"></polygon><polygon stroke-linejoin="round" stroke-miterlimit="1" stroke-width="1" points="504.9659423828125,-22.1356201171875 363.52764892578125,110.38009643554688 504.9659423828125,159.56890869140625" style="fill:#4f4857;stroke:#4f4857;"></polygon><polygon stroke-linejoin="round" stroke-miterlimit="1" stroke-width="1" points="363.52764892578125,39.745697021484375 363.52764892578125,110.38009643554688 504.9659423828125,-22.1356201171875" style="fill:#271519;stroke:#271519;"></polygon><polygon stroke-linejoin="round" stroke-miterlimit="1" stroke-width="1" points="504.9659423828125,-81.5643310546875 363.52764892578125,39.745697021484375 504.9659423828125,-22.1356201171875" style="fill:#3c2f39;stroke:#3c2f39;"></polygon><polygon stroke-linejoin="round" stroke-miterlimit="1" stroke-width="1" points="363.52764892578125,-154.74749755859375 363.52764892578125,39.745697021484375 504.9659423828125,-81.5643310546875" style="fill:#3a2e38;stroke:#3a2e38;"></polygon><polygon stroke-linejoin="round" stroke-miterlimit="1" stroke-width="1" points="363.52764892578125,1108.5386962890625 222.08935546875,1239.7625122070312 363.52764892578125,1238.7750244140625" style="fill:#34262e;stroke:#34262e;"></polygon><polygon stroke-linejoin="round" stroke-miterlimit="1" stroke-width="1" points="222.08935546875,1068.3545532226562 222.08935546875,1239.7625122070312 363.52764892578125,1108.5386962890625" style="fill:#35272f;stroke:#35272f;"></polygon><polygon stroke-linejoin="round" stroke-miterlimit="1" stroke-width="1" points="363.52764892578125,954.1036682128906 222.08935546875,1068.3545532226562 363.52764892578125,1108.5386962890625" style="fill:#3d313b;stroke:#3d313b;"></polygon><polygon stroke-linejoin="round" stroke-miterlimit="1" stroke-width="1" points="222.08935546875,979.9826965332031 222.08935546875,1068.3545532226562 363.52764892578125,954.1036682128906" style="fill:#3d303b;stroke:#3d303b;"></polygon><polygon stroke-linejoin="round" stroke-miterlimit="1" stroke-width="1" points="363.52764892578125,756.9564514160156 222.08935546875,979.9826965332031 363.52764892578125,954.1036682128906" style="fill:#362931;stroke:#362931;"></polygon><polygon stroke-linejoin="round" stroke-miterlimit="1" stroke-width="1" points="222.08935546875,850.05224609375 222.08935546875,979.9826965332031 363.52764892578125,756.9564514160156" style="fill:#3a2d37;stroke:#3a2d37;"></polygon><polygon stroke-linejoin="round" stroke-miterlimit="1" stroke-width="1" points="363.52764892578125,634.6457595825195 222.08935546875,850.05224609375 363.52764892578125,756.9564514160156" style="fill:#3d313b;stroke:#3d313b;"></polygon><polygon stroke-linejoin="round" stroke-miterlimit="1" stroke-width="1" points="222.08935546875,704.5214233398438 222.08935546875,850.05224609375 363.52764892578125,634.6457595825195" style="fill:#2a191e;stroke:#2a191e;"></polygon><polygon stroke-linejoin="round" stroke-miterlimit="1" stroke-width="1" points="363.52764892578125,533.7571520805359 222.08935546875,704.5214233398438 363.52764892578125,634.6457595825195" style="fill:#2b1b20;stroke:#2b1b20;"></polygon><polygon stroke-linejoin="round" stroke-miterlimit="1" stroke-width="1" points="222.08935546875,488.97179412841797 222.08935546875,704.5214233398438 363.52764892578125,533.7571520805359" style="fill:#33242b;stroke:#33242b;"></polygon><polygon stroke-linejoin="round" stroke-miterlimit="1" stroke-width="1" points="363.52764892578125,462.6605529785156 222.08935546875,488.97179412841797 363.52764892578125,533.7571520805359" style="fill:#382b34;stroke:#382b34;"></polygon><polygon stroke-linejoin="round" stroke-miterlimit="1" stroke-width="1" points="222.08935546875,442.8119201660156 222.08935546875,488.97179412841797 363.52764892578125,462.6605529785156" style="fill:#35272f;stroke:#35272f;"></polygon><polygon stroke-linejoin="round" stroke-miterlimit="1" stroke-width="1" points="363.52764892578125,272.2416687011719 222.08935546875,442.8119201660156 363.52764892578125,462.6605529785156" style="fill:#31222a;stroke:#31222a;"></polygon><polygon stroke-linejoin="round" stroke-miterlimit="1" stroke-width="1" points="222.08935546875,236.47613525390625 222.08935546875,442.8119201660156 363.52764892578125,272.2416687011719" style="fill:#3d313c;stroke:#3d313c;"></polygon><polygon stroke-linejoin="round" stroke-miterlimit="1" stroke-width="1" points="363.52764892578125,110.38009643554688 222.08935546875,236.47613525390625 363.52764892578125,272.2416687011719" style="fill:#3e323d;stroke:#3e323d;"></polygon><polygon stroke-linejoin="round" stroke-miterlimit="1" stroke-width="1" points="222.08935546875,147.42803955078125 222.08935546875,236.47613525390625 363.52764892578125,110.38009643554688" style="fill:#2d1d23;stroke:#2d1d23;"></polygon><polygon stroke-linejoin="round" stroke-miterlimit="1" stroke-width="1" points="363.52764892578125,39.745697021484375 222.08935546875,147.42803955078125 363.52764892578125,110.38009643554688" style="fill:#271519;stroke:#271519;"></polygon><polygon stroke-linejoin="round" stroke-miterlimit="1" stroke-width="1" points="222.08935546875,74.3662109375 222.08935546875,147.42803955078125 363.52764892578125,39.745697021484375" style="fill:#40343f;stroke:#40343f;"></polygon><polygon stroke-linejoin="round" stroke-miterlimit="1" stroke-width="1" points="363.52764892578125,-154.74749755859375 222.08935546875,74.3662109375 363.52764892578125,39.745697021484375" style="fill:#4a4250;stroke:#4a4250;"></polygon><polygon stroke-linejoin="round" stroke-miterlimit="1" stroke-width="1" points="222.08935546875,-144.76434326171875 222.08935546875,74.3662109375 363.52764892578125,-154.74749755859375" style="fill:#3e333e;stroke:#3e333e;"></polygon><polygon stroke-linejoin="round" stroke-miterlimit="1" stroke-width="1" points="222.08935546875,1068.3545532226562 80.65106201171875,1145.768798828125 222.08935546875,1239.7625122070312" style="fill:#32232b;stroke:#32232b;"></polygon><polygon stroke-linejoin="round" stroke-miterlimit="1" stroke-width="1" points="80.65106201171875,1061.6394653320312 80.65106201171875,1145.768798828125 222.08935546875,1068.3545532226562" style="fill:#32242b;stroke:#32242b;"></polygon><polygon stroke-linejoin="round" stroke-miterlimit="1" stroke-width="1" points="222.08935546875,979.9826965332031 80.65106201171875,1061.6394653320312 222.08935546875,1068.3545532226562" style="fill:#3a2d36;stroke:#3a2d36;"></polygon><polygon stroke-linejoin="round" stroke-miterlimit="1" stroke-width="1" points="80.65106201171875,976.3093566894531 80.65106201171875,1061.6394653320312 222.08935546875,979.9826965332031" style="fill:#392c35;stroke:#392c35;"></polygon><polygon stroke-linejoin="round" stroke-miterlimit="1" stroke-width="1" points="222.08935546875,850.05224609375 80.65106201171875,976.3093566894531 222.08935546875,979.9826965332031" style="fill:#302027;stroke:#302027;"></polygon><polygon stroke-linejoin="round" stroke-miterlimit="1" stroke-width="1" points="80.65106201171875,850.5285339355469 80.65106201171875,976.3093566894531 222.08935546875,850.05224609375" style="fill:#33242c;stroke:#33242c;"></polygon><polygon stroke-linejoin="round" stroke-miterlimit="1" stroke-width="1" points="222.08935546875,704.5214233398438 80.65106201171875,850.5285339355469 222.08935546875,850.05224609375" style="fill:#3f333e;stroke:#3f333e;"></polygon><polygon stroke-linejoin="round" stroke-miterlimit="1" stroke-width="1" points="80.65106201171875,704.2990417480469 80.65106201171875,850.5285339355469 222.08935546875,704.5214233398438" style="fill:#3b2f39;stroke:#3b2f39;"></polygon><polygon stroke-linejoin="round" stroke-miterlimit="1" stroke-width="1" points="222.08935546875,488.97179412841797 80.65106201171875,704.2990417480469 222.08935546875,704.5214233398438" style="fill:#372932;stroke:#372932;"></polygon><polygon stroke-linejoin="round" stroke-miterlimit="1" stroke-width="1" points="80.65106201171875,591.2105140686035 80.65106201171875,704.2990417480469 222.08935546875,488.97179412841797" style="fill:#32232a;stroke:#32232a;"></polygon><polygon stroke-linejoin="round" stroke-miterlimit="1" stroke-width="1" points="222.08935546875,442.8119201660156 80.65106201171875,591.2105140686035 222.08935546875,488.97179412841797" style="fill:#271519;stroke:#271519;"></polygon><polygon stroke-linejoin="round" stroke-miterlimit="1" stroke-width="1" points="80.65106201171875,407.51011657714844 80.65106201171875,591.2105140686035 222.08935546875,442.8119201660156" style="fill:#362831;stroke:#362831;"></polygon><polygon stroke-linejoin="round" stroke-miterlimit="1" stroke-width="1" points="222.08935546875,236.47613525390625 80.65106201171875,407.51011657714844 222.08935546875,442.8119201660156" style="fill:#34262e;stroke:#34262e;"></polygon><polygon stroke-linejoin="round" stroke-miterlimit="1" stroke-width="1" points="80.65106201171875,290.0796813964844 80.65106201171875,407.51011657714844 222.08935546875,236.47613525390625" style="fill:#3a2d37;stroke:#3a2d37;"></polygon><polygon stroke-linejoin="round" stroke-miterlimit="1" stroke-width="1" points="222.08935546875,147.42803955078125 80.65106201171875,290.0796813964844 222.08935546875,236.47613525390625" style="fill:#2f1f26;stroke:#2f1f26;"></polygon><polygon stroke-linejoin="round" stroke-miterlimit="1" stroke-width="1" points="80.65106201171875,203.01748657226562 80.65106201171875,290.0796813964844 222.08935546875,147.42803955078125" style="fill:#271519;stroke:#271519;"></polygon><polygon stroke-linejoin="round" stroke-miterlimit="1" stroke-width="1" points="222.08935546875,74.3662109375 80.65106201171875,203.01748657226562 222.08935546875,147.42803955078125" style="fill:#271519;stroke:#271519;"></polygon><polygon stroke-linejoin="round" stroke-miterlimit="1" stroke-width="1" points="80.65106201171875,68.80209350585938 80.65106201171875,203.01748657226562 222.08935546875,74.3662109375" style="fill:#302127;stroke:#302127;"></polygon><polygon stroke-linejoin="round" stroke-miterlimit="1" stroke-width="1" points="222.08935546875,-144.76434326171875 80.65106201171875,68.80209350585938 222.08935546875,74.3662109375" style="fill:#312229;stroke:#312229;"></polygon><polygon stroke-linejoin="round" stroke-miterlimit="1" stroke-width="1" points="80.65106201171875,-142.4495849609375 80.65106201171875,68.80209350585938 222.08935546875,-144.76434326171875" style="fill:#362831;stroke:#362831;"></polygon><polygon stroke-linejoin="round" stroke-miterlimit="1" stroke-width="1" points="80.65106201171875,1061.6394653320312 -60.7872314453125,1218.8428344726562 80.65106201171875,1145.768798828125" style="fill:#33242c;stroke:#33242c;"></polygon><polygon stroke-linejoin="round" stroke-miterlimit="1" stroke-width="1" points="-60.7872314453125,1007.2620849609375 -60.7872314453125,1218.8428344726562 80.65106201171875,1061.6394653320312" style="fill:#35272f;stroke:#35272f;"></polygon><polygon stroke-linejoin="round" stroke-miterlimit="1" stroke-width="1" points="80.65106201171875,976.3093566894531 -60.7872314453125,1007.2620849609375 80.65106201171875,1061.6394653320312" style="fill:#403540;stroke:#403540;"></polygon><polygon stroke-linejoin="round" stroke-miterlimit="1" stroke-width="1" points="-60.7872314453125,972.6737670898438 -60.7872314453125,1007.2620849609375 80.65106201171875,976.3093566894531" style="fill:#3b2e38;stroke:#3b2e38;"></polygon><polygon stroke-linejoin="round" stroke-miterlimit="1" stroke-width="1" points="80.65106201171875,850.5285339355469 -60.7872314453125,972.6737670898438 80.65106201171875,976.3093566894531" style="fill:#35272f;stroke:#35272f;"></polygon><polygon stroke-linejoin="round" stroke-miterlimit="1" stroke-width="1" points="-60.7872314453125,840.9238586425781 -60.7872314453125,972.6737670898438 80.65106201171875,850.5285339355469" style="fill:#312229;stroke:#312229;"></polygon><polygon stroke-linejoin="round" stroke-miterlimit="1" stroke-width="1" points="80.65106201171875,704.2990417480469 -60.7872314453125,840.9238586425781 80.65106201171875,850.5285339355469" style="fill:#3b2f39;stroke:#3b2f39;"></polygon><polygon stroke-linejoin="round" stroke-miterlimit="1" stroke-width="1" points="-60.7872314453125,620.5484161376953 -60.7872314453125,840.9238586425781 80.65106201171875,704.2990417480469" style="fill:#403540;stroke:#403540;"></polygon><polygon stroke-linejoin="round" stroke-miterlimit="1" stroke-width="1" points="80.65106201171875,591.2105140686035 -60.7872314453125,620.5484161376953 80.65106201171875,704.2990417480469" style="fill:#3c2f3a;stroke:#3c2f3a;"></polygon><polygon stroke-linejoin="round" stroke-miterlimit="1" stroke-width="1" points="-60.7872314453125,591.9295310974121 -60.7872314453125,620.5484161376953 80.65106201171875,591.2105140686035" style="fill:#3b2f39;stroke:#3b2f39;"></polygon><polygon stroke-linejoin="round" stroke-miterlimit="1" stroke-width="1" points="80.65106201171875,407.51011657714844 -60.7872314453125,591.9295310974121 80.65106201171875,591.2105140686035" style="fill:#403540;stroke:#403540;"></polygon><polygon stroke-linejoin="round" stroke-miterlimit="1" stroke-width="1" points="-60.7872314453125,388.5547332763672 -60.7872314453125,591.9295310974121 80.65106201171875,407.51011657714844" style="fill:#382a33;stroke:#382a33;"></polygon><polygon stroke-linejoin="round" stroke-miterlimit="1" stroke-width="1" points="80.65106201171875,290.0796813964844 -60.7872314453125,388.5547332763672 80.65106201171875,407.51011657714844" style="fill:#362830;stroke:#362830;"></polygon><polygon stroke-linejoin="round" stroke-miterlimit="1" stroke-width="1" points="-60.7872314453125,228.99142456054688 -60.7872314453125,388.5547332763672 80.65106201171875,290.0796813964844" style="fill:#34252d;stroke:#34252d;"></polygon><polygon stroke-linejoin="round" stroke-miterlimit="1" stroke-width="1" points="80.65106201171875,203.01748657226562 -60.7872314453125,228.99142456054688 80.65106201171875,290.0796813964844" style="fill:#3f333e;stroke:#3f333e;"></polygon><polygon stroke-linejoin="round" stroke-miterlimit="1" stroke-width="1" points="-60.7872314453125,103.35943603515625 -60.7872314453125,228.99142456054688 80.65106201171875,203.01748657226562" style="fill:#473d4b;stroke:#473d4b;"></polygon><polygon stroke-linejoin="round" stroke-miterlimit="1" stroke-width="1" points="80.65106201171875,68.80209350585938 -60.7872314453125,103.35943603515625 80.65106201171875,203.01748657226562" style="fill:#463d4a;stroke:#463d4a;"></polygon><polygon stroke-linejoin="round" stroke-miterlimit="1" stroke-width="1" points="-60.7872314453125,9.271728515625 -60.7872314453125,103.35943603515625 80.65106201171875,68.80209350585938" style="fill:#3f343f;stroke:#3f343f;"></polygon><polygon stroke-linejoin="round" stroke-miterlimit="1" stroke-width="1" points="80.65106201171875,-142.4495849609375 -60.7872314453125,9.271728515625 80.65106201171875,68.80209350585938" style="fill:#3f333e;stroke:#3f333e;"></polygon><polygon stroke-linejoin="round" stroke-miterlimit="1" stroke-width="1" points="-60.7872314453125,-85.25201416015625 -60.7872314453125,9.271728515625 80.65106201171875,-142.4495849609375" style="fill:#3f333e;stroke:#3f333e;"></polygon></svg>